<svg width="175" height="43" viewBox="0 0 175 43" fill="none" xmlns="http://www.w3.org/2000/svg">
<path d="M13.2262 41.1068L13.4242 41.2058C15.9207 42.2333 18.5203 42.7779 21.2189 42.8852C23.1047 42.9513 24.9698 42.7738 26.8101 42.3612C31.7081 41.2429 35.7808 38.796 38.9788 34.9956C42.0323 31.3438 43.6457 27.1432 43.9098 22.4433C43.9923 20.8133 43.8561 19.1999 43.5631 17.5989C42.9194 14.1493 41.4587 11.0669 39.2882 8.2981H38.8508C37.5139 9.76296 36.1192 11.1989 34.7039 12.6019C31.2336 16.035 27.6107 19.3114 23.8557 22.468C21.2107 24.6921 18.5203 26.8708 15.7432 28.9505C12.5412 31.3438 9.28963 33.6752 5.70382 35.5279L5.67081 35.8415L6.49196 36.6833L7.06964 36.7328C10.6926 34.5954 14.2041 32.297 17.6166 29.8459C23.2821 25.7774 28.7165 21.4282 33.9405 16.8273C34.708 16.1382 35.4755 15.4367 36.1852 14.6857L37.0806 14.5041L37.4231 15.2345L37.0889 15.7421C34.8772 18.2014 32.5623 20.5658 30.1484 22.8353C26.4718 26.2849 22.6219 29.5612 18.6152 32.6519C16.0115 34.6697 13.3623 36.6008 10.5028 38.2513C10.1066 38.4865 9.70226 38.697 9.25661 38.9446C9.64862 39.2045 9.99936 39.4273 10.346 39.6502H10.6472C11.881 38.8744 13.123 38.1234 14.3527 37.3435C17.6909 35.2308 20.8888 32.9242 23.9836 30.4897C25.8817 29 27.7675 27.4815 29.5954 25.9053C30.8251 24.8572 32.0506 23.8173 33.1812 22.6661L34.0395 22.534L34.3572 23.2809L34.0808 23.71C32.9089 25.014 31.6957 26.2849 30.4455 27.5269C28.2915 29.6314 26.0509 31.6492 23.7236 33.5844C21.3922 35.5279 18.9989 37.4096 16.4777 39.1344C15.442 39.84 14.3733 40.5043 13.2344 41.1026" fill="#1D1D1B"/>
<path fill-rule="evenodd" clip-rule="evenodd" d="M22.333 0L22.6755 0.0660217C26.1128 0.148549 29.3437 1.02746 32.3725 2.61198C34.3861 3.65595 36.1728 5.00115 37.7697 6.58567L37.7821 7.16748C35.2815 9.47824 32.6902 11.6652 30.0658 13.8315C27.165 16.2331 24.2064 18.5686 21.2189 20.8629C16.7501 24.3084 12.1162 27.5187 7.35024 30.5433C6.20311 31.2695 5.05186 31.9834 3.9006 32.7138C3.4467 32.9902 3.44258 32.9778 3.17024 32.5487C1.58984 30.0234 0.574758 27.3041 0.19926 24.3868C-0.576495 18.3582 0.904867 12.8907 4.78364 8.11654C8.00633 4.16349 12.2028 1.65467 17.2659 0.536426C18.5574 0.255834 19.8779 0.0784002 21.2148 0.0784002L21.4417 0.00412645H22.3372L22.333 0Z" fill="#1D1D1B"/>
<path fill-rule="evenodd" clip-rule="evenodd" d="M13.2262 41.1068C14.3609 40.5084 15.4338 39.8441 16.4695 39.1385C18.9907 37.4137 21.384 35.5321 23.7154 33.5885C26.0426 31.6533 28.2832 29.6355 30.4372 27.5311C31.6875 26.2849 32.9006 25.014 34.0725 23.7142L34.349 23.285L34.0313 22.5382L33.173 22.6702C32.0465 23.8173 30.8168 24.8613 29.5872 25.9094C27.7633 27.4857 25.8735 29 23.9753 30.4938C20.8806 32.9242 17.6826 35.2308 14.3444 37.3477C13.1148 38.1275 11.8727 38.8785 10.6389 39.6543H10.3377C9.99111 39.4315 9.64037 39.2086 9.24836 38.9487C9.68988 38.7011 10.0984 38.4907 10.4945 38.2555C13.3582 36.6049 16.0073 34.6738 18.6069 32.656C22.6136 29.5695 26.4635 26.2931 30.1401 22.8394C32.554 20.5699 34.8689 18.2055 37.0806 15.7462L37.4149 15.2386L37.0724 14.5083L36.177 14.6898C35.4672 15.4408 34.7039 16.1423 33.9322 16.8314C28.7083 21.4323 23.2738 25.7815 17.6084 29.8501C14.2 32.297 10.6843 34.5954 7.06139 36.737L6.4837 36.6874L5.66256 35.8457L5.69557 35.5321C9.28137 33.6793 12.5371 31.3479 15.735 28.9546C18.512 26.8791 21.2024 24.6962 23.8474 22.4721C27.5983 19.3196 31.2212 16.0433 34.6956 12.606C36.1109 11.2031 37.5057 9.76709 38.8426 8.30223H39.28C41.4505 11.071 42.9112 14.1534 43.5549 17.603C43.8479 19.2041 43.984 20.8175 43.9015 22.4474C43.6374 27.1473 42.024 31.3479 38.9705 34.9998C35.7726 38.8001 31.6999 41.2471 26.8019 42.3653C24.9615 42.7738 23.0964 42.9554 21.2107 42.8894C18.512 42.7821 15.9083 42.2374 13.416 41.2099L13.2179 41.1109L13.2262 41.1068Z" fill="#1D1D1B"/>
<path d="M59.755 13.2374C59.1525 12.4575 58.187 12.0325 57.1842 12.0325C55.4017 12.0325 54.1926 13.3694 54.1926 15.0695C54.1926 16.7695 55.414 18.0528 57.2338 18.0528C58.187 18.0528 59.1401 17.5948 59.755 16.8892V20.2975C58.7853 20.5905 58.0838 20.8092 57.1719 20.8092C55.608 20.8092 54.1142 20.2274 52.9547 19.1999C51.7127 18.1065 51.1515 16.6829 51.1515 15.0571C51.1515 13.5551 51.7292 12.1191 52.8062 11.0463C53.9079 9.93627 55.5048 9.27192 57.0852 9.27192C58.026 9.27192 58.8843 9.47824 59.755 9.82073V13.2415V13.2374Z" fill="#1D1D1B"/>
<path d="M74.028 14.8343C74.028 18.387 71.4161 20.8794 67.8096 20.8794C64.2032 20.8794 61.5871 18.3829 61.5871 14.8343C61.5871 11.5167 64.5704 9.19765 67.8096 9.19765C71.0488 9.19765 74.028 11.5167 74.028 14.8343ZM64.6282 14.8549C64.6282 16.7365 66.06 18.1271 67.8096 18.1271C69.5592 18.1271 70.9869 16.7365 70.9869 14.8549C70.9869 13.3364 69.5551 11.9541 67.8096 11.9541C66.0642 11.9541 64.6282 13.3364 64.6282 14.8549Z" fill="#1D1D1B"/>
<path d="M87.8472 14.8343C87.8472 18.387 85.2352 20.8794 81.6247 20.8794C78.0141 20.8794 75.4062 18.3829 75.4062 14.8343C75.4062 11.5167 78.3896 9.19765 81.6247 9.19765C84.8597 9.19765 87.8472 11.5167 87.8472 14.8343ZM78.4556 14.8549C78.4556 16.7365 79.8792 18.1271 81.6288 18.1271C83.3784 18.1271 84.8102 16.7365 84.8102 14.8549C84.8102 13.3364 83.3825 11.9541 81.6288 11.9541C79.8751 11.9541 78.4556 13.3364 78.4556 14.8549Z" fill="#1D1D1B"/>
<path d="M94.2719 9.56077C96.6859 9.56077 98.357 10.6501 98.357 13.1672C98.357 15.6843 96.9293 16.8892 94.3751 16.8892H92.7204V20.5204H89.799V9.56077H94.2719ZM92.7204 14.5867H93.2115C94.2678 14.5867 95.3077 14.5867 95.3077 13.2539C95.3077 11.921 94.3421 11.8592 93.2115 11.8592H92.7204V14.5867Z" fill="#1D1D1B"/>
<path d="M103.177 11.9664V13.7985H106.465V16.2125H103.177V18.1065H106.643V20.5162H100.255V9.55664H106.643V11.9664H103.177Z" fill="#1D1D1B"/>
<path d="M114.759 20.5204L112.003 16.3074H111.97V20.5204H109.048V9.56077H113.418C115.642 9.56077 117.322 10.5882 117.322 12.9279C117.322 14.4464 116.455 15.7544 114.862 16.0226L118.399 20.5204H114.759ZM111.97 14.4711H112.25C113.208 14.4711 114.285 14.2937 114.285 13.1053C114.285 11.9169 113.208 11.7354 112.25 11.7354H111.97V14.4711Z" fill="#1D1D1B"/>
<path d="M122.653 18.614L121.877 20.5204H118.774L123.099 9.56077H126.288L130.522 20.5204H127.411L126.684 18.614H122.653ZM124.691 12.9403H124.658L123.449 16.4353H125.884L124.687 12.9403H124.691Z" fill="#1D1D1B"/>
<path d="M140.363 13.2374C139.765 12.4575 138.795 12.0325 137.797 12.0325C136.006 12.0325 134.797 13.3694 134.797 15.0695C134.797 16.7695 136.027 18.0528 137.838 18.0528C138.795 18.0528 139.753 17.5948 140.363 16.8892V20.3017C139.39 20.5905 138.692 20.8092 137.784 20.8092C136.216 20.8092 134.727 20.2274 133.559 19.1999C132.321 18.1065 131.76 16.6829 131.76 15.0571C131.76 13.5551 132.338 12.1191 133.415 11.0504C134.516 9.93627 136.109 9.27192 137.694 9.27192C138.634 9.27192 139.493 9.47824 140.363 9.82073V13.2415V13.2374Z" fill="#1D1D1B"/>
<path d="M146.875 9.55664H143.953V20.5162H146.875V9.55664Z" fill="#1D1D1B"/>
<path d="M161.548 14.8343C161.548 18.387 158.94 20.8794 155.33 20.8794C151.719 20.8794 149.111 18.387 149.111 14.8343C149.111 11.5208 152.095 9.19352 155.33 9.19352C158.565 9.19352 161.548 11.5208 161.548 14.8343ZM152.152 14.8549C152.152 16.7365 153.584 18.1271 155.33 18.1271C157.075 18.1271 158.507 16.7365 158.507 14.8549C158.507 13.3364 157.075 11.9499 155.33 11.9499C153.584 11.9499 152.152 13.3364 152.152 14.8549ZM154.674 8.45491L153.465 7.59662L155.565 5.0878L157.224 6.25143L154.669 8.45078L154.674 8.45491Z" fill="#1D1D1B"/>
<path d="M162.604 9.55664H165.53L170.882 16.262H170.911V9.55664H173.836V20.5162H170.911L165.555 13.7985H165.53V20.5162H162.604V9.55664Z" fill="#1D1D1B"/>
<path d="M53.1157 23.6853H51.8654V34.6243H53.1157V23.6853Z" fill="#1D1D1B"/>
<path d="M56.0578 23.2149L64.8139 32.1608V23.6894H66.06V35.1194L57.3122 26.1982V34.6243H56.0578V23.2149Z" fill="#1D1D1B"/>
<path d="M71.969 34.6243H70.7187V24.8159H68.0077V23.6853H74.7089V24.8159H71.969V34.6243Z" fill="#1D1D1B"/>
<path d="M76.5823 23.6894H82.4045V24.8159H77.8367V28.0716H82.2684V29.194H77.8367V33.4978H82.4045V34.6284H76.5823V23.6894Z" fill="#1D1D1B"/>
<path d="M86.3782 34.6243H85.1321V23.6894H86.7496C88.8788 23.6894 90.8553 24.2423 90.8553 26.7017C90.8553 28.377 89.7742 29.5695 88.0453 29.718L91.6187 34.6243H90.0878L86.6918 29.8253H86.3782V34.6243ZM86.3782 28.7483H86.7661C88.1732 28.7483 89.6092 28.4884 89.6092 26.7842C89.6092 24.9892 88.2516 24.8118 86.7496 24.8118H86.3782V28.7483Z" fill="#1D1D1B"/>
<path d="M93.8676 23.2149L102.615 32.1608V23.6894H103.87V35.1194L95.1137 26.1982V34.6243H93.8676V23.2149Z" fill="#1D1D1B"/>
<path d="M108.487 31.5212L107.13 34.6243H105.76L110.938 23.1571L115.985 34.6243H114.603L113.282 31.5212H108.487ZM110.905 26.0043L108.987 30.3865H112.783L110.901 26.0043H110.905Z" fill="#1D1D1B"/>
<path d="M126.359 26.0744C125.463 25.1749 124.229 24.6302 122.938 24.6302C120.429 24.6302 118.407 26.747 118.407 29.1568C118.407 31.5666 120.45 33.6835 122.967 33.6835C124.229 33.6835 125.467 33.1058 126.359 32.2392V33.7495C125.389 34.4345 124.192 34.8223 123.012 34.8223C119.835 34.8223 117.157 32.3052 117.157 29.2022C117.157 26.0992 119.789 23.4996 123.012 23.4996C124.262 23.4996 125.36 23.8503 126.359 24.5725V26.0827V26.0744Z" fill="#1D1D1B"/>
<path d="M130.349 23.6853H129.098V34.6243H130.349V23.6853Z" fill="#1D1D1B"/>
<path d="M144.354 29.1733C144.354 32.3218 141.704 34.8182 138.502 34.8182C135.3 34.8182 132.651 32.3259 132.651 29.1733C132.651 26.0208 135.304 23.4955 138.502 23.4955C141.7 23.4955 144.354 26.0373 144.354 29.1733ZM133.901 29.1568C133.901 31.6161 135.956 33.6835 138.502 33.6835C141.048 33.6835 143.107 31.6203 143.107 29.1568C143.107 26.6934 141.077 24.6302 138.502 24.6302C135.928 24.6302 133.901 26.6728 133.901 29.1568Z" fill="#1D1D1B"/>
<path d="M146.718 23.2149L155.474 32.1608V23.6894H156.72V35.1194L147.968 26.1982V34.6243H146.718V23.2149Z" fill="#1D1D1B"/>
<path d="M161.338 31.5212L159.976 34.6243H158.614L163.793 23.1571L168.839 34.6243H167.453L166.128 31.5212H161.338ZM163.76 26.0043L161.841 30.3865H165.637L163.756 26.0043H163.76Z" fill="#1D1D1B"/>
<path d="M171.909 33.4978H175V34.6284H170.651V23.6894H171.909V33.4978Z" fill="#1D1D1B"/>
</svg>
