<svg width="40" height="40" viewBox="0 0 40 40" fill="none" xmlns="http://www.w3.org/2000/svg">
<path d="M1.53559 35.9841C1.36803 36.1459 1.23438 36.3395 1.14243 36.5535C1.05049 36.7675 1.00209 36.9977 1.00007 37.2306C0.998042 37.4635 1.04243 37.6945 1.13064 37.9101C1.21886 38.1257 1.34912 38.3215 1.51385 38.4862C1.67857 38.6509 1.87445 38.7812 2.09006 38.8694C2.30567 38.9576 2.53668 39.002 2.76963 38.9999C3.00258 38.9979 3.23279 38.9495 3.44683 38.8576C3.66087 38.7657 3.85446 38.632 4.0163 38.4645L20.5338 21.9475C20.8031 21.7549 21.1351 21.6708 21.4636 21.7121C21.792 21.7534 22.0929 21.9169 22.3061 22.1702C22.5193 22.4234 22.6292 22.7477 22.6138 23.0784C22.5985 23.4091 22.4591 23.7218 22.2233 23.9542L11.1145 35.0597C11.436 35.5065 11.7959 35.9244 12.19 36.3086L12.1988 36.3174C13.7765 37.7859 15.8502 38.6052 18.0058 38.6118C22.7005 38.6118 26.6023 34.7106 26.6023 30.0165C26.6023 27.9905 27.5444 25.9662 29.0795 24.7366L29.1531 24.6734C29.2461 24.5804 29.3321 24.505 29.4444 24.4103C29.5251 24.3401 29.618 24.2612 29.7338 24.1577C29.9584 23.9542 30.2233 23.6963 30.4496 23.3701C33.7409 19.7408 33.8075 14.8046 31.9409 10.8455C30.0689 6.87412 26.1724 3.70614 21.3391 3.70614C19.7708 3.70011 18.2167 4.00452 16.7666 4.60183C15.3165 5.19914 13.999 6.07754 12.89 7.18637C11.781 8.29521 10.9025 9.61256 10.3051 11.0625C9.7077 12.5124 9.40325 14.0662 9.40928 15.6343V28.1098L1.53559 35.9841ZM32.4075 5.11121C32.0783 5.44012 31.8933 5.88632 31.8931 6.35164C31.893 6.81696 32.0777 7.26329 32.4066 7.59244C32.7356 7.92159 33.1819 8.1066 33.6473 8.10676C34.1126 8.10692 34.559 7.92223 34.8882 7.59332L38.5075 3.97277C38.8271 3.64193 39.0039 3.19883 38.9999 2.7389C38.9959 2.27897 38.8114 1.83901 38.4862 1.51378C38.1609 1.18854 37.7209 1.00406 37.2609 1.00007C36.8009 0.99607 36.3577 1.17288 36.0268 1.49241L32.4075 5.11121ZM21.2566 9.21765C20.412 9.20921 19.5741 9.36933 18.7921 9.68863C18.0101 10.0079 17.2997 10.48 16.7024 11.0772C16.1051 11.6744 15.633 12.3848 15.3137 13.1666C14.9943 13.9485 14.8342 14.7863 14.8426 15.6308C14.8426 15.9797 14.9812 16.3144 15.228 16.5611C15.4748 16.8078 15.8094 16.9464 16.1584 16.9464C16.5074 16.9464 16.842 16.8078 17.0888 16.5611C17.3356 16.3144 17.4742 15.9797 17.4742 15.6308C17.4742 13.4907 19.1163 11.8489 21.2566 11.8489C21.9742 11.8489 22.6338 12.0506 23.197 12.3944C23.4948 12.5765 23.8527 12.6329 24.1921 12.5512C24.5315 12.4694 24.8245 12.2562 25.0066 11.9585C25.1888 11.6608 25.2452 11.3029 25.1635 10.9635C25.0817 10.6242 24.8685 10.3312 24.5707 10.1491C23.5729 9.53809 22.4249 9.21623 21.2549 9.21941" />
</svg>
