<svg width="40" height="40" viewBox="0 0 40 40" fill="none" xmlns="http://www.w3.org/2000/svg">
<path d="M20 4.0625C13.5586 4.0625 8.3125 9.30859 8.3125 15.75V29.4675C8.31132 31.1689 8.97916 32.8025 10.1719 34.0157C10.7568 34.623 11.4582 35.1061 12.234 35.4363C13.0099 35.7665 13.8443 35.937 14.6875 35.9375C17.1352 35.9375 19.1487 34.9002 20.672 32.8549C20.9695 32.4565 21.3062 31.8761 21.696 31.2047C22.7134 29.4536 24.1059 27.0563 25.8909 25.8431C27.6022 24.6803 29.0273 23.2174 30.0081 21.6117C31.1237 19.7968 31.6875 17.8245 31.6875 15.75C31.6875 9.30859 26.4447 4.0625 20 4.0625ZM26.375 16.2812C26.0932 16.2812 25.823 16.1693 25.6237 15.9701C25.4244 15.7708 25.3125 15.5005 25.3125 15.2188C25.3125 12.5824 22.9292 10.4375 20 10.4375C17.0708 10.4375 14.6875 12.5824 14.6875 15.2188V17.2388C16.4931 16.7182 18.5656 16.7926 18.9561 16.8125C19.5392 16.8181 20.1096 16.9834 20.6052 17.2907C21.1008 17.5979 21.5026 18.0352 21.7669 18.5549C22.0312 19.0747 22.1479 19.657 22.1043 20.2384C22.0606 20.8199 21.8583 21.3783 21.5194 21.8527C21.4995 21.88 21.4789 21.9065 21.4563 21.9324C20.3573 23.1941 19.0657 24.9526 18.9023 25.5848C18.8259 25.852 18.6479 26.0786 18.4064 26.2161C18.1649 26.3536 17.8791 26.391 17.6104 26.3203C17.3416 26.2496 17.1113 26.0764 16.9687 25.8379C16.8261 25.5993 16.7827 25.3144 16.8477 25.0442C17.2136 23.6537 19.3001 21.1794 19.8134 20.585C19.9191 20.4248 19.9794 20.2389 19.9879 20.0472C19.9965 19.8554 19.9529 19.6649 19.8618 19.496C19.7707 19.327 19.6356 19.1858 19.4708 19.0875C19.3059 18.9892 19.1175 18.9373 18.9255 18.9375H18.8671C17.7648 18.8784 15.8197 18.9906 14.6875 19.4893V23.1875C14.6875 23.4693 14.5756 23.7395 14.3763 23.9388C14.177 24.1381 13.9068 24.25 13.625 24.25C13.3432 24.25 13.073 24.1381 12.8737 23.9388C12.6744 23.7395 12.5625 23.4693 12.5625 23.1875V15.2188C12.5625 11.4104 15.8988 8.3125 20 8.3125C24.1013 8.3125 27.4375 11.4104 27.4375 15.2188C27.4375 15.5005 27.3256 15.7708 27.1263 15.9701C26.927 16.1693 26.6568 16.2812 26.375 16.2812Z" />
</svg>
