<svg width="81" height="56" viewBox="0 0 81 56" fill="none" xmlns="http://www.w3.org/2000/svg">
<path d="M17.3231 17.024C18.5029 17.4404 19.7174 18.0997 21.0708 19.0714H21.6954L21.3137 14.248C20.1686 13.5193 18.954 12.9294 17.5313 12.5824C17.5313 14.0745 17.4966 15.5666 17.2884 17.024H17.3231Z" fill="#1D1D1B"/>
<path d="M5.97612 15.7748C6.18432 15.2196 6.32313 14.6644 6.39253 14.2133C3.0613 16.33 0.909877 19.9389 0.909877 24.2764C0.909877 24.3111 0.909877 24.3458 0.909877 24.3805C1.25688 23.8253 1.60388 23.2701 1.95089 22.7843C3.6165 20.2165 5.17802 17.7874 5.97612 15.7748Z" fill="#1D1D1B"/>
<path d="M6.70483 28.5792C6.01082 30.0714 5.28212 31.7023 4.79631 33.2985C5.52502 33.9578 6.35783 34.5477 7.26003 34.9988C7.50294 33.7149 7.95404 32.2922 8.54395 30.6613C7.78054 30.1061 7.15593 29.3773 6.67013 28.5445L6.70483 28.5792Z" fill="#1D1D1B"/>
<path d="M5.97612 21.8821C6.28842 20.8064 6.80893 19.8348 7.50294 19.002C8.33574 17.3016 8.92565 15.7401 8.99505 14.3868C8.99505 14.1092 9.06445 13.4152 8.99505 12.8947C8.40514 13.1029 7.81524 13.3458 7.26003 13.6581C7.26003 14.3521 7.05183 15.1502 6.73953 16.0524C5.94142 18.1344 4.34521 20.5982 2.64489 23.2007C2.12439 23.9988 1.56918 24.8663 1.01398 25.7685C1.15278 26.9483 1.43038 28.0587 1.88149 29.0998C2.74899 27.3647 3.79 25.595 4.79631 23.86C5.21272 23.166 5.59442 22.5067 5.97612 21.8474V21.8821Z" fill="#1D1D1B"/>
<path d="M6.25373 27.5729C5.87202 26.5666 5.66382 25.4562 5.66382 24.2764C5.66382 24.207 5.66382 24.1723 5.66382 24.1029C5.62912 24.1723 5.59442 24.2417 5.52502 24.3111C4.41461 26.2196 3.2695 28.1975 2.33259 30.1061C2.81839 31.0083 3.4083 31.8758 4.10231 32.6045C4.65751 30.9042 5.42092 29.2038 6.14962 27.677L6.21903 27.5382L6.25373 27.5729Z" fill="#1D1D1B"/>
<path d="M11.8058 26.6013H18.3294V30.696C16.8026 31.737 15.484 32.1187 13.5408 32.1187C13.2979 32.1187 13.0897 32.1187 12.8815 32.1187C12.4304 33.472 12.0487 34.8947 11.8058 36.3174C12.3263 36.3868 12.8468 36.4215 13.3673 36.4215C16.9761 36.4215 19.7868 35.1723 23.0487 32.6392V22.5761H11.8405V26.5666L11.8058 26.6013Z" fill="#1D1D1B"/>
<path d="M9.30735 31.1471C8.71745 32.7433 8.30104 34.1313 8.05814 35.3805C8.96035 35.7622 9.93196 36.0398 10.9383 36.2133C11.1812 34.7906 11.5629 33.3679 12.014 32.0493C11.0077 31.9105 10.1055 31.5982 9.30735 31.1471Z" fill="#1D1D1B"/>
<path d="M9.86256 14.4909C9.79316 15.4972 9.51555 16.5729 9.02975 17.718C9.55025 17.371 10.1402 17.0934 10.7648 16.8852C11.2853 15.0808 11.5629 13.5887 11.5976 12.3048C11.0077 12.4089 10.4178 12.513 9.86256 12.6865C9.93196 13.4152 9.86256 14.3521 9.86256 14.4909Z" fill="#1D1D1B"/>
<path d="M13.7143 16.3994C14.0266 14.8032 14.1654 13.3805 14.1307 12.1313C14.0266 12.1313 13.9225 12.1313 13.8184 12.1313C13.3326 12.1313 12.8815 12.1313 12.4304 12.2007C12.4304 13.4846 12.1528 14.942 11.7017 16.6423C12.3263 16.5035 13.0203 16.4341 13.749 16.4341L13.7143 16.3994Z" fill="#1D1D1B"/>
<path d="M14.5818 16.4341C15.2064 16.4688 15.8657 16.5729 16.525 16.7811C16.6985 15.3237 16.7679 13.8663 16.7332 12.4089C16.178 12.3048 15.5881 12.2354 14.9982 12.2007C15.0329 13.4846 14.9288 14.8726 14.6165 16.4688L14.5818 16.4341Z" fill="#1D1D1B"/>
<path d="M34.4651 12.5824L24.1591 35.9357H28.7395L30.4745 31.9452H39.8436L41.5786 35.9357H46.1591L35.8531 12.5824H34.4651ZM32.1402 27.9546L35.1591 20.8758L38.178 27.9546H32.1402Z" fill="#1D1D1B"/>
<path d="M53.4115 25.942H63.1275V21.9515H53.4115V16.6076H63.4745V12.5824H48.6922V35.9704H63.6133V31.9452H53.4115V25.942Z" fill="#1D1D1B"/>
<path d="M75.3074 22.1944C72.0108 20.6676 70.5881 19.8348 70.5881 18.3079C70.5881 16.7117 71.7679 15.983 73.4335 15.983C75.4462 15.983 77.2506 17.1281 78.8468 18.8632H79.2632L79.0897 13.901C78.0834 12.9988 76.3137 12.1313 73.2947 12.1313C69.6512 12.1313 66.32 14.4909 66.32 18.5509C66.32 21.7086 68.3673 23.7212 71.9414 25.3521C74.5439 26.5666 76.0708 27.33 76.0708 29.4121C76.0708 31.2859 74.7868 32.3616 72.9477 32.3616C70.2411 32.3616 68.3326 30.696 66.7711 28.6833H66.4241L66.1465 34.166C67.5692 35.3805 69.9982 36.4215 73.1559 36.4215C77.7017 36.4215 80.7553 33.5067 80.7553 29.3079C80.7553 25.595 78.5692 23.7212 75.238 22.1944H75.3074Z" fill="#1D1D1B"/>
<path d="M0.979277 2.65811H1.63858V1.9294C1.60388 1.09659 2.22849 0.471989 2.9572 0.471989C3.3042 0.471989 3.5124 0.541389 3.79 0.68019V1.4436H3.7553C3.5818 1.2701 3.3042 1.2007 3.1307 1.2007C2.71429 1.2007 2.43669 1.4783 2.43669 1.9988V2.69281H3.3042V3.42152H2.43669V7.62025H1.63858V3.38682H0.979277V2.65811Z" fill="#1D1D1B"/>
<path d="M5.14332 5.81584C5.14332 6.54454 5.62912 6.99565 6.32313 6.99565C7.12123 6.99565 7.78054 6.30164 7.78054 5.39943V2.65811H8.57865V7.58555H7.78054V6.85685C7.43354 7.37735 6.77423 7.72435 6.08022 7.72435C5.07392 7.72435 4.34521 7.06505 4.34521 5.98934V2.65811H5.14332V5.81584Z" fill="#1D1D1B"/>
<path d="M13.3673 4.42782C13.3673 3.69912 12.8815 3.24801 12.1875 3.24801C11.3894 3.24801 10.7301 3.94202 10.7301 4.84423V7.58555H9.93196V2.65811H10.7301V3.38682C11.0771 2.86631 11.7364 2.51931 12.4304 2.51931C13.4367 2.51931 14.1654 3.17861 14.1654 4.25432V7.58555H13.3673V4.42782Z" fill="#1D1D1B"/>
<path d="M15.2064 5.12183C15.2064 3.62972 16.3168 2.51931 17.7742 2.51931C18.5376 2.51931 19.1622 2.86631 19.5092 3.31741V0.402588H20.3074V7.58555H19.5092V6.92625C19.1275 7.37735 18.5029 7.72435 17.7048 7.72435C16.3168 7.72435 15.1717 6.61394 15.1717 5.12183H15.2064ZM19.5786 5.12183C19.5786 4.08082 18.8846 3.24801 17.8089 3.24801C16.7332 3.24801 16.0392 4.11552 16.0392 5.12183C16.0392 6.12814 16.7332 6.99565 17.8089 6.99565C18.8846 6.99565 19.5786 6.12814 19.5786 5.12183Z" fill="#1D1D1B"/>
<path d="M21.4178 5.12183C21.4178 3.69912 22.5282 2.51931 23.9856 2.51931C24.749 2.51931 25.3736 2.90101 25.6859 3.28271V2.65811H26.484V7.58555H25.6859V6.96095C25.3389 7.34265 24.749 7.72435 23.9856 7.72435C22.5282 7.72435 21.4178 6.54454 21.4178 5.12183ZM25.7553 5.12183C25.7553 4.08082 25.096 3.24801 23.9856 3.24801C22.8752 3.24801 22.2159 4.11552 22.2159 5.12183C22.2159 6.12814 22.8752 6.99565 23.9856 6.99565C25.096 6.99565 25.7553 6.12814 25.7553 5.12183Z" fill="#1D1D1B"/>
<path d="M31.5503 7.27325C31.238 7.55085 30.7521 7.72435 30.1622 7.72435C28.7742 7.72435 27.5944 6.75275 27.5944 5.12183C27.5944 3.49092 28.8089 2.51931 30.1622 2.51931C30.7521 2.51931 31.238 2.69281 31.585 2.97041V3.76852H31.5156C31.0991 3.38682 30.7174 3.24801 30.1622 3.24801C29.1212 3.24801 28.3925 4.04612 28.3925 5.12183C28.3925 6.19754 29.0518 6.99565 30.1622 6.99565C30.7174 6.99565 31.0644 6.85685 31.5156 6.47514H31.6197V7.27325H31.5503Z" fill="#1D1D1B"/>
<path d="M33.1465 0.61079C33.4588 0.61079 33.7017 0.853692 33.7017 1.16599C33.7017 1.4783 33.4588 1.7212 33.1465 1.7212C32.8342 1.7212 32.5913 1.4783 32.5913 1.16599C32.5913 0.853692 32.8342 0.61079 33.1465 0.61079ZM32.7648 2.65811H33.5629V7.58555H32.7648V2.65811Z" fill="#1D1D1B"/>
<path d="M34.6386 5.12183C34.6386 3.59502 35.7837 2.51931 37.2064 2.51931C38.6291 2.51931 39.7742 3.59502 39.7742 5.12183C39.7742 6.64864 38.6291 7.72435 37.2064 7.72435C35.7837 7.72435 34.6386 6.64864 34.6386 5.12183ZM39.0108 5.12183C39.0108 4.01142 38.2474 3.24801 37.2411 3.24801C36.2348 3.24801 35.4714 4.01142 35.4714 5.12183C35.4714 6.23224 36.2348 6.99565 37.2411 6.99565C38.2474 6.99565 39.0108 6.23224 39.0108 5.12183ZM37.3799 0.61079H38.5597L37.137 1.9641H36.4777L37.3799 0.61079Z" fill="#1D1D1B"/>
<path d="M44.32 4.42782C44.32 3.69912 43.8342 3.24801 43.1402 3.24801C42.3421 3.24801 41.6827 3.94202 41.6827 4.84423V7.58555H40.8846V2.65811H41.6827V3.38682C42.0298 2.86631 42.6891 2.51931 43.3831 2.51931C44.3894 2.51931 45.1181 3.17861 45.1181 4.25432V7.58555H44.32V4.42782Z" fill="#1D1D1B"/>
<path d="M1.04804 51.8631C1.74205 52.4183 2.64426 52.8694 3.75467 52.8694C4.48337 52.8694 5.03858 52.5918 5.03858 52.0366C5.03858 51.4814 4.51807 51.1691 3.06066 50.6833C1.53385 50.1628 0.631639 49.1912 0.631639 47.8379C0.631639 45.9293 2.22785 44.7148 4.30987 44.7148C5.42028 44.7148 6.18369 44.923 6.9471 45.3741L7.0512 47.942H6.9124C6.07959 47.3867 5.38558 47.005 4.34457 47.005C3.68527 47.005 3.19946 47.3173 3.19946 47.7338C3.19946 48.3237 3.68527 48.6013 5.10798 49.0871C6.49599 49.5382 7.7105 50.1628 7.7105 52.0019C7.7105 54.2227 5.87139 55.3331 3.89347 55.3331C2.40135 55.3331 1.22154 54.9514 0.319336 54.3615L0.943942 51.8284H1.08274L1.04804 51.8631Z" fill="#1D1D1B"/>
<path d="M8.64805 50.024C8.64805 47.0051 11.1465 44.7149 14.1307 44.7149C17.1149 44.7149 19.6133 47.0051 19.6133 50.024C19.6133 53.043 17.1149 55.3332 14.1307 55.3332C11.1465 55.3332 8.64805 53.043 8.64805 50.024ZM16.9414 50.024C16.9414 48.3237 15.6575 47.1786 14.1307 47.1786C12.6039 47.1786 11.32 48.3237 11.32 50.024C11.32 51.7244 12.6039 52.8695 14.1307 52.8695C15.6575 52.8695 16.9414 51.7244 16.9414 50.024Z" fill="#1D1D1B"/>
<path d="M21.279 40.412H23.9509V55.0556H21.279V40.412Z" fill="#1D1D1B"/>
<path d="M27.5944 40.2385C28.5313 40.2385 29.2947 41.002 29.2947 41.9389C29.2947 42.8758 28.5313 43.6045 27.5944 43.6045C26.6575 43.6045 25.9288 42.8411 25.9288 41.9389C25.9288 41.0367 26.6922 40.2385 27.5944 40.2385ZM26.2758 44.9925H28.9477V55.0556H26.2758V44.9925Z" fill="#1D1D1B"/>
<path d="M30.7174 50.024C30.7174 46.6581 32.9383 44.7149 35.6796 44.7149C37.0676 44.7149 38.1433 45.1313 38.872 45.9641V40.412H41.5439V55.0556H38.872V53.9799C38.178 54.778 37.137 55.3332 35.6449 55.3332C32.7995 55.3332 30.7174 53.1471 30.7174 50.024ZM39.0108 50.024C39.0108 48.3931 37.8657 47.1786 36.2001 47.1786C34.5345 47.1786 33.3894 48.3931 33.3894 50.024C33.3894 51.655 34.5345 52.8695 36.2001 52.8695C37.8657 52.8695 39.0108 51.655 39.0108 50.024Z" fill="#1D1D1B"/>
<path d="M43.2096 50.024C43.2096 47.1092 45.4304 44.7149 48.2411 44.7149C49.5597 44.7149 50.6701 45.2007 51.2253 45.9294V45.0272H53.8973V55.0903H51.2253V54.1881C50.4966 54.8821 49.6638 55.4026 48.0676 55.4026C45.6733 55.4026 43.2096 53.39 43.2096 50.0934V50.024ZM51.3641 50.024C51.3641 48.4625 50.3231 47.1786 48.6228 47.1786C46.9225 47.1786 45.8815 48.4625 45.8815 50.024C45.8815 51.5856 46.9225 52.8695 48.6228 52.8695C50.3231 52.8695 51.3641 51.5856 51.3641 50.024Z" fill="#1D1D1B"/>
<path d="M62.7458 48.0114C62.3294 47.5256 61.6701 47.2133 60.9761 47.2133C59.831 47.2133 58.7553 47.942 58.7553 49.6076V55.0903H56.0834V45.0272H58.7553V46.0335C59.3799 45.2354 60.3515 44.7496 61.3231 44.7496C62.0865 44.7496 62.5029 44.9231 62.954 45.2007L63.1275 48.0461H62.7458V48.0114Z" fill="#1D1D1B"/>
<path d="M66.1465 40.2385C67.0834 40.2385 67.8468 41.002 67.8468 41.9389C67.8468 42.8758 67.0834 43.6045 66.1465 43.6045C65.2096 43.6045 64.4809 42.8411 64.4809 41.9389C64.4809 41.0367 65.2443 40.2385 66.1465 40.2385ZM64.8279 44.9925H67.4998V55.0556H64.8279V44.9925Z" fill="#1D1D1B"/>
<path d="M69.3042 50.024C69.3042 47.1092 71.525 44.7149 74.3357 44.7149C75.6544 44.7149 76.7648 45.2007 77.32 45.9294V45.0272H79.9919V55.0903H77.32V54.1881C76.5913 54.8821 75.7585 55.4026 74.1622 55.4026C71.7679 55.4026 69.3042 53.39 69.3042 50.0934V50.024ZM77.4588 50.024C77.4588 48.4625 76.4178 47.1786 74.7174 47.1786C73.0171 47.1786 71.9761 48.4625 71.9761 50.024C71.9761 51.5856 73.0171 52.8695 74.7174 52.8695C76.4178 52.8695 77.4588 51.5856 77.4588 50.024Z" fill="#1D1D1B"/>
</svg>
