<svg width="306" height="217" viewBox="0 0 306 217" fill="none" xmlns="http://www.w3.org/2000/svg">
<path d="M229.068 42.8606C226.095 46.369 223.046 49.8003 219.958 53.2317C216.176 57.4726 212.431 61.7907 209.035 66.263C207.568 68.1907 206.14 70.0798 204.441 71.8533C202.936 73.4726 201.276 74.9762 199.501 76.4027C201.585 79.8726 204.634 82.9955 208.301 85.3473C218.376 91.8244 232.541 93.9063 245.511 91.1304C258.48 88.3931 270.021 80.9907 276.93 71.5063C280.134 67.1112 282.604 62.0606 287.622 58.9377C295.149 54.2726 287.936 60.2268 296.158 56.487C301.562 54.0196 305.576 49.3159 305.962 44.381C306.348 39.4461 302.913 34.5497 297.393 32.7762C291.835 31.0027 287.906 31.3497 282.001 32.7762C268.723 35.9377 270.832 35.3425 257.554 38.4654C247.981 39.3907 238.447 40.8558 229.029 42.7835L229.068 42.8606Z" fill="#FCFCFA"/>
<path d="M195.889 114.3C194.654 120.045 193.727 125.828 193.187 131.688C193.033 133.307 192.917 134.965 192.801 136.584C192.724 137.934 193.998 139.013 195.271 139.052C198.359 139.052 201.486 139.129 204.574 139.168C205.847 139.168 207.083 138.011 207.044 136.7C207.005 135.389 205.963 134.271 204.574 134.233C201.486 134.233 198.359 134.156 195.271 134.117L197.742 136.584C197.973 133.153 198.282 129.722 198.745 126.29L198.668 126.946C199.17 123.129 199.865 119.351 200.675 115.611C200.945 114.339 200.289 112.874 198.938 112.604C197.703 112.334 196.198 112.989 195.927 114.339L195.889 114.3Z" fill="#E6007E"/>
<path d="M114.444 134.966C129.068 134.966 140.923 123.125 140.923 108.518C140.923 93.9112 129.068 82.0699 114.444 82.0699C99.8206 82.0699 87.9656 93.9112 87.9656 108.518C87.9656 123.125 99.8206 134.966 114.444 134.966Z" fill="#FDDA59"/>
<path d="M114.483 137.396C105.721 137.396 97.0363 133.425 91.3623 125.907C81.7511 113.184 84.26 95.0249 96.9977 85.3864C103.174 80.7213 110.778 78.7551 118.459 79.8346C126.101 80.9141 132.895 84.8852 137.565 91.0538C147.176 103.777 144.667 121.936 131.93 131.574C126.719 135.507 120.582 137.396 114.522 137.396H114.483ZM114.367 84.4996C109.156 84.4996 104.139 86.1575 99.9312 89.3575C89.3551 97.3382 87.2708 112.413 95.2608 122.977C103.251 133.541 118.343 135.622 128.919 127.642C139.495 119.661 141.58 104.586 133.628 94.0225C129.768 88.8948 124.133 85.6177 117.764 84.731C116.645 84.5767 115.525 84.4996 114.406 84.4996H114.367Z" fill="#007BC4"/>
<path d="M87.8488 124.711C82.0589 129.761 76.3077 134.812 70.5564 139.901C64.8052 144.99 59.0925 150.079 53.4184 155.207C47.7444 160.335 42.0703 165.462 36.3963 170.629C30.7608 175.795 25.1254 180.961 19.5285 186.166C13.9317 191.371 8.33482 196.576 2.77656 201.819C2.08178 202.474 1.4256 203.091 0.730815 203.747C-0.195561 204.633 -0.23416 206.33 0.730815 207.217C1.69579 208.103 3.20115 208.142 4.20473 207.217C9.76298 201.973 15.3598 196.768 20.9567 191.564C26.5535 186.359 32.189 181.192 37.8245 176.026C43.4599 170.86 49.134 165.732 54.808 160.604C60.4821 155.477 66.1947 150.388 71.946 145.298C77.6972 140.209 83.4485 135.159 89.1997 130.108C89.8945 129.491 90.6279 128.874 91.3227 128.258C92.2876 127.409 92.249 125.636 91.3227 124.788C90.2805 123.824 88.8909 123.901 87.8488 124.788V124.711Z" fill="#007BC4"/>
<path d="M120.276 127.178C126.992 133 133.67 138.899 140.309 144.798C146.948 150.697 153.549 156.595 160.11 162.533C163.816 165.887 167.521 169.241 171.227 172.634C172.192 173.482 173.774 173.636 174.701 172.634C175.55 171.67 175.704 170.089 174.701 169.164C168.139 163.188 161.539 157.212 154.938 151.275C148.338 145.337 141.699 139.477 135.06 133.617C131.316 130.301 127.533 127.024 123.789 123.747C122.824 122.899 121.241 122.706 120.315 123.747C119.466 124.672 119.273 126.33 120.315 127.217L120.276 127.178Z" fill="#007BC4"/>
<path d="M128.496 96.2975C128.496 96.2975 128.65 96.259 128.766 96.2204C129.036 96.1433 128.38 96.2204 128.65 96.2204C128.843 96.2204 129.036 96.2204 129.229 96.2204C129.422 96.2204 128.959 96.2204 128.998 96.2204C128.998 96.2204 129.075 96.2204 129.113 96.2204C129.229 96.2204 129.306 96.259 129.422 96.2975C129.499 96.2975 129.577 96.3361 129.654 96.3746C129.924 96.4518 129.268 96.1819 129.615 96.3746C129.77 96.4518 129.924 96.5289 130.078 96.6445C130.156 96.6831 130.233 96.7602 130.31 96.7987C130.464 96.9144 130.117 96.6445 130.156 96.6831C130.194 96.7216 130.233 96.7602 130.31 96.7987C130.426 96.9144 130.58 97.0301 130.696 97.1843C130.696 97.1843 130.735 97.2614 130.773 97.2999C130.889 97.4156 130.619 97.1072 130.657 97.1072C130.696 97.1843 130.773 97.2614 130.85 97.3771C130.928 97.4927 131.121 97.724 131.121 97.8783C131.121 97.8783 130.966 97.4927 131.043 97.6855C131.043 97.724 131.043 97.7626 131.082 97.8011C131.082 97.8783 131.159 97.9939 131.159 98.1096C131.159 98.1867 131.159 98.2638 131.198 98.3795C131.236 98.5722 131.159 98.1096 131.198 98.1481V98.2638C131.198 98.3409 131.198 98.4566 131.198 98.5337C131.198 98.5722 131.198 98.6108 131.198 98.6493C131.198 98.8807 131.198 98.4951 131.198 98.4566C131.198 98.5722 131.121 98.8036 131.082 98.9192C131.082 98.9192 131.043 99.1505 131.005 99.1505C131.005 99.1505 131.198 98.765 131.121 98.9192C131.121 98.9578 131.082 98.9963 131.043 99.0734C131.043 99.112 130.85 99.4975 130.773 99.4975C130.773 99.4975 131.082 99.1505 130.85 99.3819C130.773 99.459 130.735 99.4975 130.657 99.5746C130.619 99.6132 130.542 99.6903 130.503 99.7289C130.464 99.7674 130.233 99.9602 130.503 99.7289C130.773 99.4975 130.503 99.7289 130.464 99.7289C130.387 99.7674 130.31 99.8445 130.233 99.8831C130.194 99.8831 129.885 100.114 129.808 100.076C129.808 100.076 130.194 99.9216 130.04 99.9602C130.04 99.9602 129.963 99.9602 129.924 99.9987C129.847 99.9987 129.77 100.076 129.654 100.076C129.499 100.114 129.345 100.153 129.152 100.192C128.882 100.269 129.577 100.192 129.306 100.192C129.229 100.192 129.113 100.192 129.036 100.192C128.882 100.192 128.727 100.192 128.573 100.192C128.264 100.192 128.843 100.23 128.727 100.192C128.65 100.192 128.573 100.192 128.457 100.153C128.419 100.153 128.033 100.037 128.033 99.9987C128.033 99.9987 128.419 100.192 128.264 100.114C128.264 100.114 128.187 100.114 128.148 100.076C128.071 100.037 127.994 99.9987 127.917 99.9602C127.917 99.9602 127.84 99.9216 127.801 99.8831C127.569 99.7289 127.994 99.9987 127.955 99.9987C127.955 99.9987 127.801 99.8831 127.801 99.8445C127.762 99.806 127.685 99.7289 127.647 99.6903C127.608 99.6132 127.376 99.3819 127.608 99.6518C127.608 99.6518 127.531 99.5361 127.492 99.459C127.454 99.3819 127.415 99.3433 127.376 99.2662C127.222 98.9578 127.492 99.6132 127.415 99.3819C127.376 99.2277 127.338 99.112 127.299 98.9578C127.299 98.8807 127.299 98.8036 127.261 98.7264C127.261 98.7264 127.261 98.6493 127.261 98.6108C127.222 98.418 127.261 99.0349 127.261 98.8421C127.261 98.6493 127.261 98.4566 127.261 98.2638C127.261 98.1867 127.261 98.071 127.261 97.9939C127.261 97.6469 127.183 98.3795 127.261 98.1096C127.261 97.9554 127.338 97.7626 127.376 97.6084C127.376 97.5313 127.415 97.4542 127.454 97.3771C127.569 97.0686 127.299 97.6855 127.415 97.4927C127.492 97.3385 127.569 97.1843 127.685 97.0301C127.685 97.0301 127.724 96.953 127.762 96.953C127.917 96.6831 127.647 97.1072 127.647 97.1072L127.801 96.9144C127.878 96.8373 127.917 96.7987 127.994 96.7216C128.071 96.6831 128.303 96.4518 128.033 96.6831C127.762 96.9144 128.033 96.6831 128.11 96.6831C128.187 96.6445 128.303 96.5674 128.38 96.5289C129.191 96.1048 129.499 94.9096 128.998 94.1771C128.457 93.3674 127.492 93.1361 126.643 93.5602C124.829 94.4855 123.825 96.5289 123.825 98.5337C123.825 99.4975 124.095 100.538 124.597 101.348C125.176 102.351 126.064 103.045 127.145 103.469C129.075 104.201 131.275 103.623 132.819 102.351C133.591 101.734 134.17 100.808 134.44 99.8831C134.787 98.6879 134.594 97.4542 134.093 96.3361C133.012 93.9843 130.156 92.4807 127.647 93.2132C126.797 93.4445 126.141 94.4469 126.45 95.3337C126.759 96.2204 127.647 96.7987 128.573 96.5289L128.496 96.2975Z" fill="#007BC4"/>
<path d="M113.518 103.968C113.518 103.968 113.673 103.929 113.789 103.891C114.059 103.814 113.403 103.891 113.673 103.891C113.866 103.891 114.059 103.891 114.252 103.891C114.445 103.891 113.982 103.891 114.02 103.891C114.02 103.891 114.097 103.891 114.136 103.891C114.252 103.891 114.329 103.929 114.445 103.968C114.522 103.968 114.599 104.007 114.676 104.045C114.947 104.122 114.29 103.852 114.638 104.045C114.792 104.122 114.947 104.199 115.101 104.315C115.178 104.353 115.255 104.431 115.333 104.469C115.487 104.585 115.14 104.315 115.178 104.353C115.217 104.392 115.255 104.431 115.333 104.469C115.448 104.585 115.603 104.7 115.719 104.855C115.719 104.855 115.757 104.932 115.796 104.97C115.912 105.086 115.641 104.778 115.68 104.778C115.719 104.855 115.796 104.932 115.873 105.047C115.95 105.163 116.143 105.394 116.143 105.549C116.143 105.549 115.989 105.163 116.066 105.356C116.066 105.394 116.066 105.433 116.105 105.472C116.105 105.549 116.182 105.664 116.182 105.78C116.182 105.857 116.182 105.934 116.22 106.05C116.259 106.243 116.182 105.78 116.22 105.819V105.934C116.22 106.011 116.22 106.127 116.22 106.204C116.22 106.243 116.22 106.281 116.22 106.32C116.22 106.551 116.22 106.166 116.22 106.127C116.22 106.243 116.143 106.474 116.105 106.59C116.105 106.59 116.066 106.821 116.027 106.821C116.027 106.821 116.22 106.435 116.143 106.59C116.143 106.628 116.105 106.667 116.066 106.744C116.066 106.782 115.873 107.168 115.796 107.168C115.796 107.168 116.105 106.821 115.873 107.052C115.796 107.129 115.757 107.168 115.68 107.245C115.641 107.284 115.564 107.361 115.526 107.399C115.487 107.438 115.255 107.631 115.526 107.399C115.796 107.168 115.526 107.399 115.487 107.399C115.41 107.438 115.333 107.515 115.255 107.553C115.217 107.553 114.908 107.785 114.831 107.746C114.831 107.746 115.217 107.592 115.062 107.631C115.062 107.631 114.985 107.631 114.947 107.669C114.869 107.669 114.792 107.746 114.676 107.746C114.522 107.785 114.368 107.823 114.175 107.862C113.904 107.939 114.599 107.862 114.329 107.862C114.252 107.862 114.136 107.862 114.059 107.862C113.904 107.862 113.75 107.862 113.596 107.862C113.287 107.862 113.866 107.9 113.75 107.862C113.673 107.862 113.596 107.862 113.48 107.823C113.441 107.823 113.055 107.708 113.055 107.669C113.055 107.669 113.441 107.862 113.287 107.785C113.287 107.785 113.21 107.785 113.171 107.746C113.094 107.708 113.017 107.669 112.94 107.631C112.94 107.631 112.862 107.592 112.824 107.553C112.592 107.399 113.017 107.669 112.978 107.669C112.978 107.669 112.824 107.553 112.824 107.515C112.785 107.476 112.708 107.399 112.669 107.361C112.631 107.284 112.399 107.052 112.631 107.322C112.631 107.322 112.554 107.206 112.515 107.129C112.476 107.052 112.438 107.014 112.399 106.937C112.245 106.628 112.515 107.284 112.438 107.052C112.399 106.898 112.361 106.782 112.322 106.628C112.322 106.551 112.322 106.474 112.283 106.397C112.283 106.397 112.283 106.32 112.283 106.281C112.245 106.088 112.283 106.705 112.283 106.513C112.283 106.32 112.283 106.127 112.283 105.934C112.283 105.857 112.283 105.741 112.283 105.664C112.283 105.317 112.206 106.05 112.283 105.78C112.283 105.626 112.361 105.433 112.399 105.279C112.399 105.202 112.438 105.125 112.476 105.047C112.592 104.739 112.322 105.356 112.438 105.163C112.515 105.009 112.592 104.855 112.708 104.7C112.708 104.7 112.747 104.623 112.785 104.623C112.94 104.353 112.669 104.778 112.669 104.778L112.824 104.585C112.901 104.508 112.94 104.469 113.017 104.392C113.094 104.353 113.326 104.122 113.055 104.353C112.785 104.585 113.055 104.353 113.133 104.353C113.21 104.315 113.326 104.238 113.403 104.199C114.213 103.775 114.522 102.58 114.02 101.847C113.48 101.038 112.515 100.807 111.666 101.231C109.852 102.156 108.848 104.199 108.848 106.204C108.848 107.168 109.118 108.209 109.62 109.019C110.199 110.021 111.087 110.715 112.168 111.139C114.097 111.872 116.298 111.293 117.842 110.021C118.614 109.404 119.193 108.479 119.463 107.553C119.81 106.358 119.617 105.125 119.115 104.007C118.035 101.655 115.178 100.151 112.669 100.884C111.82 101.115 111.164 102.117 111.473 103.004C111.782 103.891 112.669 104.469 113.596 104.199L113.518 103.968Z" fill="#007BC4"/>
<path d="M112.516 91.8245C117.225 92.2872 122.204 92.0944 126.489 90.0125C128.341 89.1257 129.847 87.8149 131.082 86.1956C131.584 85.5788 131.97 84.8848 132.278 84.1523C132.703 83.1498 133.05 82.2245 133.089 81.1065C133.128 79.1402 132.278 77.0968 131.12 75.5161C129.422 73.1643 127.106 71.198 124.481 69.9258C122.05 68.7306 119.425 68.1137 116.723 67.8438C114.639 67.6511 112.516 67.8438 110.586 68.7306C108.887 69.5017 107.614 71.0438 107.073 72.8173C106.494 74.7065 106.764 76.827 107.382 78.639C107.614 79.2944 107.884 79.9113 108.154 80.5667C108.347 81.0294 108.887 81.3763 109.312 81.5691C109.814 81.7619 110.393 81.8775 110.933 81.6848C111.358 81.5691 111.705 81.3378 112.014 81.0679C112.439 80.6824 112.786 79.9113 112.747 79.333C112.4 75.8245 111.551 72.4318 110.393 69.1161C109.698 67.1499 108.926 65.2607 108.077 63.3715C107.266 61.598 106.456 59.8246 105.491 58.1282C104.603 56.586 103.445 55.0824 102.055 53.9643C100.396 52.6149 98.5043 51.4583 96.3041 51.3426C94.6444 51.2655 93.0618 52.0752 92.1354 53.4631C91.2091 54.8511 90.5143 56.4703 90.0511 58.0511C88.7773 62.2535 88.9317 66.7258 89.6265 71.0053C89.7037 71.545 90.2827 72.239 90.7459 72.4703C91.2091 72.7017 91.7495 72.8559 92.3284 72.7788C93.6022 72.6245 94.3742 71.5836 94.4514 70.3499C94.5672 68.7691 94.2584 67.1498 93.7566 65.6462C93.139 63.7185 92.2512 61.8679 91.2477 60.0944C88.7001 55.6607 85.3806 51.6125 81.9067 47.9113C81.4049 47.3715 80.9031 46.8318 80.3628 46.3306C79.8996 45.8679 79.4364 45.4053 78.7802 45.2125C78.2398 45.0583 77.6608 45.174 77.0818 45.2896C76.2327 45.4438 75.4607 45.7523 74.6887 46.0993C73.3763 46.7547 72.1798 47.8728 71.5236 49.2221C69.9796 52.3836 70.6744 56.0848 71.9482 59.2077C73.8395 63.9113 76.773 68.0366 80.054 71.892C80.5171 72.4703 81.0189 73.0101 81.5207 73.5498C82.3699 74.5137 84.1455 74.4751 84.9946 73.5498C85.921 72.5089 85.921 71.0824 84.9946 70.08C84.4156 69.4631 83.8753 68.8077 83.3349 68.1523C83.1033 67.8438 82.8331 67.5739 82.6015 67.2655C82.5243 67.1498 81.8681 66.2631 81.7909 66.2631C81.7909 66.2631 82.1769 66.7643 81.9067 66.3788C81.8681 66.3017 81.8295 66.2631 81.7523 66.186C81.6365 66.0318 81.5207 65.9161 81.4435 65.7619C81.2119 65.4535 80.9803 65.1065 80.7487 64.798C80.3242 64.2197 79.9382 63.6029 79.5522 63.0246C78.8574 61.9065 78.1626 60.7884 77.5836 59.6318C77.3134 59.092 77.0432 58.5908 76.8116 58.0511C76.8116 57.974 76.7344 57.8968 76.7344 57.8583C76.7344 57.8197 76.966 58.4366 76.8888 58.2053C76.8502 58.0896 76.773 57.974 76.7344 57.8583C76.6186 57.5884 76.5414 57.3185 76.4257 57.0486C76.0783 56.0462 75.7695 54.9667 75.6537 53.9258L75.7309 54.5812C75.6151 53.8101 75.6151 53.0005 75.7309 52.2294L75.6537 52.8848C75.6923 52.5764 75.7695 52.2679 75.8467 51.9981C75.8467 51.8824 75.9239 51.7282 75.9625 51.6125C76.0397 51.4197 76.1941 51.1499 75.8081 51.9595C75.8081 51.8824 75.8467 51.8438 75.8853 51.7667C76.0011 51.5354 76.1555 51.3041 76.3099 51.0727C76.5415 50.7643 75.9239 51.5354 76.0783 51.3812C76.1169 51.3426 76.1555 51.2655 76.2327 51.227C76.3099 51.1113 76.4257 51.0342 76.5029 50.9571C76.58 50.88 76.6958 50.8029 76.8116 50.6872C76.1169 51.3041 76.4643 50.9571 76.6959 50.8029C76.8116 50.7258 76.966 50.6487 77.0818 50.5715C77.1976 50.4944 77.4292 50.4559 77.5064 50.3788C77.4678 50.4173 76.8116 50.6487 77.1976 50.533C77.2748 50.533 77.352 50.4944 77.3906 50.4559C77.545 50.4173 77.6994 50.3402 77.8152 50.3017C78.1626 50.2246 78.51 50.1475 78.8574 50.0703L76.4643 49.4535C77.9696 50.9571 79.3978 52.4993 80.7873 54.08C81.4049 54.8125 82.0225 55.545 82.6401 56.2776C82.7945 56.4703 82.9103 56.6246 83.0647 56.8173C83.1419 56.8944 83.1805 56.9715 83.2577 57.0486C83.5665 57.4727 82.9875 56.7017 83.1805 56.9715C83.4507 57.3185 83.7209 57.7041 83.9911 58.0896C84.9946 59.439 85.9596 60.8655 86.8088 62.3306C87.1948 62.986 87.5422 63.6414 87.8896 64.3354C88.044 64.6438 88.1983 64.9523 88.3141 65.2607C88.3913 65.3764 88.4299 65.5306 88.5071 65.6462C88.7001 66.0703 88.5071 65.7233 88.5071 65.6462C88.3141 65.2221 88.5071 65.6077 88.5071 65.6848C89.0089 66.88 89.3949 68.1523 89.5879 69.4631L89.5107 68.8077C89.5879 69.386 89.6265 69.9643 89.5879 70.5426C91.2091 70.3113 92.8302 70.1185 94.4128 69.8872C94.3356 69.5017 94.297 69.1547 94.2584 68.7691L94.3356 69.4246C94.0268 66.9571 93.911 64.4896 94.2584 62.0221L94.1812 62.6776C94.297 61.7908 94.49 60.8655 94.7216 60.0173C94.8374 59.5932 94.9918 59.1306 95.1462 58.7065C95.2234 58.5137 95.3006 58.3209 95.3778 58.1282C95.5322 57.7041 95.1076 58.7065 95.3006 58.2824C95.3392 58.2053 95.3778 58.0896 95.4164 58.0125C95.6094 57.627 95.8024 57.2414 95.9953 56.8944C96.1111 56.7402 96.1883 56.5474 96.3041 56.3932C96.3427 56.3161 96.4199 56.239 96.4585 56.1619C96.6129 55.892 95.9953 56.6631 96.1883 56.5089C96.2655 56.4703 96.3813 56.3547 96.4199 56.2776C96.4199 56.2776 95.8409 56.6631 96.0725 56.5474C96.1111 56.5474 96.1883 56.4703 96.2269 56.4318C96.3041 56.3547 96.5743 56.2776 96.1111 56.4318C95.648 56.586 95.9182 56.5089 95.9953 56.4703C96.1497 56.4703 96.2655 56.3932 96.4199 56.3547L95.7637 56.4318C96.0725 56.4318 96.3427 56.4318 96.6129 56.4318L95.9567 56.3547C96.3041 56.3932 96.6515 56.5089 96.9989 56.6246C97.3463 56.7402 96.7673 56.5089 96.7673 56.5089C96.8831 56.5089 96.9989 56.6246 97.1147 56.6631C97.3463 56.7788 97.5393 56.8944 97.7709 57.0101C98.0025 57.1643 98.2341 57.3185 98.4657 57.4727C98.5043 57.5113 98.8903 57.8583 98.5815 57.5499C98.2727 57.2414 98.6587 57.5884 98.6973 57.627C99.0833 57.9354 99.4307 58.2824 99.7394 58.6294C99.8938 58.7836 100.048 58.9764 100.203 59.1306C100.241 59.2077 100.318 59.2848 100.357 59.3233C100.666 59.7089 100.01 58.8221 100.28 59.2462C100.511 59.5547 100.743 59.9017 100.936 60.2486C101.399 61.0197 101.824 61.8294 102.21 62.639C102.712 63.6414 103.175 64.6053 103.638 65.6077C103.831 66.0703 104.063 66.533 104.256 66.9956C104.333 67.1498 104.487 67.5354 104.256 66.9185C104.294 66.9956 104.333 67.1113 104.371 67.1884C104.487 67.4583 104.603 67.7667 104.719 68.0366C105.452 69.8101 106.07 71.6607 106.61 73.5113C107.15 75.3619 107.575 77.251 107.807 79.1402L107.729 78.4848C107.768 78.7932 107.807 79.1017 107.845 79.4101L112.439 78.1763C112.786 78.9474 112.516 78.4077 112.439 78.2149C112.4 78.0607 112.323 77.945 112.284 77.7908C112.168 77.5209 112.091 77.251 112.014 76.9812C111.86 76.48 111.744 75.9788 111.705 75.4776L111.782 76.133C111.705 75.5547 111.705 74.9764 111.782 74.398L111.705 75.0535C111.705 74.7836 111.782 74.5523 111.86 74.2824C111.86 74.1667 111.937 74.0511 111.975 73.9354C112.053 73.6655 111.667 74.5908 111.821 74.2824C111.821 74.2053 111.898 74.1667 111.898 74.0896C111.937 73.9739 112.014 73.8968 112.053 73.7812C112.053 73.7426 112.13 73.7041 112.13 73.627C112.323 73.3185 111.898 73.9354 111.898 73.9354C112.091 73.8197 112.246 73.5498 112.4 73.3956C112.786 73.0486 111.937 73.7041 112.246 73.5113C112.361 73.4342 112.439 73.3571 112.554 73.3185C112.67 73.2414 112.786 73.1643 112.902 73.1257C112.94 73.1257 113.018 73.0872 113.056 73.0486C113.249 72.933 112.361 73.3185 112.709 73.2029C113.288 73.0101 113.828 72.8559 114.446 72.7788L113.789 72.8559C114.986 72.7017 116.221 72.7788 117.418 72.933L116.762 72.8559C117.881 73.0101 118.962 73.2414 120.043 73.5498C120.583 73.7041 121.2 73.8583 121.741 74.1282C121.741 74.1282 121.239 73.8968 121.471 74.0125C121.548 74.0125 121.586 74.0896 121.664 74.0896C121.818 74.1667 121.972 74.2438 122.127 74.3209C122.436 74.4751 122.783 74.6679 123.092 74.8607C123.401 75.0535 123.709 75.2462 124.018 75.439C124.134 75.5161 124.288 75.6318 124.404 75.7089C124.481 75.786 124.945 76.133 124.636 75.8631C124.327 75.5932 124.79 75.9788 124.867 76.0559C124.983 76.133 125.099 76.2486 125.176 76.3257C125.408 76.5185 125.639 76.7498 125.871 76.9812C126.064 77.1739 126.257 77.3667 126.45 77.598C126.527 77.6751 126.604 77.7908 126.682 77.8679C126.759 77.945 127.106 78.4077 126.836 78.0607C126.566 77.7137 126.836 78.0607 126.875 78.1378C126.952 78.2149 126.99 78.3306 127.068 78.4077C127.222 78.6004 127.338 78.8318 127.454 79.0631C127.569 79.2944 127.685 79.5257 127.801 79.7571C127.801 79.7956 127.84 79.8342 127.878 79.8727C127.994 80.1426 127.647 79.2559 127.762 79.6029C127.762 79.7185 127.84 79.7956 127.878 79.9113C128.033 80.3354 128.11 80.7209 128.187 81.145L128.11 80.4896C128.148 80.8751 128.187 81.2221 128.11 81.6077L128.187 80.9523C128.148 81.2992 128.033 81.6077 127.917 81.9161C127.917 82.0318 127.84 82.1089 127.801 82.2245C127.724 82.4559 127.994 81.7619 127.955 81.839C127.955 81.8776 127.917 81.9547 127.878 81.9932C127.801 82.186 127.685 82.3788 127.608 82.533C127.415 82.9185 127.183 83.2655 126.913 83.6125C126.797 83.7667 126.527 84.0751 127.068 83.4197C127.029 83.4968 126.952 83.5739 126.913 83.6125C126.759 83.7667 126.604 83.9595 126.489 84.1137C126.18 84.4221 125.871 84.692 125.562 84.9619C125.446 85.0775 126.103 84.5378 125.717 84.8077C125.639 84.8848 125.562 84.9233 125.446 85.0004C125.253 85.1161 125.099 85.2318 124.906 85.3474C124.52 85.5788 124.095 85.8101 123.671 86.0029C123.594 86.0414 123.478 86.08 123.401 86.1185C124.173 85.7715 123.748 85.9643 123.555 86.0414C123.323 86.1185 123.092 86.2342 122.822 86.3113C121.702 86.6968 120.544 86.9282 119.348 87.0824L120.004 87.0053C117.495 87.3522 114.909 87.2751 112.4 87.0053C111.821 86.9282 111.049 87.3137 110.663 87.7378C110.238 88.1619 109.93 88.8559 109.93 89.4727C109.93 90.0896 110.161 90.7836 110.663 91.2077C111.165 91.6703 111.705 91.8631 112.4 91.9402L112.516 91.8245Z" fill="#007BC4"/>
<path d="M99.5484 100.536C104.258 100.999 109.237 100.806 113.521 98.7244C115.374 97.8377 116.879 96.5268 118.115 94.9075C118.616 94.2907 119.002 93.5967 119.311 92.8642C119.736 91.8618 120.083 90.9365 120.122 89.8184C120.16 87.8521 119.311 85.8088 118.153 84.228C116.455 81.8762 114.139 79.91 111.514 78.6377C109.082 77.4425 106.458 76.8256 103.756 76.5557C101.671 76.363 99.5484 76.5557 97.6185 77.4425C95.9201 78.2136 94.6464 79.7557 94.106 81.5292C93.527 83.4184 93.7972 85.5389 94.4148 87.3509C94.6464 88.0063 94.9166 88.6232 95.1867 89.2786C95.3797 89.7413 95.9201 90.0883 96.3447 90.281C96.8465 90.4738 97.4255 90.5895 97.9659 90.3967C98.3905 90.281 98.7379 90.0497 99.0466 89.7798C99.4712 89.3943 99.8186 88.6232 99.78 88.0449C99.4326 84.5365 98.5835 81.1437 97.4255 77.828C96.7307 75.8618 95.9587 73.9726 95.1095 72.0835C94.299 70.31 93.4884 68.5365 92.5234 66.8401C91.6356 65.2979 90.4777 63.7943 89.0881 62.6762C87.4283 61.3268 85.537 60.1702 83.3369 60.0545C81.6771 59.9774 80.0945 60.7871 79.1682 62.175C78.2418 63.563 77.547 65.1823 77.0838 66.763C75.81 70.9654 75.9644 75.4377 76.6592 79.7172C76.7364 80.2569 77.3154 80.9509 77.7786 81.1822C78.2418 81.4136 78.7822 81.5678 79.3612 81.4907C80.6349 81.3365 81.4069 80.2955 81.4841 79.0618C81.5999 77.481 81.2911 75.8618 80.7893 74.3581C80.1717 72.4304 79.284 70.5798 78.2804 68.8063C75.7329 64.3726 72.4133 60.3244 68.9394 56.6232C68.4376 56.0835 67.9358 55.5437 67.3955 55.0425C66.9323 54.5798 66.4691 54.1172 65.8129 53.9244C65.2725 53.7702 64.6935 53.8859 64.1146 54.0015C63.2654 54.1558 62.4934 54.4642 61.7214 54.8112C60.409 55.4666 59.2125 56.5847 58.5563 57.9341C57.0123 61.0955 57.7071 64.7967 58.9809 67.9196C60.8722 72.6232 63.8058 76.7485 67.0867 80.6039C67.5499 81.1822 68.0517 81.722 68.5534 82.2618C69.4026 83.2256 71.1782 83.1871 72.0273 82.2618C72.9537 81.2208 72.9537 79.7943 72.0273 78.7919C71.4484 78.175 70.908 77.5196 70.3676 76.8642C70.136 76.5557 69.8658 76.2859 69.6342 75.9774C69.557 75.8618 68.9008 74.975 68.8236 74.975C68.8236 74.975 69.2096 75.4762 68.9394 75.0907C68.9008 75.0136 68.8622 74.975 68.785 74.8979C68.6692 74.7437 68.5534 74.628 68.4762 74.4738C68.2446 74.1654 68.013 73.8184 67.7815 73.51C67.3569 72.9316 66.9709 72.3148 66.5849 71.7365C65.8901 70.6184 65.1953 69.5003 64.6163 68.3437C64.3461 67.8039 64.076 67.3027 63.8444 66.763C63.8444 66.6859 63.7672 66.6088 63.7672 66.5702C63.7672 66.5316 63.9988 67.1485 63.9216 66.9172C63.883 66.8015 63.8058 66.6859 63.7672 66.5702C63.6514 66.3003 63.5742 66.0304 63.4584 65.7606C63.111 64.7582 62.8022 63.6786 62.6864 62.6377L62.7636 63.2931C62.6478 62.522 62.6478 61.7124 62.7636 60.9413L62.6864 61.5967C62.725 61.2883 62.8022 60.9798 62.8794 60.71C62.8794 60.5943 62.9566 60.4401 62.9952 60.3244C63.0724 60.1317 63.2268 59.8618 62.8408 60.6714C62.8408 60.5943 62.8794 60.5557 62.918 60.4786C63.0338 60.2473 63.1882 60.016 63.3426 59.7847C63.5742 59.4762 62.9566 60.2473 63.111 60.0931C63.1496 60.0545 63.1882 59.9774 63.2654 59.9389C63.3426 59.8232 63.4584 59.7461 63.5356 59.669C63.6128 59.5919 63.7286 59.5148 63.8444 59.3991C63.1496 60.016 63.497 59.669 63.7286 59.5148C63.8444 59.4377 63.9988 59.3606 64.1146 59.2835C64.2304 59.2064 64.4619 59.1678 64.5391 59.0907C64.5005 59.1292 63.8444 59.3606 64.2303 59.2449C64.3075 59.2449 64.3847 59.2064 64.4233 59.1678C64.5777 59.1292 64.7321 59.0521 64.8479 59.0136C65.1953 58.9365 65.5427 58.8594 65.8901 58.7823L63.497 58.1654C65.0023 59.669 66.4305 61.2112 67.8201 62.7919C68.4376 63.5244 69.0552 64.2569 69.6728 64.9895C69.8272 65.1822 69.943 65.3365 70.0974 65.5292C70.1746 65.6063 70.2132 65.6835 70.2904 65.7606C70.5992 66.1847 70.0202 65.4136 70.2132 65.6835C70.4834 66.0304 70.7536 66.416 71.0238 66.8015C72.0273 68.1509 72.9923 69.5774 73.8415 71.0425C74.2275 71.6979 74.5749 72.3533 74.9223 73.0473C75.0767 73.3557 75.2311 73.6642 75.3469 73.9726C75.4241 74.0883 75.4627 74.2425 75.5399 74.3581C75.7329 74.7822 75.5399 74.4353 75.5399 74.3581C75.3469 73.9341 75.5399 74.3196 75.5399 74.3967C76.0416 75.5919 76.4276 76.8642 76.6206 78.175L76.5434 77.5196C76.6206 78.0979 76.6592 78.6762 76.6206 79.2545L81.4455 78.5991C81.3683 78.2136 81.3297 77.8666 81.2911 77.481L81.3683 78.1365C81.0595 75.669 80.9437 73.2015 81.2911 70.7341L81.2139 71.3895C81.3297 70.5027 81.5227 69.5774 81.7543 68.7292C81.8701 68.3051 82.0245 67.8425 82.1789 67.4184C82.2561 67.2256 82.3333 67.0329 82.4105 66.8401C82.5649 66.416 82.1403 67.4184 82.3333 66.9943C82.3719 66.9172 82.4105 66.8015 82.4491 66.7244C82.6421 66.3389 82.8351 65.9533 83.0281 65.6063C83.1439 65.4521 83.2211 65.2594 83.3369 65.1051C83.3755 65.028 83.4526 64.9509 83.4912 64.8738C83.6456 64.6039 83.0281 65.375 83.2211 65.2208C83.2983 65.1823 83.4141 65.0666 83.4527 64.9895C83.4527 64.9895 82.8737 65.375 83.1053 65.2594C83.1439 65.2594 83.2211 65.1823 83.2597 65.1437C83.3369 65.0666 83.6071 64.9895 83.1439 65.1437C82.6807 65.2979 82.9509 65.2208 83.0281 65.1823C83.1825 65.1823 83.2983 65.1051 83.4527 65.0666L82.7965 65.1437C83.1053 65.1437 83.3755 65.1437 83.6456 65.1437L82.9895 65.0666C83.3369 65.1051 83.6842 65.2208 84.0316 65.3365C84.379 65.4521 83.8 65.2208 83.8 65.2208C83.9158 65.2208 84.0316 65.3365 84.1474 65.375C84.379 65.4907 84.572 65.6063 84.8036 65.722C85.0352 65.8762 85.2668 66.0304 85.4984 66.1847C85.537 66.2232 85.923 66.5702 85.6142 66.2618C85.3054 65.9533 85.6914 66.3003 85.73 66.3389C86.116 66.6473 86.4634 66.9943 86.7722 67.3413C86.9266 67.4955 87.081 67.6883 87.2354 67.8425C87.274 67.9196 87.3511 67.9967 87.3897 68.0353C87.6985 68.4208 87.0424 67.5341 87.3126 67.9582C87.5441 68.2666 87.7757 68.6136 87.9687 68.9606C88.4319 69.7316 88.8565 70.5413 89.2425 71.3509C89.7443 72.3533 90.2075 73.3172 90.6707 74.3196C90.8637 74.7822 91.0952 75.2449 91.2882 75.7075C91.3654 75.8618 91.5198 76.2473 91.2882 75.6304C91.3268 75.7075 91.3654 75.8232 91.404 75.9003C91.5198 76.1702 91.6356 76.4786 91.7514 76.7485C92.4848 78.522 93.1024 80.3726 93.6428 82.2232C94.1832 84.0738 94.6078 85.963 94.8394 87.8521L94.7622 87.1967C94.8008 87.5051 94.8394 87.8136 94.878 88.122L99.4712 86.8883C99.8186 87.6593 99.5484 87.1196 99.4712 86.9268C99.4326 86.7726 99.3554 86.6569 99.3168 86.5027C99.201 86.2328 99.1238 85.963 99.0466 85.6931C98.8922 85.1919 98.7765 84.6907 98.7379 84.1895L98.8151 84.8449C98.7379 84.2666 98.7379 83.6883 98.8151 83.11L98.7379 83.7654C98.7379 83.4955 98.8151 83.2642 98.8923 82.9943C98.8923 82.8786 98.9694 82.763 99.008 82.6473C99.0852 82.3774 98.6993 83.3027 98.8537 82.9943C98.8537 82.9172 98.9308 82.8786 98.9308 82.8015C98.9694 82.6859 99.0466 82.6087 99.0852 82.4931C99.0852 82.4545 99.1624 82.416 99.1624 82.3389C99.3554 82.0304 98.9308 82.6473 98.9308 82.6473C99.1238 82.5316 99.2782 82.2618 99.4326 82.1075C99.8186 81.7606 98.9694 82.416 99.2782 82.2232C99.394 82.1461 99.4712 82.069 99.587 82.0304C99.7028 81.9533 99.8186 81.8762 99.9344 81.8377C99.973 81.8377 100.05 81.7991 100.089 81.7606C100.282 81.6449 99.394 82.0304 99.7414 81.9148C100.32 81.722 100.861 81.5678 101.478 81.4907L100.822 81.5678C102.019 81.4136 103.254 81.4907 104.451 81.6449L103.794 81.5678C104.914 81.722 105.994 81.9533 107.075 82.2618C107.616 82.416 108.233 82.5702 108.774 82.8401C108.774 82.8401 108.272 82.6087 108.503 82.7244C108.581 82.7244 108.619 82.8015 108.696 82.8015C108.851 82.8786 109.005 82.9557 109.16 83.0328C109.468 83.1871 109.816 83.3798 110.125 83.5726C110.433 83.7654 110.742 83.9581 111.051 84.1509C111.167 84.228 111.321 84.3437 111.437 84.4208C111.514 84.4979 111.977 84.8449 111.669 84.575C111.36 84.3051 111.823 84.6907 111.9 84.7678C112.016 84.8449 112.132 84.9606 112.209 85.0377C112.44 85.2304 112.672 85.4618 112.904 85.6931C113.097 85.8859 113.29 86.0786 113.483 86.31C113.56 86.3871 113.637 86.5027 113.714 86.5798C113.791 86.6569 114.139 87.1196 113.869 86.7726C113.598 86.4256 113.869 86.7726 113.907 86.8497C113.984 86.9268 114.023 87.0425 114.1 87.1196C114.255 87.3124 114.37 87.5437 114.486 87.775C114.602 88.0063 114.718 88.2377 114.834 88.469C114.834 88.5075 114.872 88.5461 114.911 88.5846C115.027 88.8545 114.679 87.9678 114.795 88.3148C114.795 88.4304 114.872 88.5075 114.911 88.6232C115.065 89.0473 115.142 89.4328 115.22 89.8569L115.142 89.2015C115.181 89.5871 115.22 89.934 115.142 90.3196L115.22 89.6642C115.181 90.0112 115.065 90.3196 114.949 90.628C114.949 90.7437 114.872 90.8208 114.834 90.9365C114.756 91.1678 115.027 90.4738 114.988 90.5509C114.988 90.5895 114.949 90.6666 114.911 90.7051C114.834 90.8979 114.718 91.0907 114.641 91.2449C114.448 91.6304 114.216 91.9774 113.946 92.3244C113.83 92.4786 113.56 92.7871 114.1 92.1316C114.062 92.2087 113.984 92.2858 113.946 92.3244C113.791 92.4786 113.637 92.6714 113.521 92.8256C113.212 93.134 112.904 93.4039 112.595 93.6738C112.479 93.7895 113.135 93.2497 112.749 93.5196C112.672 93.5967 112.595 93.6352 112.479 93.7124C112.286 93.828 112.132 93.9437 111.939 94.0593C111.553 94.2907 111.128 94.522 110.704 94.7148C110.626 94.7533 110.511 94.7919 110.433 94.8304C111.205 94.4834 110.781 94.6762 110.588 94.7533C110.356 94.8304 110.125 94.9461 109.854 95.0232C108.735 95.4087 107.577 95.6401 106.38 95.7943L107.037 95.7172C104.528 96.0642 101.942 95.9871 99.4326 95.7172C98.8537 95.6401 98.0817 96.0256 97.6957 96.4497C97.2711 96.8738 96.9623 97.5678 96.9623 98.1846C96.9623 98.8015 97.1939 99.4955 97.6957 99.9196C98.1975 100.382 98.7379 100.575 99.4326 100.652L99.5484 100.536Z" fill="#007BC4"/>
<path d="M63.6109 62.3291C58.9019 61.905 53.9226 62.1749 49.6381 64.3339C47.8239 65.2592 46.28 66.57 45.0834 68.1893C44.5044 68.9989 44.0798 69.8471 43.6939 70.7724C43.3465 71.5821 43.1149 72.4303 43.1149 73.317C43.1149 75.2833 43.964 77.3266 45.122 78.8688C46.859 81.2206 49.1749 83.1098 51.8382 84.3821C54.3086 85.5387 56.9333 86.1556 59.6352 86.3869C61.7196 86.5411 63.8425 86.3098 65.7725 85.423C67.4708 84.6519 68.706 83.0712 69.2464 81.2977C69.7868 79.4086 69.5166 77.2881 68.8604 75.476C68.6288 74.8206 68.3586 74.2038 68.0884 73.5483C67.8954 73.0857 67.355 72.7387 66.9305 72.5459C66.4287 72.3532 65.8497 72.2375 65.3093 72.4303C64.8847 72.5459 64.5373 72.7773 64.2285 73.0471C63.8425 73.4327 63.4565 74.2423 63.4951 74.7821C63.9197 78.2519 64.7689 81.6062 65.9655 84.8833C66.6603 86.811 67.4708 88.7387 68.3586 90.6278C69.2464 92.517 70.057 94.2134 71.0605 95.9098C71.9483 97.4134 73.0677 98.8399 74.4187 99.9194C76.117 101.269 78.047 102.464 80.2857 102.58C81.9455 102.657 83.528 101.847 84.4544 100.459C85.3808 99.0712 85.9984 97.4905 86.5001 95.9098C87.7739 91.6688 87.5423 87.158 86.7703 82.8785C86.6545 82.3387 86.1142 81.6833 85.651 81.4134C85.1878 81.1435 84.6474 81.0278 84.0684 81.105C82.8332 81.2592 82.0227 82.3001 81.9455 83.5339C81.8297 85.1146 82.1771 86.7339 82.6788 88.2375C83.335 90.1652 84.2228 92.0158 85.265 93.7507C87.8511 98.1459 91.2092 102.156 94.7603 105.818C95.2621 106.358 95.8025 106.859 96.3043 107.399C96.7675 107.862 97.2307 108.324 97.8869 108.517C98.4272 108.671 99.0062 108.556 99.5852 108.44C100.396 108.286 101.206 107.977 101.978 107.592C103.291 106.936 104.487 105.78 105.105 104.469C106.61 101.269 105.915 97.6447 104.603 94.4833C102.673 89.8182 99.6624 85.6929 96.3429 81.9146C95.8411 81.3748 95.3779 80.7965 94.8761 80.2568C93.9883 79.2929 92.2514 79.2929 91.4022 80.2568C90.4758 81.2592 90.4758 82.7242 91.4022 83.7266C92.5216 84.9604 93.641 86.2327 94.6831 87.5435C94.7989 87.6977 94.9147 87.8134 95.0305 87.9676C95.1077 88.0447 95.1463 88.1218 95.2235 88.1989C95.2235 88.1989 94.8761 87.7363 95.1077 88.0833C95.3393 88.3917 95.5709 88.7001 95.7639 88.97C96.1885 89.5869 96.6131 90.1652 97.0377 90.7821C97.771 91.8616 98.4272 92.9796 99.0448 94.1363C99.315 94.676 99.5852 95.2158 99.8554 95.7556C99.894 95.8712 100.01 95.9869 100.01 96.1025C100.01 96.1025 99.7396 95.4857 99.894 95.8327C99.894 95.8712 99.9326 95.9483 99.9712 95.9869C100.087 96.2568 100.164 96.5266 100.28 96.7965C100.666 97.7989 100.936 98.8784 101.091 99.958L101.013 99.3025C101.091 100.074 101.129 100.806 101.013 101.577L101.091 100.922C101.052 101.23 101.013 101.5 100.898 101.77C100.859 101.924 100.82 102.04 100.743 102.194C100.589 102.618 101.052 101.5 100.82 102.04C100.705 102.271 100.589 102.503 100.434 102.695C100.203 103.042 100.898 102.117 100.55 102.541C100.473 102.657 100.357 102.734 100.241 102.85C100.164 102.927 100.048 103.004 99.9326 103.119C99.7396 103.274 100.55 102.695 100.203 102.888C100.126 102.927 100.087 102.965 100.01 103.004C99.7782 103.158 99.508 103.274 99.2764 103.428C98.9676 103.582 99.9326 103.158 99.5852 103.312C99.508 103.312 99.4308 103.351 99.3922 103.389C99.2378 103.428 99.0834 103.505 98.9676 103.543C98.6202 103.659 98.2728 103.736 97.9255 103.775L100.319 104.392C98.8132 102.927 97.3465 101.423 95.9183 99.8423C95.2621 99.1098 94.6059 98.3772 93.9884 97.6062C93.7182 97.2592 93.4094 96.9122 93.1392 96.5652C93.062 96.4881 93.0234 96.411 92.9462 96.3339C92.9076 96.2953 92.5988 95.9098 92.869 96.2182C93.1392 96.5266 92.869 96.1796 92.7918 96.1411C92.7146 96.0254 92.6374 95.9098 92.5216 95.7941C90.6688 93.3266 88.9705 90.7049 87.7353 87.8519C88.1213 88.7001 87.8125 88.0062 87.7353 87.8519C87.6581 87.6977 87.6195 87.505 87.5423 87.3507C87.4265 87.0423 87.3493 86.7339 87.2335 86.464C87.0405 85.8471 86.9247 85.2303 86.8089 84.6134L86.8861 85.2688C86.8089 84.7291 86.7703 84.1507 86.8089 83.611C85.1878 83.8423 83.5666 84.0351 81.9841 84.2664C82.0613 84.8062 82.1771 85.3074 82.2543 85.8471L82.1771 85.1917C82.4859 87.5821 82.563 90.011 82.2543 92.4399L82.3315 91.7845C82.2157 92.6712 82.0227 93.5965 81.7911 94.4447C81.6753 94.8302 81.5595 95.2543 81.4051 95.6399C81.3279 95.8327 81.2507 96.0254 81.1735 96.2182C81.0191 96.6808 81.4437 95.6399 81.2121 96.064C81.1735 96.1411 81.1349 96.2568 81.0963 96.3339C80.9419 96.6808 80.7489 97.0664 80.5559 97.4134C80.4401 97.6061 80.3243 97.7989 80.2085 97.9917C80.0155 98.3387 80.6717 97.4905 80.4015 97.7604C80.3243 97.8375 80.2471 97.9146 80.1699 97.9531C80.7103 97.4134 80.5945 97.6061 80.3629 97.7604C79.9769 97.9917 81.0577 97.529 80.5173 97.6833C80.4015 97.7218 80.2471 97.7604 80.0927 97.7604L80.7489 97.6833C80.4787 97.6833 80.2085 97.6833 79.9769 97.6833L80.6331 97.7604C80.2857 97.7218 79.9383 97.6061 79.5909 97.4905C79.5137 97.4905 79.1277 97.2977 79.5523 97.4905C79.9769 97.6833 79.5523 97.4905 79.4751 97.4519C79.2435 97.3363 79.0119 97.2206 78.7803 97.0664C78.5873 96.9507 78.3558 96.7965 78.1628 96.6809C78.1242 96.6809 77.8154 96.411 77.7768 96.411C77.854 96.411 78.2014 96.758 77.9312 96.5266C77.5452 96.1796 77.1206 95.8327 76.7732 95.4471C76.6188 95.2929 76.4644 95.1001 76.31 94.9459C76.2714 94.8688 76.1942 94.8302 76.1556 94.7531C75.8468 94.4062 76.4644 95.1772 76.2714 94.9074C76.0398 94.5604 75.7696 94.2134 75.5766 93.8664C75.0748 93.0953 74.6502 92.2471 74.2643 91.4375C73.7625 90.4351 73.2607 89.4327 72.7589 88.4303C72.5273 87.9676 72.3343 87.505 72.1413 87.0423C72.0255 86.811 71.9483 86.5797 71.8325 86.3098C71.8325 86.2712 71.6009 85.77 71.7939 86.1941C71.9869 86.6182 71.7167 86.0013 71.6781 85.9242C70.9447 84.1507 70.2886 82.3387 69.7482 80.4881C69.2078 78.6375 68.7446 76.7098 68.4744 74.7821L68.5516 75.4375C68.5516 75.2447 68.513 75.052 68.4744 74.8592L63.8811 76.0929C63.8811 76.0929 63.9197 76.2471 63.9583 76.3242C63.9583 76.3242 63.7267 75.7459 63.8425 76.0544C63.8811 76.2086 63.9583 76.3242 63.9969 76.4785C64.1127 76.7483 64.1899 77.0568 64.3057 77.3266C64.4601 77.8279 64.5759 78.3676 64.6531 78.8688L64.5759 78.2134C64.6531 78.7917 64.6531 79.37 64.5759 79.9483L64.6531 79.2929C64.6531 79.5628 64.5759 79.7941 64.4987 80.064C64.4987 80.1797 64.4215 80.2953 64.3829 80.411C64.3057 80.6809 64.6917 79.7556 64.5373 80.064C64.5373 80.1411 64.4601 80.1797 64.4601 80.2568C64.4215 80.3724 64.3443 80.4495 64.3057 80.5652C64.3057 80.6038 64.2285 80.6423 64.2285 80.7194C64.0355 81.0278 64.4601 80.411 64.4601 80.411C64.2671 80.5266 64.1127 80.7965 63.9583 80.9507C63.5723 81.2977 64.4215 80.6423 64.1127 80.8351C63.9969 80.9122 63.9197 80.9893 63.8039 81.0278C63.6881 81.105 63.5723 81.1821 63.4565 81.2206C63.4179 81.2206 63.3407 81.2592 63.2635 81.2977C63.0705 81.4134 63.9583 81.0278 63.6109 81.1435C63.032 81.3363 62.453 81.4905 61.874 81.5676L62.5302 81.4905C61.295 81.6447 60.0212 81.6062 58.7861 81.4519L59.4422 81.5291C58.3229 81.3748 57.2421 81.1435 56.1613 80.8351C55.8911 80.758 55.6209 80.6809 55.3508 80.5652C55.235 80.5266 55.0806 80.4881 54.9648 80.411C54.849 80.411 54.3472 80.1797 54.7332 80.3339C55.1192 80.4881 54.5788 80.2568 54.5016 80.2182C54.3472 80.1411 54.2314 80.1026 54.077 80.0254C53.7296 79.8712 53.4208 79.6785 53.112 79.4857C52.533 79.1387 51.954 78.7146 51.4137 78.3291C51.4137 78.3291 51.8768 78.7146 51.568 78.4447C51.5294 78.4062 51.4523 78.3676 51.4137 78.2905C51.2979 78.2134 51.1821 78.0977 51.1049 78.0206C50.8733 77.8279 50.6417 77.5965 50.4101 77.3652C50.2171 77.1724 50.0241 76.9797 49.8311 76.7483C49.7539 76.6712 49.6767 76.5556 49.5995 76.4785C49.5223 76.4014 49.2135 76.0158 49.4837 76.3628C49.7539 76.7098 49.4837 76.3628 49.4065 76.2471C49.3293 76.1315 49.2907 76.0544 49.2135 75.9773C49.0591 75.7845 48.9433 75.5532 48.8275 75.3218C48.7117 75.0905 48.5959 74.8977 48.4801 74.6664C48.2871 74.2423 48.6731 75.1676 48.5573 74.8592C48.5573 74.7435 48.4801 74.6664 48.4415 74.5507C48.2871 74.1652 48.2099 73.7411 48.1327 73.317L48.2099 73.9724C48.1713 73.6254 48.1713 73.2399 48.2099 72.8929L48.1327 73.5483C48.1713 73.2014 48.2871 72.8544 48.4029 72.5074C48.4029 72.3917 48.4801 72.3146 48.5187 72.1989C48.6345 71.852 48.2485 72.7773 48.4029 72.4688C48.4801 72.276 48.5959 72.0833 48.7117 71.852C48.9047 71.4664 49.1363 71.1194 49.4065 70.7724C49.6767 70.3869 49.1363 71.0809 49.2521 70.9652C49.3293 70.8881 49.3679 70.811 49.4451 70.7339C49.5609 70.5797 49.7153 70.4254 49.8697 70.2712C50.1785 69.9628 50.4873 69.6929 50.8347 69.423C50.9505 69.3074 50.2943 69.8471 50.6803 69.5773C50.7575 69.5001 50.8733 69.4616 50.9505 69.3845C51.1435 69.2688 51.3365 69.1146 51.5295 68.9989C51.9154 68.7676 52.3014 68.5748 52.726 68.3821C52.8032 68.3435 53.2664 68.1508 52.8032 68.3821C52.34 68.6134 52.8032 68.3821 52.8804 68.3821C53.112 68.305 53.3822 68.1893 53.6138 68.1122C54.7718 67.7267 55.9683 67.4953 57.1649 67.3026L56.5087 67.3797C58.9019 67.0712 61.3336 67.0712 63.7653 67.3026C65.0391 67.4182 66.2743 66.1074 66.2357 64.8351C66.1585 63.4086 65.1549 62.4833 63.7653 62.3676L63.6109 62.3291Z" fill="#007BC4"/>
<path d="M61.6053 77.9831C56.8962 77.559 51.917 77.8289 47.6325 79.9879C45.8183 80.9132 44.2744 82.2241 43.0778 83.8434C42.4988 84.653 42.0742 85.5012 41.6882 86.4265C41.3408 87.2361 41.1093 88.0843 41.1093 88.9711C41.1093 90.9373 41.9584 92.9807 43.1164 94.5229C44.8534 96.8747 47.1693 98.7638 49.8326 100.036C52.303 101.193 54.9277 101.81 57.6296 102.041C59.714 102.195 61.8369 101.964 63.7669 101.077C65.4652 100.306 66.7004 98.7253 67.2408 96.9518C67.7812 95.0626 67.511 92.9421 66.8548 91.1301C66.6232 90.4747 66.353 89.8578 66.0828 89.2024C65.8898 88.7397 65.3494 88.3928 64.9248 88.2C64.423 88.0072 63.8441 87.8916 63.3037 88.0843C62.8791 88.2 62.5317 88.4313 62.2229 88.7012C61.8369 89.0867 61.4509 89.8964 61.4895 90.4361C61.9141 93.906 62.7633 97.2602 63.9599 100.537C64.6546 102.465 65.4652 104.393 66.353 106.282C67.2408 108.171 68.0514 109.867 69.0549 111.564C69.9427 113.067 71.0621 114.494 72.413 115.573C74.1114 116.923 76.0414 118.118 78.2801 118.234C79.9399 118.311 81.5224 117.501 82.4488 116.113C83.3752 114.725 83.9927 113.145 84.4945 111.564C85.7683 107.323 85.5367 102.812 84.7647 98.5325C84.6489 97.9927 84.1085 97.3373 83.6454 97.0675C83.1822 96.7976 82.6418 96.6819 82.0628 96.759C80.8276 96.9132 80.017 97.9542 79.9398 99.1879C79.824 100.769 80.1714 102.388 80.6732 103.892C81.3294 105.819 82.2172 107.67 83.2594 109.405C85.8455 113.8 89.2036 117.81 92.7547 121.472C93.2565 122.012 93.7969 122.513 94.2987 123.053C94.7619 123.516 95.2251 123.978 95.8812 124.171C96.4216 124.325 97.0006 124.21 97.5796 124.094C98.3902 123.94 99.2007 123.631 99.9727 123.246C101.285 122.59 102.482 121.434 103.099 120.123C104.605 116.923 103.91 113.299 102.597 110.137C100.668 105.472 97.6568 101.347 94.3373 97.5687C93.8355 97.0289 93.3723 96.4506 92.8705 95.9108C91.9827 94.947 90.2458 94.947 89.3966 95.9108C88.4702 96.9132 88.4702 98.3783 89.3966 99.3807C90.516 100.614 91.6353 101.887 92.6775 103.198C92.7933 103.352 92.9091 103.467 93.0249 103.622C93.1021 103.699 93.1407 103.776 93.2179 103.853C93.2179 103.853 92.8705 103.39 93.1021 103.737C93.3337 104.046 93.5653 104.354 93.7583 104.624C94.1829 105.241 94.6075 105.819 95.0321 106.436C95.7654 107.516 96.4216 108.634 97.0392 109.79C97.3094 110.33 97.5796 110.87 97.8498 111.41C97.8884 111.525 98.0042 111.641 98.0042 111.757C98.0042 111.757 97.734 111.14 97.8884 111.487C97.8884 111.525 97.927 111.602 97.9656 111.641C98.0814 111.911 98.1586 112.181 98.2744 112.451C98.6604 113.453 98.9306 114.532 99.085 115.612L99.0078 114.957C99.085 115.728 99.1235 116.46 99.0078 117.231L99.085 116.576C99.0464 116.884 99.0078 117.154 98.892 117.424C98.8534 117.578 98.8148 117.694 98.7376 117.848C98.5832 118.272 99.0464 117.154 98.8148 117.694C98.699 117.925 98.5832 118.157 98.4288 118.349C98.1972 118.696 98.892 117.771 98.5446 118.195C98.4674 118.311 98.3516 118.388 98.2358 118.504C98.1586 118.581 98.0428 118.658 97.927 118.773C97.734 118.928 98.5446 118.349 98.1972 118.542C98.12 118.581 98.0814 118.619 98.0042 118.658C97.7726 118.812 97.5024 118.928 97.2708 119.082C96.962 119.236 97.927 118.812 97.5796 118.966C97.5024 118.966 97.4252 119.005 97.3866 119.043C97.2322 119.082 97.0778 119.159 96.962 119.198C96.6146 119.313 96.2672 119.39 95.9198 119.429L98.313 120.046C96.8076 118.581 95.3408 117.077 93.9127 115.496C93.2565 114.764 92.6003 114.031 91.9827 113.26C91.7125 112.913 91.4038 112.566 91.1336 112.219C91.0564 112.142 91.0178 112.065 90.9406 111.988C90.902 111.949 90.5932 111.564 90.8634 111.872C91.1336 112.181 90.8634 111.834 90.7862 111.795C90.709 111.679 90.6318 111.564 90.516 111.448C88.6632 108.981 86.9649 106.359 85.7297 103.506C86.1157 104.354 85.8069 103.66 85.7297 103.506C85.6525 103.352 85.6139 103.159 85.5367 103.005C85.4209 102.696 85.3437 102.388 85.2279 102.118C85.0349 101.501 84.9191 100.884 84.8033 100.267L84.8805 100.923C84.8033 100.383 84.7647 99.8048 84.8033 99.265L79.9784 99.9205C80.0556 100.46 80.1714 100.961 80.2486 101.501L80.1714 100.846C80.4802 103.236 80.5574 105.665 80.2486 108.094L80.3258 107.439C80.21 108.325 80.017 109.251 79.7855 110.099C79.6697 110.484 79.5539 110.908 79.3995 111.294C79.3223 111.487 79.2451 111.679 79.1679 111.872C79.0135 112.335 79.4381 111.294 79.2065 111.718C79.1679 111.795 79.1293 111.911 79.0907 111.988C78.9363 112.335 78.7433 112.72 78.5503 113.067C78.4345 113.26 78.3187 113.453 78.2029 113.646C78.0099 113.993 78.6661 113.145 78.3959 113.414C78.3187 113.492 78.2415 113.569 78.1643 113.607C78.7047 113.067 78.5889 113.26 78.3573 113.414C77.9713 113.646 79.0521 113.183 78.5117 113.337C78.3959 113.376 78.2415 113.414 78.0871 113.414L78.7433 113.337C78.4731 113.337 78.2029 113.337 77.9713 113.337L78.6275 113.414C78.2801 113.376 77.9327 113.26 77.5853 113.145C77.5081 113.145 77.1221 112.952 77.5467 113.145C77.9713 113.337 77.5467 113.145 77.4695 113.106C77.2379 112.99 77.0063 112.875 76.7747 112.72C76.5817 112.605 76.3501 112.451 76.1571 112.335C76.1185 112.335 75.8098 112.065 75.7712 112.065C75.8484 112.065 76.1957 112.412 75.9256 112.181C75.5396 111.834 75.115 111.487 74.7676 111.101C74.6132 110.947 74.4588 110.754 74.3044 110.6C74.2658 110.523 74.1886 110.484 74.15 110.407C73.8412 110.06 74.4588 110.831 74.2658 110.561C74.0342 110.214 73.764 109.867 73.571 109.52C73.0692 108.749 72.6446 107.901 72.2586 107.092C71.7569 106.089 71.2551 105.087 70.7533 104.084C70.5217 103.622 70.3287 103.159 70.1357 102.696C70.0199 102.465 69.9427 102.234 69.8269 101.964C69.8269 101.925 69.5953 101.424 69.7883 101.848C69.9813 102.272 69.7111 101.655 69.6725 101.578C68.9391 99.8048 68.2829 97.9927 67.7426 96.1421C67.2022 94.2915 66.739 92.3638 66.4688 90.4361L66.546 91.0915C66.546 90.8988 66.5074 90.706 66.4688 90.5132L61.8755 91.747C61.8755 91.747 61.9141 91.9012 61.9527 91.9783C61.9527 91.9783 61.7211 91.4 61.8369 91.7084C61.8755 91.8626 61.9527 91.9783 61.9913 92.1325C62.1071 92.4024 62.1843 92.7108 62.3001 92.9807C62.4545 93.4819 62.5703 94.0217 62.6475 94.5229L62.5703 93.8675C62.6475 94.4458 62.6475 95.0241 62.5703 95.6024L62.6475 94.947C62.6475 95.2168 62.5703 95.4482 62.4931 95.7181C62.4931 95.8337 62.4159 95.9494 62.3773 96.065C62.3001 96.3349 62.6861 95.4096 62.5317 95.7181C62.5317 95.7952 62.4545 95.8337 62.4545 95.9108C62.4159 96.0265 62.3387 96.1036 62.3001 96.2193C62.3001 96.2578 62.2229 96.2964 62.2229 96.3735C62.0299 96.6819 62.4545 96.065 62.4545 96.065C62.2615 96.1807 62.1071 96.4506 61.9527 96.6048C61.5667 96.9518 62.4159 96.2964 62.1071 96.4891C61.9913 96.5662 61.9141 96.6434 61.7983 96.6819C61.6825 96.759 61.5667 96.8361 61.4509 96.8747C61.4123 96.8747 61.3351 96.9132 61.2579 96.9518C61.0649 97.0674 61.9527 96.6819 61.6053 96.7976C61.0263 96.9903 60.4474 97.1446 59.8684 97.2217L60.5246 97.1446C59.2894 97.2988 58.0156 97.2602 56.7804 97.106L57.4366 97.1831C56.3173 97.0289 55.2365 96.7976 54.1557 96.4891C53.8855 96.412 53.6153 96.3349 53.3451 96.2193C53.2293 96.1807 53.0749 96.1421 52.9591 96.065C52.8434 96.065 52.3416 95.8337 52.7276 95.9879C53.1135 96.1421 52.5732 95.9108 52.496 95.8723C52.3416 95.7952 52.2258 95.7566 52.0714 95.6795C51.724 95.5253 51.4152 95.3325 51.1064 95.1397C50.5274 94.7928 49.9484 94.3687 49.408 93.9831C49.408 93.9831 49.8712 94.3687 49.5624 94.0988C49.5238 94.0602 49.4466 94.0217 49.408 93.9446C49.2922 93.8674 49.1764 93.7518 49.0992 93.6747C48.8677 93.4819 48.6361 93.2506 48.4045 93.0193C48.2115 92.8265 48.0185 92.6337 47.8255 92.4024C47.7483 92.3253 47.6711 92.2096 47.5939 92.1325C47.5167 92.0554 47.2079 91.6699 47.4781 92.0168C47.7483 92.3638 47.4781 92.0169 47.4009 91.9012C47.3237 91.7855 47.2851 91.7084 47.2079 91.6313C47.0535 91.4385 46.9377 91.2072 46.8219 90.9759C46.7061 90.7446 46.5903 90.5518 46.4745 90.3205C46.2815 89.8964 46.6675 90.8217 46.5517 90.5132C46.5517 90.3976 46.4745 90.3205 46.4359 90.2048C46.2815 89.8193 46.2043 89.3952 46.1271 88.9711L46.2043 89.6265C46.1657 89.2795 46.1657 88.894 46.2043 88.547L46.1271 89.2024C46.1657 88.8554 46.2815 88.5084 46.3973 88.1614C46.3973 88.0458 46.4745 87.9687 46.5131 87.853C46.6289 87.506 46.2429 88.4313 46.3973 88.1229C46.4745 87.9301 46.5903 87.7373 46.7061 87.506C46.8991 87.1205 47.1307 86.7735 47.4009 86.4265C47.6711 86.041 47.1307 86.7349 47.2465 86.6193C47.3237 86.5422 47.3623 86.465 47.4395 86.3879C47.5553 86.2337 47.7097 86.0795 47.8641 85.9253C48.1729 85.6169 48.4817 85.347 48.8291 85.0771C48.9448 84.9614 48.2887 85.5012 48.6747 85.2313C48.7519 85.1542 48.8677 85.1156 48.9449 85.0385C49.1378 84.9229 49.3308 84.7687 49.5238 84.653C49.9098 84.4217 50.2958 84.2289 50.7204 84.0361C50.7976 83.9976 51.2608 83.8048 50.7976 84.0361C50.3344 84.2675 50.7976 84.0361 50.8748 84.0361C51.1064 83.959 51.3766 83.8434 51.6082 83.7663C52.7662 83.3807 53.9627 83.1494 55.1593 82.9566L54.5031 83.0337C56.8962 82.7253 59.328 82.7253 61.7597 82.9566C63.0335 83.0723 64.2687 81.7614 64.2301 80.4891C64.1529 79.0626 63.1493 78.1373 61.7597 78.0217L61.6053 77.9831Z" fill="#007BC4"/>
<path d="M120.277 94.5214C120.006 96.9889 119.736 99.6492 120.663 102.001C121.473 104.16 123.172 106.088 125.488 106.705C126.453 106.936 127.456 106.897 128.46 106.782C128.884 106.743 129.27 106.705 129.695 106.666C129.888 106.666 130.042 106.666 130.235 106.666C130.351 106.666 130.428 106.666 130.544 106.666C130.853 106.666 130.119 106.55 130.544 106.666C130.621 106.666 130.66 106.666 130.737 106.705C131.046 106.782 130.39 106.512 130.66 106.666C130.969 106.859 130.583 106.627 130.583 106.589L130.776 106.782C130.776 106.782 130.505 106.435 130.66 106.666C130.853 106.936 130.583 106.28 130.66 106.627V106.743C130.66 106.743 130.737 106.897 130.66 106.589C130.66 106.666 130.66 106.705 130.66 106.782V106.512V106.589C130.621 106.743 130.66 106.705 130.737 106.435L130.583 106.705C130.853 106.396 130.583 106.589 130.583 106.705C130.544 106.743 130.467 106.82 130.428 106.859L130.351 106.936C130.351 106.936 130.235 107.052 130.428 106.897C130.428 106.974 130.197 107.052 130.119 107.09C129.926 107.206 129.695 107.321 129.502 107.437H129.386C129.386 107.437 129.232 107.553 129.463 107.437C129.347 107.514 129.154 107.553 129 107.591C128.73 107.668 128.498 107.746 128.228 107.823C127.495 108.015 126.8 108.208 126.067 108.362C124.638 108.748 123.21 109.095 121.782 109.48C120.894 109.712 120.277 110.714 120.585 111.601C120.894 112.488 121.782 113.027 122.708 112.796C124.021 112.449 125.333 112.102 126.684 111.755C127.881 111.447 129.116 111.215 130.274 110.791C131.316 110.406 132.435 109.827 133.169 108.941C134.095 107.823 134.365 106.435 133.748 105.085C132.744 103.003 130.312 103.158 128.344 103.35C127.919 103.389 127.456 103.427 126.993 103.427C126.877 103.427 126.761 103.427 126.646 103.427C127.032 103.505 126.221 103.427 126.646 103.427C126.491 103.427 126.067 103.35 125.951 103.235L126.144 103.312C126.144 103.312 125.989 103.235 125.912 103.196C125.796 103.158 125.681 103.08 125.603 103.003C125.526 102.965 125.333 102.888 125.295 102.811L125.449 102.926C125.449 102.926 125.333 102.811 125.256 102.772C125.102 102.618 124.947 102.502 124.831 102.348C124.754 102.271 124.638 102.155 124.6 102.078C124.754 102.271 124.754 102.271 124.638 102.117C124.6 102.04 124.523 101.962 124.484 101.924C124.33 101.693 124.175 101.423 124.059 101.153V101.037C124.059 101.037 123.944 100.883 124.059 101.114C123.982 101.037 123.982 100.883 123.944 100.767C123.828 100.42 123.751 100.073 123.673 99.7263C123.673 99.6877 123.596 99.148 123.673 99.572C123.673 99.3793 123.635 99.148 123.596 98.9166C123.519 97.4516 123.673 95.9865 123.828 94.56C123.944 93.6733 122.979 92.7865 122.091 92.8251C121.087 92.8636 120.47 93.5961 120.354 94.56L120.277 94.5214Z" fill="#007BC4"/>
<path d="M124.831 117.539C122.206 115.495 119.466 113.336 116.185 112.565C114.564 112.18 112.827 112.102 111.244 112.565C109.777 113.028 108.388 113.837 107.307 114.955C106.188 116.112 105.493 117.577 105.339 119.158C105.184 120.739 105.879 122.435 106.96 123.707C107.963 124.902 109.353 125.751 110.781 126.367C112.441 127.1 114.101 127.524 115.915 127.717C119.62 128.18 123.403 127.563 126.993 126.637C127.88 126.406 128.498 125.404 128.189 124.517C127.88 123.63 126.993 123.052 126.066 123.322C124.638 123.707 123.21 124.016 121.782 124.208C121.705 124.208 121.627 124.208 121.55 124.208C121.898 124.17 121.627 124.208 121.55 124.208C121.396 124.208 121.203 124.247 121.048 124.286C120.662 124.324 120.315 124.363 119.929 124.363C119.196 124.401 118.462 124.44 117.729 124.401C117.381 124.401 117.034 124.401 116.725 124.363C116.571 124.363 116.378 124.363 116.223 124.324C116.146 124.324 116.03 124.324 115.953 124.324C116.223 124.363 115.683 124.324 115.953 124.324C115.22 124.208 114.525 124.054 113.83 123.861C113.522 123.784 113.174 123.669 112.865 123.553C112.711 123.476 112.557 123.437 112.402 123.36C112.75 123.476 112.248 123.283 112.132 123.245C111.514 122.936 110.935 122.628 110.356 122.204C110.549 122.358 110.318 122.204 110.279 122.127C110.163 122.011 110.048 121.934 109.932 121.818C109.816 121.702 109.7 121.587 109.623 121.51C109.584 121.471 109.546 121.394 109.507 121.355C109.623 121.548 109.237 121.047 109.507 121.355C109.353 121.086 109.198 120.854 109.044 120.584C108.928 120.392 109.121 120.854 109.044 120.623C109.044 120.546 109.005 120.507 108.967 120.43C108.928 120.276 108.89 120.122 108.851 119.967L108.812 119.736C108.812 119.736 108.812 120.199 108.812 119.852C108.812 119.736 108.812 119.582 108.812 119.466C108.812 119.428 108.812 119.351 108.812 119.312C108.812 119.042 108.89 119.389 108.812 119.428C108.851 119.428 108.89 119.042 108.89 119.004C108.89 118.888 108.967 118.734 109.005 118.618C109.121 118.233 108.89 118.811 109.005 118.541C109.121 118.271 109.276 118.04 109.43 117.808C109.662 117.461 109.276 117.963 109.469 117.731C109.584 117.616 109.662 117.5 109.777 117.384C109.855 117.307 109.932 117.23 110.048 117.114C110.125 117.076 110.163 116.999 110.241 116.96C110.279 116.96 110.549 116.69 110.356 116.845C110.202 116.999 110.511 116.729 110.588 116.69C110.704 116.613 110.82 116.536 110.935 116.459C111.051 116.382 111.167 116.305 111.321 116.228C111.399 116.189 111.707 116.074 111.785 115.996C111.746 116.112 111.514 116.112 111.707 115.996C111.785 115.996 111.823 115.958 111.9 115.919C112.055 115.881 112.171 115.842 112.325 115.804C112.479 115.765 112.634 115.727 112.788 115.688C112.865 115.688 112.904 115.688 112.981 115.688C113.251 115.727 113.174 115.688 112.981 115.688C113.251 115.727 113.56 115.649 113.83 115.688C113.985 115.688 114.178 115.688 114.332 115.688C114.409 115.688 114.487 115.688 114.564 115.688C115.027 115.727 114.332 115.649 114.564 115.688C115.336 115.842 116.069 116.035 116.841 116.305C117.15 116.42 116.918 116.305 116.841 116.305C116.918 116.343 117.034 116.382 117.111 116.42C117.304 116.498 117.459 116.575 117.613 116.652C117.999 116.845 118.346 117.037 118.694 117.23C119.389 117.654 120.045 118.117 120.701 118.58C121.01 118.811 121.319 119.042 121.666 119.273C121.743 119.351 121.82 119.389 121.898 119.466C121.705 119.312 121.859 119.428 121.936 119.505C122.091 119.62 122.284 119.775 122.438 119.89C122.824 120.199 123.171 120.392 123.673 120.392C124.098 120.392 124.599 120.199 124.908 119.89C125.487 119.273 125.68 118.04 124.908 117.461L124.831 117.539Z" fill="#007BC4"/>
<path d="M79.3182 155.631C78.2374 163.034 78.276 170.475 79.5498 177.877C80.8235 185.279 83.2939 192.181 87.3853 198.234C89.3153 201.087 91.554 203.708 94.256 205.867C96.9579 208.026 99.6598 209.723 102.671 211.111C108.962 214.002 115.756 215.467 122.626 216.161C129.034 216.817 135.518 216.701 141.926 216.046C148.758 215.352 155.474 213.925 161.959 211.689C168.366 209.491 174.542 206.6 180.293 203.014C186.006 199.467 191.371 195.303 196.196 190.6C201.021 185.896 205.344 180.614 209.011 174.947C212.678 169.279 215.727 163.034 218.043 156.634C218.583 155.091 219.124 153.511 219.587 151.891C219.934 150.658 219.162 149.154 217.85 148.884C216.538 148.614 215.225 149.27 214.839 150.619C214.376 152.2 213.874 153.781 213.295 155.361C213.025 156.132 212.755 156.865 212.446 157.636C212.292 157.983 212.176 158.369 212.022 158.716C211.944 158.908 211.867 159.14 211.751 159.332C211.751 159.41 211.674 159.525 211.636 159.602C211.713 159.41 211.751 159.294 211.636 159.564C210.362 162.532 208.934 165.463 207.312 168.277C205.691 171.091 203.954 173.829 202.024 176.45C201.793 176.759 201.561 177.067 201.33 177.376C201.214 177.53 201.098 177.684 200.982 177.838C200.944 177.916 200.866 177.993 200.828 178.07C200.828 178.07 200.442 178.571 200.673 178.263C200.866 178.031 200.519 178.455 200.442 178.532C200.326 178.687 200.21 178.841 200.094 178.995C199.824 179.303 199.593 179.65 199.322 179.959C198.28 181.193 197.238 182.426 196.157 183.622C193.957 186.012 191.641 188.287 189.248 190.407C188.052 191.448 186.855 192.45 185.581 193.453C185.388 193.607 185.234 193.723 185.041 193.877C185.388 193.607 185.118 193.838 184.925 193.954C184.616 194.185 184.269 194.455 183.921 194.687C183.304 195.149 182.648 195.612 181.991 196.075C179.328 197.925 176.588 199.66 173.731 201.202C172.303 201.973 170.875 202.706 169.408 203.438C168.675 203.785 167.98 204.132 167.247 204.441C166.899 204.595 166.552 204.749 166.205 204.903C166.089 204.942 165.973 205.019 165.857 205.058C165.819 205.058 165.51 205.212 165.78 205.058C166.05 204.903 165.78 205.058 165.703 205.058C165.587 205.096 165.471 205.173 165.355 205.212C159.334 207.679 153.004 209.491 146.596 210.532C146.21 210.609 145.824 210.648 145.438 210.725C145.245 210.725 145.052 210.764 144.859 210.802C144.782 210.802 144.666 210.802 144.589 210.841C144.512 210.841 143.971 210.918 144.319 210.841C144.628 210.802 144.049 210.841 143.971 210.879C143.778 210.879 143.585 210.918 143.392 210.956C142.968 210.995 142.582 211.034 142.157 211.111C140.691 211.265 139.185 211.381 137.68 211.496C134.515 211.689 131.35 211.728 128.223 211.65C126.641 211.612 125.019 211.496 123.437 211.342C122.626 211.265 121.777 211.188 120.966 211.072C120.773 211.072 120.58 211.034 120.387 210.995C120.31 210.995 120.194 210.995 120.117 210.995C120.117 210.995 120.58 211.072 120.31 210.995C119.886 210.918 119.5 210.879 119.075 210.802C115.871 210.301 112.706 209.569 109.618 208.566C108.885 208.335 108.152 208.065 107.418 207.795C107.032 207.641 106.646 207.487 106.299 207.332C106.067 207.255 105.797 207.101 106.183 207.294C105.99 207.217 105.797 207.14 105.604 207.024C104.176 206.369 102.786 205.675 101.435 204.865C100.779 204.479 100.123 204.055 99.5054 203.631C99.1966 203.438 98.9264 203.207 98.6177 203.014C98.4633 202.899 98.3089 202.783 98.1931 202.706C97.9615 202.552 98.3089 202.822 98.3475 202.822C98.2703 202.744 98.1545 202.667 98.0773 202.59C96.8807 201.626 95.7227 200.585 94.6806 199.467C94.1016 198.85 93.5998 198.234 93.0594 197.617C92.9822 197.54 92.9436 197.463 92.8664 197.385C92.8664 197.385 93.098 197.694 92.9436 197.501C92.8278 197.347 92.712 197.193 92.5962 197C92.326 196.653 92.0944 196.306 91.8242 195.92C90.8593 194.494 89.9715 192.99 89.1609 191.448C88.7749 190.677 88.3889 189.906 88.0415 189.135C87.9257 188.903 87.8485 188.711 87.7327 188.479C87.6169 188.21 87.7327 188.556 87.7713 188.595C87.7327 188.518 87.6941 188.402 87.6555 188.325C87.5011 187.901 87.3082 187.477 87.1538 187.091C86.5362 185.434 85.9958 183.737 85.5326 182.041C85.0694 180.344 84.6834 178.571 84.3746 176.836C84.2974 176.412 84.2202 176.026 84.1816 175.602C84.1816 175.41 84.1044 175.178 84.1044 174.985C84.1044 174.87 84.1044 174.793 84.0658 174.677C84.1044 175.101 84.0272 174.291 84.0658 174.677C83.95 173.79 83.8728 172.942 83.7956 172.055C83.4868 168.547 83.4483 165.038 83.6798 161.491C83.7184 160.643 83.7956 159.834 83.9114 158.985C83.95 158.6 83.9886 158.176 84.0658 157.79C84.0658 157.713 84.143 157.096 84.1044 157.443C84.0658 157.79 84.143 157.058 84.1816 156.981C84.3746 155.708 83.8728 154.282 82.4447 153.973C81.2867 153.704 79.627 154.32 79.434 155.708L79.3182 155.631Z" fill="#007BC4"/>
<path d="M129.383 153.819C130.116 156.826 131.351 159.795 133.204 162.262C135.057 164.73 137.257 166.773 139.882 168.392C144.9 171.477 150.844 172.787 156.672 173.173C162.231 173.559 167.905 173.019 173.386 171.862C176.782 171.13 180.063 169.973 183.074 168.277C186.394 166.426 189.404 163.997 191.952 161.221C197.24 155.438 200.752 148.19 201.795 140.402C201.91 139.554 201.988 138.706 202.026 137.819C202.103 136.547 200.83 135.313 199.556 135.351C198.166 135.428 197.163 136.431 197.085 137.819C197.047 138.667 196.97 139.554 196.854 140.402L196.931 139.747C196.699 141.289 196.391 142.831 195.966 144.334C195.734 145.106 195.503 145.877 195.233 146.648C195.117 146.995 194.962 147.342 194.847 147.689C194.769 147.881 194.692 148.036 194.615 148.228C194.924 147.419 194.615 148.228 194.538 148.383C193.882 149.848 193.148 151.274 192.299 152.624C191.875 153.318 191.411 154.012 190.948 154.667C190.717 154.975 190.485 155.284 190.292 155.592C190.253 155.669 190.176 155.708 190.138 155.785C190.562 155.207 190.369 155.477 190.292 155.592C190.138 155.785 189.983 155.978 189.829 156.171C188.825 157.404 187.706 158.6 186.548 159.679C185.969 160.219 185.351 160.759 184.734 161.26C184.579 161.375 184.425 161.491 184.309 161.607C184.039 161.8 184.811 161.221 184.464 161.491C184.386 161.53 184.348 161.607 184.271 161.645C183.923 161.915 183.614 162.147 183.267 162.378C181.955 163.265 180.604 164.113 179.176 164.807C178.828 164.961 178.481 165.115 178.172 165.269C178.018 165.347 177.246 165.616 178.056 165.308C177.863 165.385 177.67 165.462 177.477 165.539C176.744 165.848 175.972 166.079 175.2 166.31C172.729 167.043 170.143 167.506 167.557 167.853L168.213 167.775C164.469 168.277 160.687 168.431 156.904 168.2C155.823 168.122 154.742 168.007 153.662 167.891L154.318 167.968C152.388 167.698 150.496 167.313 148.644 166.773C147.756 166.503 146.868 166.195 146.019 165.886C145.787 165.809 144.977 165.462 145.865 165.848C145.633 165.771 145.44 165.655 145.208 165.578C144.784 165.385 144.359 165.192 143.973 164.961C143.163 164.537 142.391 164.074 141.619 163.573C141.426 163.457 141.233 163.303 141.04 163.187C140.963 163.11 140.885 163.072 140.77 162.995C140.731 162.995 140.654 162.918 140.615 162.879C140.384 162.686 140.885 163.11 140.885 163.11C140.538 162.802 140.152 162.532 139.843 162.224C139.148 161.607 138.492 160.951 137.913 160.219C137.759 160.065 137.643 159.872 137.489 159.718C137.257 159.409 137.875 160.257 137.604 159.872C137.527 159.756 137.45 159.64 137.334 159.525C137.064 159.139 136.794 158.754 136.562 158.368C136.253 157.906 135.983 157.404 135.752 156.942C135.636 156.672 135.481 156.44 135.366 156.171C135.327 156.055 135.25 155.939 135.211 155.785C135.211 155.708 135.173 155.669 135.134 155.592C135.134 155.592 135.366 156.209 135.25 155.901C134.787 154.783 134.439 153.626 134.169 152.469C133.86 151.236 132.394 150.349 131.158 150.734C129.846 151.159 129.113 152.431 129.421 153.742L129.383 153.819Z" fill="#007BC4"/>
<path d="M202.062 141.791C201.908 141.135 201.792 140.48 201.676 139.824L201.754 140.48C201.561 139.092 201.561 137.704 201.754 136.316L201.676 136.971C201.831 135.969 202.101 135.044 202.448 134.041C202.217 134.735 202.333 134.311 202.448 134.157C202.487 134.041 202.564 133.925 202.641 133.81C202.757 133.578 202.912 133.347 203.027 133.116C203.105 133 203.182 132.884 203.259 132.807C203.298 132.73 203.568 132.422 203.298 132.73C203.027 133.039 203.298 132.692 203.413 132.615C203.491 132.538 203.568 132.422 203.645 132.345C203.761 132.191 203.915 132.075 204.07 131.921C204.147 131.844 204.224 131.766 204.301 131.728C204.61 131.458 203.799 132.075 204.147 131.844C204.494 131.612 204.842 131.381 205.189 131.227C205.266 131.188 205.343 131.15 205.421 131.111C205.807 130.918 204.842 131.342 205.228 131.188C205.421 131.111 205.614 131.034 205.845 130.995C206.27 130.88 206.694 130.803 207.119 130.725L206.463 130.803C207.119 130.725 207.814 130.725 208.47 130.803L207.814 130.725C208.2 130.764 208.547 130.841 208.933 130.957C209.049 130.957 209.126 131.034 209.203 131.072C209.551 131.188 208.702 130.841 208.933 130.957C209.088 131.034 209.28 131.111 209.435 131.188C209.589 131.265 209.705 131.381 209.859 131.458C210.207 131.689 209.358 131.034 209.666 131.304C209.744 131.381 209.821 131.419 209.898 131.497C210.014 131.612 210.13 131.728 210.245 131.882C210.4 132.075 210.477 132.306 210.13 131.728C210.168 131.805 210.245 131.921 210.323 131.998C211.017 133.077 212.523 133.617 213.681 132.884C214.762 132.191 215.302 130.687 214.569 129.53C213.449 127.834 211.789 126.639 209.821 126.138C208.007 125.675 206 125.752 204.224 126.369C203.336 126.677 202.487 127.063 201.715 127.564C200.712 128.258 199.94 129.029 199.206 129.993C198.01 131.612 197.276 133.578 196.967 135.583C196.62 138.089 196.774 140.595 197.392 143.063C197.701 144.297 199.168 145.183 200.403 144.798C201.638 144.412 202.448 143.101 202.14 141.791H202.062Z" fill="#007BC4"/>
<path d="M212.911 136.625V136.509C212.911 136.741 212.873 136.933 212.834 137.165C212.95 136.316 213.143 135.468 213.374 134.659C213.452 134.466 213.49 134.273 213.568 134.08C213.645 133.926 213.838 133.502 213.529 134.196C213.529 134.119 213.606 134.042 213.645 133.965C213.838 133.579 214.031 133.194 214.262 132.847C214.301 132.769 214.339 132.692 214.417 132.615C214.455 132.577 214.725 132.191 214.417 132.538C214.108 132.885 214.417 132.538 214.455 132.5C214.532 132.423 214.61 132.345 214.687 132.268C214.841 132.114 214.996 131.96 215.15 131.844C215.304 131.729 215.575 131.613 214.996 131.96C215.073 131.921 215.111 131.883 215.189 131.844C215.343 131.729 215.497 131.651 215.652 131.574C216.076 131.382 215.729 131.536 215.652 131.574C215.575 131.574 215.227 131.767 215.652 131.574C215.999 131.459 216.347 131.382 216.694 131.343L216.038 131.42C216.54 131.343 217.041 131.343 217.505 131.42L216.848 131.343C217.157 131.382 217.466 131.459 217.775 131.574C217.775 131.574 217.929 131.651 217.968 131.651C217.929 131.651 217.35 131.343 217.698 131.536C217.813 131.613 217.968 131.69 218.084 131.767L218.238 131.883C218.238 131.883 217.736 131.459 217.968 131.69C218.084 131.806 218.199 131.883 218.277 131.998C218.585 132.307 218.084 131.844 218.122 131.767L218.238 131.921C218.354 132.114 218.585 132.692 218.238 131.883C218.508 132.5 218.778 133.001 219.357 133.348C219.898 133.656 220.67 133.772 221.249 133.579C221.828 133.386 222.407 133.001 222.715 132.461C223.024 131.921 223.217 131.15 222.947 130.572C222.6 129.762 222.252 129.068 221.635 128.451C221.171 127.989 220.631 127.565 220.052 127.295C218.817 126.716 217.466 126.408 216.115 126.524C215.42 126.601 214.725 126.716 214.069 126.948C213.182 127.295 212.525 127.68 211.792 128.259C210.711 129.107 209.862 130.302 209.283 131.536C208.511 133.194 208.125 134.89 207.893 136.702C207.816 137.28 208.241 138.051 208.627 138.437C209.051 138.861 209.746 139.169 210.364 139.169C210.981 139.169 211.676 138.938 212.101 138.437C212.564 137.936 212.718 137.396 212.834 136.702L212.911 136.625Z" fill="#007BC4"/>
<path d="M223.803 134.812C223.803 134.503 223.88 134.156 223.919 133.848L223.842 134.503C223.919 133.886 224.035 133.27 224.189 132.653C224.266 132.383 224.343 132.113 224.459 131.843C224.691 131.226 224.266 132.267 224.459 131.843C224.536 131.727 224.575 131.612 224.652 131.458C224.729 131.303 224.768 131.226 224.845 131.111C224.884 131.033 224.922 130.995 224.961 130.918C225.115 130.725 225.038 130.802 224.807 131.149C225 130.995 225.193 130.764 225.386 130.571C225.038 130.841 224.961 130.879 225.154 130.725C225.231 130.686 225.27 130.648 225.347 130.609C225.463 130.532 225.579 130.494 225.694 130.417C225.308 130.571 225.231 130.609 225.463 130.532C225.54 130.532 225.617 130.494 225.694 130.455C225.849 130.417 226.003 130.378 226.196 130.339L225.54 130.417C225.965 130.378 226.389 130.378 226.814 130.417L226.157 130.339C226.466 130.378 226.736 130.455 227.045 130.532C227.238 130.609 227.547 130.802 226.929 130.455C227.045 130.532 227.161 130.571 227.277 130.609C227.393 130.648 227.508 130.725 227.624 130.802C227.701 130.841 227.779 130.879 227.817 130.956C227.508 130.725 227.431 130.648 227.586 130.764C227.779 130.956 228.01 131.149 228.203 131.38C228.512 131.727 227.894 130.879 228.126 131.303C228.203 131.419 228.28 131.535 228.358 131.65C228.435 131.766 228.512 131.92 228.589 132.074C228.589 132.151 228.666 132.19 228.666 132.267C228.782 132.498 228.744 132.421 228.589 132.036C228.628 132.306 228.782 132.537 228.821 132.807C228.898 133.115 228.975 133.424 229.014 133.732L228.937 133.077C228.975 133.424 229.014 133.771 229.014 134.156C229.014 135.429 230.133 136.662 231.484 136.624C232.835 136.585 233.954 135.544 233.954 134.156C233.954 132.46 233.568 130.725 232.681 129.26C231.754 127.641 230.288 126.484 228.551 125.867C226.814 125.25 224.845 125.404 223.224 126.253C221.873 126.947 220.831 128.219 220.213 129.568C219.48 131.265 219.21 132.961 219.017 134.773C218.939 135.351 219.325 136.123 219.75 136.508C220.175 136.932 220.869 137.241 221.487 137.241C222.105 137.241 222.799 137.009 223.224 136.508C223.687 136.007 223.88 135.467 223.957 134.773L223.803 134.812Z" fill="#007BC4"/>
<path d="M222.101 142.869C223.297 144.488 224.803 145.645 226.694 146.339C228.392 146.994 230.245 147.033 232.021 146.686C235.495 145.992 238.235 142.984 238.968 139.553C239.432 137.394 239.161 135.274 238.235 133.269C237.695 132.112 235.919 131.727 234.877 132.382C233.68 133.153 233.41 134.503 233.989 135.736C233.989 135.775 234.105 135.891 234.105 135.929C234.105 135.929 233.873 135.351 233.989 135.659C234.028 135.813 234.105 135.968 234.144 136.16C234.221 136.469 234.298 136.777 234.337 137.124L234.259 136.469C234.337 137.086 234.337 137.703 234.259 138.319L234.337 137.664C234.298 138.011 234.221 138.358 234.144 138.666C234.105 138.859 234.028 139.052 233.989 139.206C233.989 139.283 233.951 139.36 233.912 139.438C233.796 139.823 234.144 138.975 233.989 139.206C233.835 139.515 233.68 139.823 233.487 140.131C233.41 140.286 233.294 140.401 233.179 140.556C233.603 139.9 233.294 140.401 233.14 140.556C232.947 140.787 232.638 141.134 232.368 141.25C232.368 141.25 232.87 140.903 232.6 141.057C232.522 141.095 232.445 141.172 232.368 141.211C232.214 141.288 232.059 141.404 231.905 141.481C231.828 141.519 231.712 141.558 231.635 141.597C231.403 141.712 232.252 141.365 231.866 141.519C231.712 141.597 231.557 141.635 231.364 141.674C231.017 141.789 230.67 141.866 230.284 141.905L230.94 141.828C230.322 141.905 229.705 141.905 229.087 141.828L229.743 141.905C229.28 141.828 228.856 141.751 228.431 141.635C228.315 141.635 228.199 141.558 228.084 141.519C227.698 141.365 228.199 141.519 228.277 141.635C228.084 141.519 227.852 141.442 227.659 141.327C227.466 141.211 227.273 141.095 227.119 140.98C227.041 140.941 226.964 140.864 226.887 140.825C227.505 141.211 227.196 141.057 227.041 140.903C226.848 140.748 226.694 140.594 226.54 140.44C226.462 140.363 226.385 140.247 226.308 140.17C226.038 139.862 226.655 140.671 226.424 140.286C226.038 139.746 225.613 139.322 224.957 139.168C224.378 139.013 223.567 139.091 223.066 139.399C222.023 140.054 221.367 141.635 222.178 142.753L222.101 142.869Z" fill="#007BC4"/>
<path d="M215.497 152.585C219.511 155.438 225.571 154.32 228.813 150.773C229.817 149.693 230.55 148.421 230.975 146.994C231.322 145.761 230.55 144.257 229.238 143.987C227.925 143.717 226.613 144.373 226.227 145.722C226.189 145.876 226.111 146.069 226.073 146.223C225.957 146.609 226.343 145.645 226.15 146.03C226.15 146.107 226.073 146.185 226.034 146.262C225.88 146.57 225.687 146.879 225.494 147.187C225.301 147.457 225.687 146.956 225.687 146.917C225.687 146.917 225.532 147.11 225.494 147.148C225.378 147.264 225.262 147.418 225.146 147.534C225.031 147.65 224.915 147.765 224.76 147.881C224.683 147.958 224.606 147.997 224.529 148.074C224.259 148.305 224.992 147.765 224.76 147.92C224.49 148.112 224.181 148.305 223.873 148.498C223.718 148.575 223.525 148.691 223.371 148.768C223.294 148.768 223.216 148.845 223.139 148.883C222.908 148.999 223.795 148.614 223.409 148.768C222.715 149.038 222.02 149.23 221.286 149.307L221.943 149.23C221.209 149.308 220.514 149.308 219.781 149.23L220.437 149.307C219.897 149.23 219.395 149.076 218.893 148.922C218.392 148.768 219.434 149.192 219.048 148.999C218.932 148.922 218.816 148.883 218.662 148.806C218.43 148.691 218.199 148.536 217.967 148.382C217.465 148.035 216.616 147.997 216.076 148.151C215.535 148.305 214.879 148.768 214.609 149.269C213.953 150.541 214.377 151.852 215.497 152.623V152.585Z" fill="#007BC4"/>
<path d="M195.693 86.8113L203.297 62.7535C205.845 54.7342 208.393 46.7149 210.901 38.6957C212.33 34.1848 213.758 29.674 215.186 25.1631L211.558 26.6282C220.86 31.5246 230.124 36.5366 239.349 41.5872C241.974 43.0137 244.598 44.4788 247.185 45.9439C248.497 46.6764 250.465 46.0595 250.813 44.4788C251.932 38.8113 253.438 33.2595 255.329 27.7848C256.255 25.086 257.259 22.4258 258.378 19.7656C258.455 19.6113 258.494 19.4957 258.571 19.3415C258.726 18.9945 258.34 19.8812 258.571 19.3415C258.726 18.9945 258.88 18.6475 258.996 18.3005C259.305 17.6065 259.613 16.9511 259.922 16.2571C260.501 14.9463 261.119 13.674 261.775 12.4017C263.203 9.51015 264.747 6.69569 266.407 3.91979H262.161C265.789 9.0475 269.07 14.4065 272.004 19.9583C273.47 22.7342 274.821 25.5872 276.057 28.4403C276.211 28.7872 276.365 29.1728 276.52 29.5198C276.52 29.5969 276.597 29.7125 276.636 29.7511C276.636 29.7511 276.443 29.327 276.558 29.5969C276.636 29.7897 276.713 29.9824 276.79 30.1752C277.099 30.9077 277.369 31.6403 277.678 32.3728C278.257 33.8378 278.797 35.3029 279.338 36.768C281.46 42.7053 283.197 48.8354 284.433 55.0041C284.587 55.8523 284.78 56.7005 284.896 57.5487C284.973 57.9728 285.05 58.3969 285.089 58.821C285.089 58.9366 285.089 59.0137 285.127 59.1294C285.127 59.1294 285.089 58.6667 285.127 58.9752C285.127 59.2065 285.166 59.4378 285.205 59.6691C285.398 61.3655 285.475 63.1005 285.436 64.7969C285.436 65.645 285.359 66.4932 285.243 67.3414C285.243 67.5342 285.32 67.6884 285.243 67.2643C285.243 67.3414 285.243 67.4571 285.205 67.5728C285.205 67.7655 285.127 67.9197 285.127 68.1125C285.05 68.4981 284.973 68.8836 284.896 69.2691C284.548 70.8113 284.085 72.2764 283.468 73.7414C283.429 73.8571 283.39 73.9728 283.313 74.0884C283.313 74.127 283.159 74.4354 283.313 74.127C283.468 73.8185 283.236 74.3197 283.197 74.3968C283.043 74.7438 282.889 75.1294 282.696 75.4764C282.348 76.1703 282.001 76.9029 281.615 77.5968C280.843 78.9848 280.032 80.3342 279.183 81.6836C277.523 84.2667 275.786 86.7727 273.934 89.2017C273.895 89.2788 273.818 89.3173 273.779 89.3944C273.779 89.3944 274.088 89.0089 273.895 89.2402C273.779 89.3944 273.702 89.5101 273.586 89.6643C273.355 89.9727 273.084 90.2812 272.853 90.5896C272.39 91.1679 271.888 91.7462 271.425 92.286C270.46 93.4041 269.456 94.4836 268.375 95.5245C267.295 96.5655 266.252 97.5679 265.094 98.4932C264.979 98.6089 264.824 98.7245 264.709 98.8017C264.631 98.8402 264.207 99.1872 264.477 98.9559C264.747 98.7245 264.323 99.0715 264.245 99.1101C264.052 99.2643 263.898 99.38 263.705 99.4956C263.126 99.9197 262.508 100.344 261.891 100.729C260.617 101.539 259.305 102.233 257.954 102.85C257.799 102.927 257.645 103.004 257.49 103.081C257.413 103.081 256.911 103.351 257.22 103.197C257.529 103.043 257.027 103.274 256.95 103.312C256.719 103.39 256.526 103.467 256.294 103.544C255.599 103.814 254.904 104.045 254.171 104.276C252.743 104.7 251.276 105.047 249.809 105.317C249.462 105.394 249.114 105.433 248.767 105.472C248.613 105.472 248.42 105.51 248.265 105.549C247.918 105.587 248.767 105.472 248.42 105.549C248.304 105.549 248.188 105.549 248.072 105.587C247.339 105.664 246.567 105.741 245.834 105.78C244.328 105.857 242.823 105.896 241.318 105.819C240.546 105.819 239.812 105.741 239.04 105.664C238.693 105.664 238.345 105.587 237.998 105.549C237.805 105.549 237.573 105.51 237.38 105.472C237.303 105.472 237.187 105.472 237.11 105.472C236.763 105.433 237.573 105.549 237.226 105.472C234.215 105.009 231.282 104.353 228.387 103.39C226.92 102.888 225.492 102.349 224.064 101.77C223.794 101.655 224.218 101.847 224.257 101.847C224.18 101.809 224.102 101.77 224.025 101.732C223.871 101.655 223.716 101.578 223.523 101.5C223.137 101.346 222.751 101.153 222.404 100.999C221.709 100.691 221.014 100.344 220.32 99.9968C217.579 98.6089 214.877 97.0282 212.33 95.3318C211.017 94.4836 209.744 93.5968 208.508 92.6715C207.891 92.2089 207.273 91.7462 206.617 91.2836C206.347 91.0523 206.038 90.8595 205.768 90.6282C205.498 90.3968 206.115 90.898 205.845 90.6667C205.768 90.6282 205.691 90.5511 205.652 90.5125C205.498 90.3968 205.305 90.2426 205.15 90.127C203.915 89.1631 202.719 88.1992 201.522 87.1968C200.403 86.2715 199.245 85.3462 198.28 84.2282C198.202 84.1511 197.894 83.727 198.125 84.0354C198.357 84.3438 197.971 83.8426 197.932 83.7655C197.739 83.4956 197.623 83.2258 197.469 82.9559C197.623 83.38 197.276 82.5703 197.469 82.9559C197.43 82.8017 197.392 82.6474 197.353 82.5318C197.353 82.5318 197.353 82.2619 197.276 82.2234C197.276 82.2234 197.276 82.7631 197.315 82.4932C197.315 82.3005 197.315 82.1077 197.315 81.9535C197.392 80.6812 196.118 79.4474 194.844 79.486C193.455 79.5631 192.451 80.5655 192.374 81.9535C192.181 85.539 194.96 88.1221 197.469 90.2426C200.017 92.4017 202.641 94.4836 205.343 96.4498C210.438 100.19 215.881 103.544 221.709 106.05C227.808 108.633 234.177 110.329 240.816 110.676C247.3 111.023 253.785 109.944 259.768 107.361C265.519 104.893 270.421 100.729 274.513 96.1029C276.636 93.7125 278.604 91.1294 280.457 88.5077C282.31 85.886 284.085 83.2258 285.668 80.4499C287.25 77.674 288.678 74.4354 289.528 71.1969C290.415 67.6884 290.608 64.0643 290.261 60.4788C289.914 56.8932 289.219 53.3077 288.37 49.7993C287.636 46.6764 286.787 43.5535 285.822 40.4692C283.854 34.1848 281.422 28.0547 278.604 22.1174C275.786 16.18 272.66 10.6282 269.109 5.26919C268.26 3.95834 267.372 2.6475 266.445 1.37521C265.944 0.642684 265.249 0.141479 264.323 0.141479C263.435 0.141479 262.624 0.60413 262.2 1.37521C256.255 11.4379 251.623 22.2716 248.458 33.5294C247.571 36.6909 246.799 39.8909 246.142 43.1294L249.771 41.6643C240.584 36.5366 231.32 31.5246 222.057 26.5511C219.432 25.1631 216.769 23.7366 214.144 22.3487C212.716 21.5776 211.017 22.2716 210.516 23.8138C207.968 31.833 205.42 39.8523 202.912 47.8716C200.403 55.8908 197.816 63.9101 195.307 71.9294C193.879 76.4402 192.451 80.9511 191.023 85.4619C190.637 86.6956 191.486 88.1992 192.76 88.4691C194.111 88.7776 195.385 88.0836 195.771 86.7342L195.693 86.8113Z" fill="#E6007E"/>
<path d="M211.751 24.1222C207.158 30.2523 202.565 36.421 197.933 42.5511C193.301 48.6812 188.746 54.8499 184.115 60.98C179.521 67.1101 174.928 73.2788 170.296 79.4089C165.703 85.539 161.148 91.6306 156.555 97.7607C155.397 99.3028 154.2 100.922 154.2 102.965C154.2 105.009 155.513 106.821 156.478 108.517C158.408 111.833 160.338 115.11 162.268 118.426C162.769 119.235 163.232 120.084 163.734 120.893C164.12 121.587 165.047 122.204 165.857 122.127C177.63 120.623 189.364 119.158 201.137 117.655C212.871 116.19 224.605 114.686 236.3 113.221C242.901 112.373 249.501 111.563 256.102 110.715C256.796 110.638 257.337 110.484 257.839 109.982C258.263 109.558 258.572 108.864 258.572 108.247C258.533 107.052 257.491 105.626 256.102 105.78C244.329 107.284 232.595 108.749 220.822 110.252C209.088 111.717 197.354 113.221 185.658 114.686C179.058 115.534 172.458 116.344 165.857 117.192L167.98 118.426C166.089 115.187 164.197 111.949 162.306 108.71C161.341 107.091 160.376 105.472 159.45 103.852C159.373 103.698 159.295 103.544 159.218 103.428C159.025 103.043 159.257 103.505 159.257 103.544C159.257 103.505 159.18 103.351 159.18 103.312C159.18 103.197 159.141 103.081 159.102 103.004C159.025 102.734 159.18 103.235 159.102 103.235C159.102 103.235 159.102 102.888 159.102 102.927C159.102 102.541 159.102 103.081 159.102 103.12C159.102 103.12 159.218 102.657 159.257 102.58C159.334 102.349 159.18 102.773 159.141 102.811C159.18 102.773 159.257 102.58 159.295 102.503C159.488 102.156 159.72 101.809 159.952 101.462C162.113 98.4161 164.429 95.486 166.668 92.5173C168.907 89.5486 171.222 86.4257 173.5 83.38C178.016 77.327 182.532 71.3125 187.048 65.2595C191.603 59.2065 196.119 53.1149 200.674 47.0619C205.228 41.0089 209.744 34.9173 214.299 28.8643L215.959 26.6282C216.306 26.1655 216.345 25.2788 216.19 24.739C216.036 24.1993 215.573 23.5439 215.071 23.274C214.492 22.9655 213.797 22.8113 213.18 23.0427C212.562 23.274 212.099 23.621 211.713 24.1607L211.751 24.1222Z" fill="#E6007E"/>
<path d="M202.026 80.7584C205.384 77.5584 208.858 74.4741 212.448 71.5439C213.374 70.8114 214.301 70.0403 215.227 69.3463C215.42 69.1921 215.613 69.0765 215.806 68.9222C215.15 69.4235 215.96 68.8066 216.115 68.6909C216.617 68.3054 217.08 67.9584 217.582 67.5728C219.434 66.1849 221.326 64.8355 223.256 63.5632C227.154 60.9415 231.168 58.5512 235.337 56.4307C237.383 55.3897 239.467 54.3873 241.59 53.5006C241.706 53.462 241.86 53.3849 241.976 53.3464C242.439 53.1536 241.436 53.5777 241.899 53.3464C242.169 53.2307 242.401 53.115 242.671 53.0379C243.25 52.8066 243.79 52.5753 244.369 52.3825C245.412 51.997 246.454 51.6114 247.534 51.2259C252.437 49.568 257.454 48.3343 262.588 47.6403L261.932 47.7174C266.641 47.1006 271.427 46.9078 276.175 47.2548C277.564 47.3705 278.954 47.4861 280.344 47.6789L279.687 47.6018C280.189 47.6789 280.652 47.756 281.116 47.7946C281.81 47.9102 282.389 47.9102 283.007 47.5632C283.509 47.2548 284.01 46.6765 284.126 46.0982C284.281 45.4813 284.242 44.7488 283.895 44.209C283.586 43.7078 283.046 43.1681 282.428 43.0909C276.291 42.1271 270.076 41.9343 263.862 42.5897C257.647 43.2452 251.858 44.5946 246.106 46.5608C240.316 48.5656 234.72 51.1102 229.393 54.1174C224.143 57.0476 219.126 60.4018 214.301 64.0259C209.399 67.7271 204.69 71.6596 200.212 75.862C199.672 76.3632 199.131 76.8644 198.591 77.4042C197.665 78.2909 197.626 79.9873 198.591 80.874C199.556 81.7608 201.061 81.8379 202.065 80.874L202.026 80.7584Z" fill="#E6007E"/>
<path d="M213.683 67.0715C214.687 69.3076 215.883 71.3896 217.427 73.3173C218.971 75.245 221.017 76.8643 223.41 77.404C226.305 78.0595 229.2 77.2498 231.4 75.2835C233.6 73.3173 234.681 70.6185 234.99 67.804C235.376 64.1028 234.063 60.5173 232.635 57.1631C232.404 56.6233 231.709 56.1607 231.168 56.045C230.589 55.8908 229.779 55.9679 229.277 56.2763C228.775 56.5848 228.273 57.1245 228.158 57.7414C228.003 58.4354 228.158 59.0137 228.389 59.6305C228.389 59.6305 228.621 60.1703 228.466 59.7848C228.312 59.3992 228.466 59.8619 228.544 59.939C228.659 60.1703 228.737 60.4402 228.852 60.6715C229.045 61.2113 229.238 61.751 229.431 62.2908C229.779 63.3317 230.01 64.4113 230.165 65.4908L230.088 64.8354C230.203 65.8763 230.242 66.9558 230.088 67.9968L230.165 67.3414C230.126 67.7655 230.01 68.1896 229.933 68.5751C229.895 68.7679 229.817 68.9221 229.779 69.1149C229.779 69.2305 229.702 69.3077 229.663 69.4233C229.624 69.539 229.47 69.886 229.663 69.4619C229.856 69.0378 229.586 69.6161 229.509 69.7317C229.431 69.9245 229.316 70.1173 229.2 70.2715C229.084 70.4257 228.968 70.6185 228.852 70.8113C228.814 70.8884 228.544 71.1968 228.852 70.8498C229.161 70.5028 228.852 70.8498 228.852 70.8884C228.621 71.1968 228.351 71.4667 228.042 71.7366C227.965 71.8137 227.887 71.8522 227.81 71.9293C227.501 72.1992 228.196 71.6209 227.965 71.8137C227.81 71.9293 227.656 72.0064 227.501 72.1221C227.347 72.2378 227.154 72.3149 226.961 72.4305C226.884 72.4691 226.536 72.6233 226.961 72.4305C227.386 72.2378 226.961 72.4305 226.922 72.4305C226.537 72.5462 226.151 72.6619 225.726 72.7004L226.382 72.6233C225.842 72.7004 225.301 72.7004 224.761 72.6233L225.417 72.7004C224.915 72.6233 224.414 72.5076 223.95 72.3149C223.526 72.1607 224.491 72.5848 224.143 72.392C224.028 72.3149 223.873 72.2763 223.757 72.1992C223.526 72.0835 223.294 71.9293 223.101 71.8137C223.024 71.7366 222.908 71.698 222.831 71.6209C222.484 71.3896 223.333 72.045 222.908 71.698C222.715 71.5438 222.522 71.3896 222.329 71.1968C221.905 70.8113 221.557 70.4257 221.21 69.9631C221.133 69.886 221.055 69.7703 220.978 69.6932C221.364 70.2329 220.708 69.3848 220.978 69.6932C220.824 69.4619 220.669 69.2691 220.515 69.0378C220.206 68.5751 219.897 68.0739 219.627 67.6113C219.048 66.6089 218.547 65.6064 218.083 64.5269C217.852 63.9872 217.157 63.5631 216.617 63.4089C216.038 63.2546 215.227 63.3318 214.725 63.6402C214.223 63.9486 213.722 64.4884 213.606 65.1052C213.451 65.7992 213.567 66.3775 213.837 66.9944L213.683 67.0715Z" fill="#E6007E"/>
<path d="M230.548 59.6325C230.664 64.7602 235.528 68.9626 240.584 68.8469C243.325 68.7698 245.679 67.459 247.3 65.2999C248.613 63.565 249.23 61.2132 249.153 59.0542C249.076 57.6277 248.767 56.3168 248.15 55.0445C247.532 53.7722 246.567 52.7698 245.448 51.8831C244.985 51.5361 244.097 51.4975 243.556 51.6518C242.977 51.806 242.36 52.2686 242.09 52.7698C241.781 53.3481 241.626 54.0421 241.858 54.659C242.09 55.2759 242.437 55.7 242.977 56.124C242.244 55.5843 242.862 56.0469 242.977 56.2012C243.132 56.3554 243.248 56.471 243.363 56.6253C243.634 56.9337 243.016 56.124 243.209 56.4325C243.248 56.5096 243.325 56.5867 243.363 56.6638C243.479 56.8566 243.595 57.0108 243.672 57.2036C243.711 57.2807 243.749 57.3963 243.788 57.4734C244.02 57.8975 243.595 57.0108 243.711 57.2421C243.788 57.4349 243.865 57.6277 243.904 57.8204C244.02 58.206 244.097 58.6301 244.174 59.0542L244.097 58.3987C244.174 59.0927 244.174 59.7867 244.097 60.5192L244.174 59.8638C244.135 60.2108 244.058 60.5192 243.981 60.8662C243.942 61.0204 243.904 61.1746 243.827 61.3289C243.788 61.4445 243.672 61.6759 243.672 61.7915C243.672 61.7144 243.942 61.1746 243.788 61.5216C243.788 61.5987 243.711 61.6759 243.672 61.753C243.595 61.9072 243.518 62.0614 243.441 62.1771C243.363 62.2927 243.286 62.4469 243.17 62.6012C243.556 62.1385 242.862 63.0638 243.17 62.6012C242.977 62.8325 242.746 63.1024 242.476 63.2951C242.437 63.3337 242.36 63.3722 242.321 63.4108C242.9 62.9096 242.669 63.1409 242.514 63.2566C242.398 63.3337 242.283 63.4108 242.128 63.4879C241.974 63.565 241.819 63.6421 241.665 63.7192C241.24 63.912 241.897 63.6036 241.897 63.6036L241.665 63.6807C241.318 63.7963 240.97 63.8734 240.584 63.9506L241.24 63.8734C240.661 63.9505 240.044 63.9505 239.465 63.8734L240.121 63.9506C239.735 63.912 239.349 63.8349 238.963 63.7192C238.809 63.6807 238.616 63.6036 238.461 63.565C238.345 63.565 238.037 63.4108 238.461 63.565C238.886 63.7192 238.538 63.6036 238.461 63.565C238.114 63.4108 237.766 63.218 237.419 62.9867C237.265 62.871 237.11 62.7939 236.995 62.6783C237.689 63.1795 237.11 62.7554 236.995 62.6012C236.724 62.3313 236.454 62.0614 236.223 61.7915C235.991 61.5216 236.531 62.2156 236.377 61.9843C236.338 61.9072 236.261 61.8301 236.223 61.753C236.107 61.5987 236.03 61.4445 235.914 61.2518C235.798 61.059 235.721 60.9048 235.644 60.7505C235.489 60.4421 235.798 61.0204 235.759 61.059C235.759 61.059 235.644 60.7891 235.644 60.7505C235.528 60.365 235.451 60.018 235.373 59.6325L235.451 60.2879C235.451 60.0566 235.412 59.8638 235.412 59.6325C235.412 58.3602 234.293 57.1265 232.942 57.165C231.591 57.2036 230.433 58.2445 230.471 59.6325H230.548Z" fill="#E6007E"/>
<path d="M247.576 53.2313C246.804 55.4289 247.576 57.7807 249.12 59.4385C250.664 61.0964 252.748 61.8674 254.91 62.0988C257.187 62.3301 259.387 61.4819 261.008 59.9397C262.784 58.2433 263.71 55.8915 264.058 53.5012C264.405 50.9566 264.058 48.2964 263.247 45.8289C262.823 44.6337 261.549 43.6699 260.236 44.094C259.04 44.4795 258.075 45.8289 258.499 47.1012C258.847 48.1421 259.117 49.1831 259.271 50.2626L259.194 49.6072C259.349 50.7638 259.349 51.959 259.194 53.1156L259.271 52.4602C259.156 53.2313 258.963 53.9638 258.731 54.6578C258.654 54.8506 258.499 55.1205 258.847 54.4265C258.847 54.5036 258.77 54.5807 258.77 54.6192C258.692 54.7735 258.615 54.9662 258.499 55.1205C258.384 55.2747 258.306 55.4674 258.191 55.6217C258.075 55.8144 257.612 56.2771 258.191 55.6602C257.959 55.9301 257.727 56.2 257.457 56.4698C257.38 56.547 257.303 56.5855 257.226 56.6626C257.148 56.7397 256.84 56.9711 257.226 56.6626C257.612 56.3542 257.187 56.6626 257.071 56.7397C256.917 56.8168 256.801 56.8939 256.647 56.9711C256.338 57.1253 257.187 56.7783 256.917 56.8554C256.84 56.8554 256.762 56.8939 256.685 56.9325C256.376 57.0482 256.068 57.0867 255.759 57.1253L256.415 57.0482C255.875 57.1253 255.334 57.1253 254.755 57.0482L255.412 57.1253C255.141 57.0867 254.871 57.0482 254.601 56.9711C254.447 56.9711 254.331 56.8939 254.176 56.8554C254.061 56.8168 253.559 56.6241 254.022 56.8168C254.485 57.0096 253.983 56.8168 253.868 56.7397C253.752 56.7012 253.636 56.6241 253.52 56.547C253.404 56.4698 253.289 56.3927 253.173 56.3156C252.98 56.2 252.594 55.853 253.25 56.3927C253.057 56.2385 252.864 56.0458 252.671 55.853C252.594 55.7759 252.517 55.6217 252.401 55.5446C252.401 55.5446 252.787 56.0843 252.632 55.8144C252.632 55.7759 252.555 55.7373 252.517 55.6602C252.439 55.5445 252.362 55.4289 252.324 55.3132C252.324 55.2747 252.285 55.1976 252.246 55.159C252.092 54.9277 252.478 55.8144 252.362 55.4674C252.285 55.2361 252.208 54.9662 252.169 54.7349L252.246 55.3903C252.208 55.0819 252.208 54.7349 252.246 54.4265L252.169 55.0819C252.169 54.8506 252.285 54.5807 252.362 54.3494C252.787 53.1156 251.899 51.612 250.625 51.3421C249.274 51.0337 248.039 51.7662 247.615 53.0771L247.576 53.2313Z" fill="#E6007E"/>
<path d="M242.976 113.568C242.821 118.773 242.474 124.016 241.779 129.221L241.856 128.566C241.818 128.99 241.741 129.375 241.625 129.8C241.625 129.915 241.393 130.262 241.432 130.378C241.432 130.301 241.702 129.8 241.509 130.185C241.47 130.262 241.393 130.339 241.355 130.455C241.2 130.725 241.47 130.262 241.548 130.224L241.316 130.494C241.316 130.455 241.818 130.147 241.509 130.339C241.432 130.378 241.355 130.416 241.316 130.455C240.969 130.648 241.548 130.339 241.586 130.339C241.586 130.339 241.393 130.416 241.355 130.416C241.162 130.455 241.007 130.494 240.814 130.532L241.47 130.455C240.312 130.609 239.116 130.378 237.958 130.378C236.259 130.416 234.445 131.072 233.712 132.73C233.442 133.347 233.287 133.925 233.48 134.619C233.635 135.197 234.098 135.814 234.6 136.084C235.179 136.392 235.873 136.547 236.491 136.315C237.07 136.122 237.726 135.775 237.958 135.197C238.035 135.081 238.112 134.927 238.189 134.812C237.996 135.351 237.803 135.236 238.035 135.081C238.035 135.081 237.456 135.467 237.765 135.313C237.765 135.313 237.919 135.236 237.958 135.236C237.958 135.274 237.263 135.467 237.649 135.39C237.803 135.39 237.958 135.313 238.112 135.274L237.456 135.351C238.653 135.197 239.888 135.467 241.084 135.428C243.091 135.313 245.021 134.465 245.909 132.575C246.797 130.686 246.874 128.604 247.067 126.561C247.26 124.518 247.453 122.513 247.608 120.508C247.762 118.233 247.878 115.959 247.955 113.645C247.955 112.373 246.797 111.139 245.485 111.178C244.172 111.216 243.053 112.257 243.014 113.645L242.976 113.568Z" fill="#E6007E"/>
<path d="M207.78 36.2671C191.684 57.202 175.627 78.1369 159.531 99.0718C161.229 104.045 162.928 109.019 164.587 113.992C164.858 114.725 165.128 115.534 165.745 115.997C166.556 116.614 167.714 116.537 168.718 116.421C193.151 113.722 217.584 111.024 241.978 108.325C225.111 106.474 210.906 95.3321 197.705 84.6526C196.779 83.92 195.814 83.1104 195.389 82.0309C194.965 80.9128 195.158 79.6405 195.389 78.4454C198.246 62.0984 202.762 46.0598 208.783 30.5996" fill="#E6007E"/>
</svg>
