<svg width="40" height="40" viewBox="0 0 40 40" fill="none" xmlns="http://www.w3.org/2000/svg">
<path d="M8.79307 38.8579C8.3119 38.8579 7.90884 38.6949 7.58391 38.3688C7.25897 38.0427 7.09594 37.6397 7.09481 37.1596C7.09367 36.6796 7.25671 36.2765 7.58391 35.9505C7.91111 35.6244 8.31416 35.4614 8.79307 35.4614H15.5861V33.7631H5.39654C4.91536 33.7631 4.51231 33.6001 4.18737 33.274C3.86244 32.9479 3.69941 32.5449 3.69827 32.0648C3.69714 31.5848 3.86017 31.1817 4.18737 30.8557C4.51457 30.5296 4.91763 30.3666 5.39654 30.3666H15.5861V28.6683H3.69827C3.2171 28.6683 2.81404 28.5053 2.48911 28.1792C2.16417 27.8531 2.00114 27.4501 2.00001 26.97C1.99887 26.49 2.16191 26.0869 2.48911 25.7609C2.81631 25.4348 3.21936 25.2718 3.69827 25.2718H15.5861V23.5735H7.09481C6.61363 23.5735 6.21058 23.4105 5.88564 23.0844C5.56071 22.7583 5.39767 22.3553 5.39654 21.8752C5.39541 21.3952 5.55844 20.9921 5.88564 20.6661C6.21284 20.34 6.6159 20.177 7.09481 20.177H17.4542L16.0107 17.6296C15.6711 17.0352 15.5369 16.4057 15.6082 15.7411C15.6795 15.0765 15.9552 14.503 16.4353 14.0207L17.6241 12.832L28.8326 21.1959C29.4836 21.6771 29.9863 22.2715 30.3407 22.9791C30.6951 23.6867 30.8717 24.4509 30.8705 25.2718V33.7631C30.8705 35.1783 30.3752 36.3813 29.3846 37.3719C28.3939 38.3626 27.191 38.8579 25.7757 38.8579H8.79307ZM11.765 17.9268L11.1706 17.5022C10.7744 17.2191 10.5406 16.8512 10.4693 16.3983C10.3979 15.9454 10.5044 15.5209 10.7885 15.1246C11.0727 14.7283 11.4407 14.5019 11.8924 14.4453C12.3441 14.3887 12.7687 14.5019 13.1661 14.785L13.2086 14.8274C13.067 15.3369 13.0178 15.8532 13.0608 16.3762C13.1038 16.8993 13.2097 17.4161 13.3784 17.9268H11.765ZM11.1282 9.01085C11.4112 8.61459 11.7792 8.38815 12.2321 8.33154C12.6849 8.27493 13.1095 8.38815 13.5058 8.6712L16.1805 10.6667L14.6521 12.2376C14.5106 12.3791 14.3764 12.5274 14.2496 12.6825C14.1228 12.8376 14.0022 13.0006 13.8879 13.1716L11.4678 11.3884C11.0716 11.1054 10.8451 10.7374 10.7885 10.2845C10.7319 9.83168 10.8451 9.40711 11.1282 9.01085ZM36.9843 19.7948L33.3755 24.5924C33.2623 23.5169 32.9441 22.5053 32.4211 21.5576C31.898 20.61 31.2113 19.8101 30.3611 19.158L20.5536 11.813L13.1661 6.29362C12.7698 6.01058 12.5434 5.64262 12.4868 5.18975C12.4302 4.73688 12.5434 4.31231 12.8265 3.91605C13.1095 3.51979 13.4775 3.28656 13.9303 3.21636C14.3832 3.14617 14.8078 3.25203 15.204 3.53394L24.6719 10.6667L25.7333 9.30805L18.9402 4.21324C18.544 3.9302 18.3107 3.56224 18.2405 3.10937C18.1703 2.6565 18.2762 2.23193 18.5581 1.83567C18.84 1.43941 19.208 1.21297 19.662 1.15636C20.116 1.09976 20.5406 1.21297 20.9357 1.49602L29.2572 7.69469L29.6393 4.76518C29.7242 4.08587 29.9931 3.50563 30.446 3.02446C30.8988 2.54328 31.4508 2.24609 32.1018 2.13287L33.8001 1.87813L37.791 15.2944C38.0174 16.0587 38.0599 16.837 37.9184 17.6296C37.7768 18.4221 37.4655 19.1438 36.9843 19.7948Z" />
</svg>
