<svg width="24" height="25" viewBox="0 0 24 25" fill="none" xmlns="http://www.w3.org/2000/svg">
<g clip-path="url(#clip0_0_2046)">
<path d="M12 2.20621C15.204 2.20621 15.584 2.21821 16.85 2.27621C20.102 2.42421 21.621 3.96721 21.769 7.19521C21.827 8.46021 21.838 8.84021 21.838 12.0442C21.838 15.2492 21.826 15.6282 21.769 16.8932C21.62 20.1182 20.105 21.6642 16.85 21.8122C15.584 21.8702 15.206 21.8822 12 21.8822C8.796 21.8822 8.416 21.8702 7.151 21.8122C3.891 21.6632 2.38 20.1132 2.232 16.8922C2.174 15.6272 2.162 15.2482 2.162 12.0432C2.162 8.83921 2.175 8.46021 2.232 7.19421C2.381 3.96721 3.896 2.42321 7.151 2.27521C8.417 2.21821 8.796 2.20621 12 2.20621ZM12 0.0432129C8.741 0.0432129 8.333 0.0572129 7.053 0.115213C2.695 0.315213 0.273 2.73321 0.073 7.09521C0.014 8.37621 0 8.78421 0 12.0432C0 15.3022 0.014 15.7112 0.072 16.9912C0.272 21.3492 2.69 23.7712 7.052 23.9712C8.333 24.0292 8.741 24.0432 12 24.0432C15.259 24.0432 15.668 24.0292 16.948 23.9712C21.302 23.7712 23.73 21.3532 23.927 16.9912C23.986 15.7112 24 15.3022 24 12.0432C24 8.78421 23.986 8.37621 23.928 7.09621C23.732 2.74221 21.311 0.316213 16.949 0.116213C15.668 0.0572129 15.259 0.0432129 12 0.0432129ZM12 5.88121C8.597 5.88121 5.838 8.64021 5.838 12.0432C5.838 15.4462 8.597 18.2062 12 18.2062C15.403 18.2062 18.162 15.4472 18.162 12.0432C18.162 8.64021 15.403 5.88121 12 5.88121ZM12 16.0432C9.791 16.0432 8 14.2532 8 12.0432C8 9.83421 9.791 8.04321 12 8.04321C14.209 8.04321 16 9.83421 16 12.0432C16 14.2532 14.209 16.0432 12 16.0432ZM18.406 4.19821C17.61 4.19821 16.965 4.84321 16.965 5.63821C16.965 6.43321 17.61 7.07821 18.406 7.07821C19.201 7.07821 19.845 6.43321 19.845 5.63821C19.845 4.84321 19.201 4.19821 18.406 4.19821Z" fill="white"/>
</g>
<defs>
<clipPath id="clip0_0_2046">
<rect width="24" height="24" fill="white" transform="translate(0 0.0432129)"/>
</clipPath>
</defs>
</svg>
