<svg width="24" height="25" viewBox="0 0 24 25" fill="none" xmlns="http://www.w3.org/2000/svg">
<g clip-path="url(#clip0_0_1369)">
<path fill-rule="evenodd" clip-rule="evenodd" d="M24 3.354C24 1.69824 22.6558 0.354004 21 0.354004H3C1.34423 0.354004 0 1.69824 0 3.354V21.354C0 23.0098 1.34423 24.354 3 24.354H21C22.6558 24.354 24 23.0098 24 21.354V3.354Z" fill="white" fill-opacity="0.45"/>
<path d="M6.88157 8.72803H2.86157V20.82H6.88157V8.72803Z" fill="white"/>
<path d="M4.899 2.89795C3.52364 2.89795 2.625 3.80217 2.625 4.98731C2.625 6.14756 3.49631 7.07671 4.8458 7.07671H4.87177C6.27347 7.07671 7.14595 6.14756 7.14595 4.98731C7.11994 3.80217 6.27356 2.89795 4.899 2.89795Z" fill="white"/>
<path d="M16.7475 8.44385C14.6151 8.44385 13.66 9.61652 13.1252 10.4402V8.72819H9.1062C9.1595 9.86243 9.1062 20.8201 9.1062 20.8201H13.1251V14.0671C13.1251 13.7057 13.1511 13.3443 13.2576 13.086C13.5477 12.3641 14.2094 11.6163 15.3198 11.6163C16.7735 11.6163 17.3559 12.7256 17.3559 14.3504V20.8201H21.375V13.8859C21.375 10.1717 19.3919 8.44385 16.7475 8.44385Z" fill="white"/>
</g>
<defs>
<clipPath id="clip0_0_1369">
<rect width="24" height="24" fill="white" transform="translate(0 0.354004)"/>
</clipPath>
</defs>
</svg>
