<svg width="24" height="25" viewBox="0 0 24 25" fill="none" xmlns="http://www.w3.org/2000/svg">
<g clip-path="url(#clip0_0_2048)">
<path fill-rule="evenodd" clip-rule="evenodd" d="M24 3.04321C24 1.38745 22.6558 0.0432129 21 0.0432129H3C1.34423 0.0432129 0 1.38745 0 3.04321V21.0432C0 22.699 1.34423 24.0432 3 24.0432H21C22.6558 24.0432 24 22.699 24 21.0432V3.04321Z" fill="white" fill-opacity="0.45"/>
<path d="M6.8823 8.41724H2.8623V20.5092H6.8823V8.41724Z" fill="white"/>
<path d="M4.899 2.58716C3.52364 2.58716 2.625 3.49138 2.625 4.67652C2.625 5.83677 3.49631 6.76592 4.8458 6.76592H4.87177C6.27347 6.76592 7.14595 5.83677 7.14595 4.67652C7.11994 3.49138 6.27356 2.58716 4.899 2.58716Z" fill="white"/>
<path d="M16.7467 8.13306C14.6144 8.13306 13.6593 9.30573 13.1244 10.1294V8.4174H9.10547C9.15877 9.55163 9.10547 20.5093 9.10547 20.5093H13.1244V13.7563C13.1244 13.3949 13.1504 13.0335 13.2569 12.7752C13.547 12.0533 14.2087 11.3056 15.3191 11.3056C16.7728 11.3056 17.3551 12.4148 17.3551 14.0396V20.5093H21.3742V13.5751C21.3742 9.86087 19.3912 8.13306 16.7467 8.13306Z" fill="white"/>
</g>
<defs>
<clipPath id="clip0_0_2048">
<rect width="24" height="24" fill="white" transform="translate(0 0.0432129)"/>
</clipPath>
</defs>
</svg>
