<svg width="40" height="40" viewBox="0 0 40 40" fill="none" xmlns="http://www.w3.org/2000/svg">
<path d="M17 17C17.7879 17 18.5681 16.8448 19.2961 16.5433C20.0241 16.2417 20.6855 15.7998 21.2426 15.2426C21.7998 14.6855 22.2417 14.0241 22.5433 13.2961C22.8448 12.5681 23 11.7879 23 11C23 10.2121 22.8448 9.43185 22.5433 8.7039C22.2417 7.97595 21.7998 7.31451 21.2426 6.75736C20.6855 6.20021 20.0241 5.75825 19.2961 5.45672C18.5681 5.15519 17.7879 5 17 5C15.4087 5 13.8826 5.63214 12.7574 6.75736C11.6321 7.88258 11 9.4087 11 11C11 12.5913 11.6321 14.1174 12.7574 15.2426C13.8826 16.3679 15.4087 17 17 17Z"/>
<path d="M20.6667 11.5C20.6667 10.9528 20.5587 10.4105 20.3493 9.90495C20.1399 9.39964 19.8327 8.94081 19.446 8.55404C19.0592 8.16726 18.6004 7.86011 18.0951 7.65072C17.5895 7.44132 17.0472 7.33333 16.5 7.33333C15.3949 7.33333 14.3354 7.77263 13.554 8.55404C12.7726 9.33544 12.3333 10.3949 12.3333 11.5C12.3333 12.6051 12.7726 13.6646 13.554 14.446C14.3354 15.2274 15.3949 15.6667 16.5 15.6667C17.0472 15.6667 17.5895 15.5587 18.0951 15.3493C18.6004 15.1399 19.0592 14.8327 19.446 14.446C19.8327 14.0592 20.1399 13.6004 20.3493 13.0951C20.5587 12.5895 20.6667 12.0472 20.6667 11.5ZM24 11.5C24 12.4848 23.8055 13.4596 23.4287 14.3695C23.0518 15.2794 22.4992 16.1063 21.8027 16.8027C21.1063 17.4992 20.2794 18.0518 19.3695 18.4287C18.4596 18.8055 17.4848 19 16.5 19C14.5109 19 12.6038 18.2093 11.1973 16.8027C9.79074 15.3962 9 13.4891 9 11.5C9 9.51088 9.79074 7.60379 11.1973 6.19727C12.6038 4.79074 14.5109 4 16.5 4C17.4848 4 18.4596 4.19449 19.3695 4.57129C20.2794 4.9482 21.1063 5.50083 21.8027 6.19727C22.4992 6.8937 23.0518 7.72059 23.4287 8.63053C23.8055 9.54035 24 10.5152 24 11.5Z"/>
<path d="M33.7945 2.21749C34.6115 1.75444 35.6411 2.05503 36.0949 2.88884L34.6159 3.72717C36.0951 2.88833 36.0966 2.89052 36.0966 2.89052V2.89221L36.0982 2.89558C36.0996 2.89809 36.1015 2.90078 36.1032 2.90402C36.107 2.91112 36.1126 2.92054 36.1181 2.931C36.1292 2.95218 36.1435 2.98074 36.161 3.01534C36.1963 3.08502 36.2448 3.18172 36.3015 3.30379C36.4149 3.54779 36.5658 3.89556 36.7312 4.33441C37.0613 5.21076 37.4513 6.46198 37.7111 7.99981C38.232 11.0836 38.2284 15.3343 36.1561 19.9878C35.7692 20.8559 34.7658 21.2394 33.9152 20.8447C33.0647 20.4498 32.689 19.4257 33.0757 18.5574C34.8107 14.6611 34.8072 11.1381 34.3762 8.58681C34.1602 7.30784 33.8361 6.27653 33.5714 5.5742C33.4393 5.22364 33.3225 4.95674 33.2426 4.78479C33.2027 4.69902 33.172 4.63617 33.1533 4.59924C33.1443 4.58139 33.1382 4.56953 33.1352 4.56382C32.6831 3.73028 32.9783 2.68035 33.7945 2.21749ZM27.9362 5.63661C28.7721 5.21 29.7888 5.55593 30.2068 6.40916L28.8054 7.12436C30.109 6.45913 30.2002 6.41345 30.2068 6.41085L30.2085 6.41254L30.2233 6.4429C30.2303 6.45765 30.2381 6.47649 30.2481 6.49856C30.2687 6.54373 30.2962 6.60435 30.3274 6.67905C30.3901 6.82881 30.4721 7.03757 30.5605 7.2981C30.7368 7.81812 30.9425 8.55352 31.0794 9.45382C31.3535 11.257 31.3526 13.7457 30.2597 16.4725C29.9057 17.3553 28.9168 17.7783 28.0518 17.4171C27.187 17.0559 26.7726 16.0464 27.1264 15.1636C27.9371 13.1406 27.9364 11.3109 27.7346 9.98347C27.6335 9.31852 27.4822 8.78535 27.3611 8.42825C27.3009 8.25088 27.2497 8.1183 27.2156 8.03691C27.1987 7.99652 27.1857 7.9683 27.1793 7.95426V7.95258C26.7623 7.0996 27.1007 6.06301 27.9362 5.63661ZM27.176 7.94583L27.1776 7.9492V7.95089C27.176 7.94731 27.1743 7.94414 27.1743 7.94414L27.176 7.94583Z"/>
<path d="M4 34.9714V36H29V34.9714C29 31.1314 29 29.2114 28.2733 27.744C27.6342 26.4538 26.6144 25.4048 25.36 24.7474C23.9333 24 22.0667 24 18.3333 24H14.6667C10.9333 24 9.06667 24 7.64 24.7474C6.38564 25.4048 5.36581 26.4538 4.72667 27.744C4 29.2114 4 31.1314 4 34.9714Z"/>
<path d="M18.3758 23C20.2582 23 21.7736 22.9984 22.997 23.096C24.2401 23.1953 25.3318 23.4055 26.3421 23.9082C27.947 24.7071 29.2527 25.9828 30.0704 27.5508C30.5849 28.5379 30.8001 29.6045 30.9017 30.819C31.0017 32.0143 31 33.4948 31 35.334V36.3333C31 37.2538 30.2363 38 29.2941 38H3.70588C2.76375 38 2 37.2538 2 36.3333V35.334C2 33.4948 1.99833 32.0143 2.09829 30.819C2.19988 29.6045 2.41506 28.5379 2.92957 27.5508C3.74731 25.9828 5.05302 24.7071 6.65786 23.9082C7.66821 23.4055 8.7599 23.1953 10.003 23.096C11.2264 22.9984 12.7418 23 14.6242 23H18.3758ZM14.6242 26.3333C12.6856 26.3333 11.3334 26.334 10.2812 26.418C9.24892 26.5004 8.65518 26.6548 8.20548 26.8786C7.24299 27.3579 6.46041 28.1225 5.96984 29.0628C5.74079 29.5022 5.58274 30.0823 5.49839 31.0908C5.42289 31.9937 5.41647 33.1222 5.4151 34.6667H27.5849C27.5835 33.1222 27.5771 31.9937 27.5016 31.0908C27.4173 30.0823 27.2592 29.5022 27.0302 29.0628C26.5396 28.1225 25.757 27.3579 24.7945 26.8786C24.3448 26.6548 23.7511 26.5004 22.7188 26.418C21.6666 26.334 20.3144 26.3333 18.3758 26.3333H14.6242Z"/>
</svg>
