<svg preserveAspectRatio="none" width="100%" height="100%" overflow="visible" style="display: block;" viewBox="0 0 75 75" fill="none" xmlns="http://www.w3.org/2000/svg">
<g id="Frame 60">
<path d="M0 19C0 8.50659 8.50659 0 19 0H56C66.4934 0 75 8.50659 75 19V56C75 66.4934 66.4934 75 56 75H19C8.50659 75 0 66.4934 0 56V19Z" fill="var(--fill-0, #F1F1F1)" fill-opacity="0.2"/>
<path id="Vector" d="M37.5 21.5625C31.0586 21.5625 25.8125 26.8086 25.8125 33.25V46.9675C25.8113 48.6689 26.4792 50.3025 27.6719 51.5157C28.2568 52.123 28.9582 52.6061 29.734 52.9363C30.5099 53.2665 31.3443 53.437 32.1875 53.4375C34.6352 53.4375 36.6487 52.4002 38.172 50.3549C38.4695 49.9565 38.8062 49.3761 39.196 48.7047C40.2134 46.9536 41.6059 44.5563 43.3909 43.3431C45.1022 42.1803 46.5273 40.7174 47.5081 39.1117C48.6237 37.2968 49.1875 35.3245 49.1875 33.25C49.1875 26.8086 43.9447 21.5625 37.5 21.5625ZM43.875 33.7812C43.5932 33.7812 43.323 33.6693 43.1237 33.4701C42.9244 33.2708 42.8125 33.0005 42.8125 32.7188C42.8125 30.0824 40.4292 27.9375 37.5 27.9375C34.5708 27.9375 32.1875 30.0824 32.1875 32.7188V34.7388C33.9931 34.2182 36.0656 34.2926 36.4561 34.3125C37.0392 34.3181 37.6096 34.4834 38.1052 34.7907C38.6008 35.0979 39.0026 35.5352 39.2669 36.0549C39.5312 36.5747 39.6479 37.157 39.6043 37.7384C39.5606 38.3199 39.3583 38.8783 39.0194 39.3527C38.9995 39.38 38.9789 39.4065 38.9563 39.4324C37.8573 40.6941 36.5657 42.4526 36.4023 43.0848C36.3259 43.352 36.1479 43.5786 35.9064 43.7161C35.6649 43.8536 35.3791 43.891 35.1104 43.8203C34.8416 43.7496 34.6113 43.5764 34.4687 43.3379C34.3261 43.0993 34.2827 42.8144 34.3477 42.5442C34.7136 41.1537 36.8001 38.6794 37.3134 38.085C37.4191 37.9248 37.4794 37.7389 37.4879 37.5472C37.4965 37.3554 37.4529 37.1649 37.3618 36.996C37.2707 36.827 37.1356 36.6858 36.9708 36.5875C36.8059 36.4892 36.6175 36.4373 36.4255 36.4375H36.3671C35.2648 36.3784 33.3197 36.4906 32.1875 36.9893V40.6875C32.1875 40.9693 32.0756 41.2395 31.8763 41.4388C31.677 41.6381 31.4068 41.75 31.125 41.75C30.8432 41.75 30.573 41.6381 30.3737 41.4388C30.1744 41.2395 30.0625 40.9693 30.0625 40.6875V32.7188C30.0625 28.9104 33.3988 25.8125 37.5 25.8125C41.6013 25.8125 44.9375 28.9104 44.9375 32.7188C44.9375 33.0005 44.8256 33.2708 44.6263 33.4701C44.427 33.6693 44.1568 33.7812 43.875 33.7812Z" fill="var(--fill-0, white)"/>
</g>
</svg>
