<svg preserveAspectRatio="none" width="100%" height="100%" overflow="visible" style="display: block;" viewBox="0 0 75 75" fill="none" xmlns="http://www.w3.org/2000/svg">
<g id="Frame 60">
<path d="M0 19C0 8.50659 8.50659 0 19 0H56C66.4934 0 75 8.50659 75 19V56C75 66.4934 66.4934 75 56 75H19C8.50659 75 0 66.4934 0 56V19Z" fill="var(--fill-0, #F1F1F1)"/>
<path id="Vector" d="M24.3019 59.7083C23.7353 59.7083 23.2606 59.5163 22.8779 59.1323C22.4953 58.7483 22.3033 58.2737 22.3019 57.7083C22.3006 57.143 22.4926 56.6683 22.8779 56.2843C23.2633 55.9003 23.7379 55.7083 24.3019 55.7083H32.3019V53.7083H20.3019C19.7353 53.7083 19.2606 53.5163 18.8779 53.1323C18.4953 52.7483 18.3033 52.2737 18.3019 51.7083C18.3006 51.143 18.4926 50.6683 18.8779 50.2843C19.2633 49.9003 19.7379 49.7083 20.3019 49.7083H32.3019V47.7083H18.3019C17.7353 47.7083 17.2606 47.5163 16.8779 47.1323C16.4953 46.7483 16.3033 46.2737 16.3019 45.7083C16.3006 45.143 16.4926 44.6683 16.8779 44.2843C17.2633 43.9003 17.7379 43.7083 18.3019 43.7083H32.3019V41.7083H22.3019C21.7353 41.7083 21.2606 41.5163 20.8779 41.1323C20.4953 40.7483 20.3033 40.2737 20.3019 39.7083C20.3006 39.143 20.4926 38.6683 20.8779 38.2843C21.2633 37.9003 21.7379 37.7083 22.3019 37.7083H34.5019L32.8019 34.7083C32.4019 34.0083 32.2439 33.267 32.3279 32.4843C32.4119 31.7017 32.7366 31.0263 33.3019 30.4583L34.7019 29.0583L47.9019 38.9083C48.6686 39.475 49.2606 40.175 49.6779 41.0083C50.0953 41.8417 50.3033 42.7417 50.3019 43.7083V53.7083C50.3019 55.375 49.7186 56.7917 48.5519 57.9583C47.3853 59.125 45.9686 59.7083 44.3019 59.7083H24.3019ZM27.8019 35.0583L27.1019 34.5583C26.6353 34.225 26.3599 33.7917 26.2759 33.2583C26.1919 32.725 26.3173 32.225 26.6519 31.7583C26.9866 31.2917 27.4199 31.025 27.9519 30.9583C28.4839 30.8917 28.9839 31.025 29.4519 31.3583L29.5019 31.4083C29.3353 32.0083 29.2773 32.6163 29.3279 33.2323C29.3786 33.8483 29.5033 34.457 29.7019 35.0583H27.8019ZM27.0519 24.5583C27.3853 24.0917 27.8186 23.825 28.3519 23.7583C28.8853 23.6917 29.3853 23.825 29.8519 24.1583L33.0019 26.5083L31.2019 28.3583C31.0353 28.525 30.8773 28.6997 30.7279 28.8823C30.5786 29.065 30.4366 29.257 30.3019 29.4583L27.4519 27.3583C26.9853 27.025 26.7186 26.5917 26.6519 26.0583C26.5853 25.525 26.7186 25.025 27.0519 24.5583ZM57.5019 37.2583L53.2519 42.9083C53.1186 41.6417 52.7439 40.4503 52.1279 39.3343C51.5119 38.2183 50.7033 37.2763 49.7019 36.5083L38.1519 27.8583L29.4519 21.3583C28.9853 21.025 28.7186 20.5917 28.6519 20.0583C28.5853 19.525 28.7186 19.025 29.0519 18.5583C29.3853 18.0917 29.8186 17.817 30.3519 17.7343C30.8853 17.6517 31.3853 17.7763 31.8519 18.1083L43.0019 26.5083L44.2519 24.9083L36.2519 18.9083C35.7853 18.575 35.5106 18.1417 35.4279 17.6083C35.3453 17.075 35.4699 16.575 35.8019 16.1083C36.1339 15.6417 36.5673 15.375 37.1019 15.3083C37.6366 15.2417 38.1366 15.375 38.6019 15.7083L48.4019 23.0083L48.8519 19.5583C48.9519 18.7583 49.2686 18.075 49.8019 17.5083C50.3353 16.9417 50.9853 16.5917 51.7519 16.4583L53.7519 16.1583L58.4519 31.9583C58.7186 32.8583 58.7686 33.775 58.6019 34.7083C58.4353 35.6417 58.0686 36.4917 57.5019 37.2583Z" fill="var(--fill-0, #0093EA)"/>
</g>
</svg>
