<svg preserveAspectRatio="none" width="100%" height="100%" overflow="visible" style="display: block;" viewBox="0 0 75 75" fill="none" xmlns="http://www.w3.org/2000/svg">
<g id="Frame 60">
<path d="M0 19C0 8.50659 8.50659 0 19 0H56C66.4934 0 75 8.50659 75 19V56C75 66.4934 66.4934 75 56 75H19C8.50659 75 0 66.4934 0 56V19Z" fill="var(--fill-0, #F1F1F1)"/>
<path id="Vector" fill-rule="evenodd" clip-rule="evenodd" d="M19.0356 53.4841C18.868 53.6459 18.7344 53.8395 18.6424 54.0535C18.5505 54.2675 18.5021 54.4977 18.5001 54.7306C18.498 54.9635 18.5424 55.1945 18.6306 55.4101C18.7189 55.6257 18.8491 55.8215 19.0138 55.9862C19.1786 56.1509 19.3745 56.2812 19.5901 56.3694C19.8057 56.4576 20.0367 56.502 20.2696 56.4999C20.5026 56.4979 20.7328 56.4495 20.9468 56.3576C21.1609 56.2657 21.3545 56.132 21.5163 55.9645L38.0338 39.4475C38.3031 39.2549 38.6351 39.1708 38.9636 39.2121C39.292 39.2534 39.5929 39.4169 39.8061 39.6702C40.0193 39.9234 40.1292 40.2477 40.1138 40.5784C40.0985 40.9091 39.9591 41.2218 39.7233 41.4542L28.6145 52.5597C28.936 53.0065 29.2959 53.4244 29.69 53.8086L29.6988 53.8174C31.2765 55.2859 33.3502 56.1052 35.5058 56.1118C40.2005 56.1118 44.1023 52.2106 44.1023 47.5165C44.1023 45.4905 45.0444 43.4662 46.5795 42.2366L46.6531 42.1734C46.7461 42.0804 46.8321 42.005 46.9444 41.9103C47.0251 41.8401 47.118 41.7612 47.2338 41.6577C47.4584 41.4542 47.7233 41.1963 47.9496 40.8701C51.2409 37.2408 51.3075 32.3046 49.4409 28.3455C47.5689 24.3741 43.6724 21.2061 38.8391 21.2061C37.2708 21.2001 35.7167 21.5045 34.2666 22.1018C32.8165 22.6991 31.499 23.5775 30.39 24.6864C29.281 25.7952 28.4025 27.1126 27.8051 28.5625C27.2077 30.0124 26.9032 31.5662 26.9093 33.1343V45.6098L19.0356 53.4841ZM49.9075 22.6112C49.5783 22.9401 49.3933 23.3863 49.3931 23.8516C49.393 24.317 49.5777 24.7633 49.9066 25.0924C50.2356 25.4216 50.6819 25.6066 51.1473 25.6068C51.6126 25.6069 52.059 25.4222 52.3882 25.0933L56.0075 21.4728C56.3271 21.1419 56.5039 20.6988 56.4999 20.2389C56.4959 19.779 56.3114 19.339 55.9862 19.0138C55.6609 18.6885 55.2209 18.5041 54.7609 18.5001C54.3009 18.4961 53.8577 18.6729 53.5268 18.9924L49.9075 22.6112ZM38.7566 26.7177C37.912 26.7092 37.0741 26.8693 36.2921 27.1886C35.5101 27.5079 34.7997 27.98 34.2024 28.5772C33.6051 29.1744 33.133 29.8848 32.8137 30.6666C32.4943 31.4485 32.3342 32.2863 32.3426 33.1308C32.3426 33.4797 32.4812 33.8144 32.728 34.0611C32.9748 34.3078 33.3094 34.4464 33.6584 34.4464C34.0074 34.4464 34.342 34.3078 34.5888 34.0611C34.8356 33.8144 34.9742 33.4797 34.9742 33.1308C34.9742 30.9907 36.6163 29.3489 38.7566 29.3489C39.4742 29.3489 40.1338 29.5506 40.697 29.8944C40.9948 30.0765 41.3527 30.1329 41.6921 30.0512C42.0315 29.9694 42.3245 29.7562 42.5066 29.4585C42.6888 29.1608 42.7452 28.8029 42.6635 28.4635C42.5817 28.1242 42.3685 27.8312 42.0707 27.6491C41.0729 27.0381 39.9249 26.7162 38.7549 26.7194" fill="var(--fill-0, #007BC4)"/>
</g>
</svg>
