<svg preserveAspectRatio="none" width="100%" height="100%" overflow="visible" style="display: block;" viewBox="0 0 75 75" fill="none" xmlns="http://www.w3.org/2000/svg">
<g id="Frame 60">
<path d="M0 19C0 8.50659 8.50659 0 19 0H56C66.4934 0 75 8.50659 75 19V56C75 66.4934 66.4934 75 56 75H19C8.50659 75 0 66.4934 0 56V19Z" fill="var(--fill-0, #F1F1F1)"/>
<g id="Vector">
<path d="M34.5 34.5C35.2879 34.5 36.0681 34.3448 36.7961 34.0433C37.5241 33.7417 38.1855 33.2998 38.7426 32.7426C39.2998 32.1855 39.7417 31.5241 40.0433 30.7961C40.3448 30.0681 40.5 29.2879 40.5 28.5C40.5 27.7121 40.3448 26.9319 40.0433 26.2039C39.7417 25.4759 39.2998 24.8145 38.7426 24.2574C38.1855 23.7002 37.5241 23.2583 36.7961 22.9567C36.0681 22.6552 35.2879 22.5 34.5 22.5C32.9087 22.5 31.3826 23.1321 30.2574 24.2574C29.1321 25.3826 28.5 26.9087 28.5 28.5C28.5 30.0913 29.1321 31.6174 30.2574 32.7426C31.3826 33.8679 32.9087 34.5 34.5 34.5Z" fill="var(--fill-0, #E6007E)"/>
<path d="M38.1667 29C38.1667 28.4528 38.0587 27.9105 37.8493 27.4049C37.6399 26.8996 37.3327 26.4408 36.946 26.054C36.5592 25.6673 36.1004 25.3601 35.5951 25.1507C35.0895 24.9413 34.5472 24.8333 34 24.8333C32.8949 24.8333 31.8354 25.2726 31.054 26.054C30.2726 26.8354 29.8333 27.8949 29.8333 29C29.8333 30.1051 30.2726 31.1646 31.054 31.946C31.8354 32.7274 32.8949 33.1667 34 33.1667C34.5472 33.1667 35.0895 33.0587 35.5951 32.8493C36.1004 32.6399 36.5592 32.3327 36.946 31.946C37.3327 31.5592 37.6399 31.1004 37.8493 30.5951C38.0587 30.0895 38.1667 29.5472 38.1667 29ZM41.5 29C41.5 29.9848 41.3055 30.9596 40.9287 31.8695C40.5518 32.7794 39.9992 33.6063 39.3027 34.3027C38.6063 34.9992 37.7794 35.5518 36.8695 35.9287C35.9596 36.3055 34.9848 36.5 34 36.5C32.0109 36.5 30.1038 35.7093 28.6973 34.3027C27.2907 32.8962 26.5 30.9891 26.5 29C26.5 27.0109 27.2907 25.1038 28.6973 23.6973C30.1038 22.2907 32.0109 21.5 34 21.5C34.9848 21.5 35.9596 21.6945 36.8695 22.0713C37.7794 22.4482 38.6063 23.0008 39.3027 23.6973C39.9992 24.3937 40.5518 25.2206 40.9287 26.1305C41.3055 27.0404 41.5 28.0152 41.5 29Z" fill="var(--fill-0, #E6007E)"/>
<path d="M51.2945 19.7175C52.1115 19.2544 53.1411 19.555 53.5949 20.3888L52.1159 21.2272C53.5951 20.3883 53.5966 20.3905 53.5966 20.3905V20.3922L53.5982 20.3956C53.5996 20.3981 53.6015 20.4008 53.6032 20.404C53.607 20.4111 53.6126 20.4205 53.6181 20.431C53.6292 20.4522 53.6435 20.4807 53.661 20.5153C53.6963 20.585 53.7448 20.6817 53.8015 20.8038C53.9149 21.0478 54.0658 21.3956 54.2312 21.8344C54.5613 22.7108 54.9513 23.962 55.2111 25.4998C55.732 28.5836 55.7284 32.8343 53.6561 37.4878C53.2692 38.3559 52.2658 38.7394 51.4152 38.3447C50.5647 37.9498 50.189 36.9257 50.5757 36.0574C52.3107 32.1611 52.3072 28.6381 51.8762 26.0868C51.6602 24.8078 51.3361 23.7765 51.0714 23.0742C50.9393 22.7236 50.8225 22.4567 50.7426 22.2848C50.7027 22.199 50.672 22.1362 50.6533 22.0992C50.6443 22.0814 50.6382 22.0695 50.6352 22.0638C50.1831 21.2303 50.4783 20.1803 51.2945 19.7175ZM45.4362 23.1366C46.2721 22.71 47.2888 23.0559 47.7068 23.9092L46.3054 24.6244C47.609 23.9591 47.7002 23.9135 47.7068 23.9109L47.7085 23.9125L47.7233 23.9429C47.7303 23.9576 47.7381 23.9765 47.7481 23.9986C47.7687 24.0437 47.7962 24.1044 47.8274 24.179C47.8901 24.3288 47.9721 24.5376 48.0605 24.7981C48.2368 25.3181 48.4425 26.0535 48.5794 26.9538C48.8535 28.757 48.8526 31.2457 47.7597 33.9725C47.4057 34.8553 46.4168 35.2783 45.5518 34.9171C44.687 34.5559 44.2726 33.5464 44.6264 32.6636C45.4371 30.6406 45.4364 28.8109 45.2346 27.4835C45.1335 26.8185 44.9822 26.2853 44.8611 25.9282C44.8009 25.7509 44.7497 25.6183 44.7156 25.5369C44.6987 25.4965 44.6857 25.4683 44.6793 25.4543V25.4526C44.2623 24.5996 44.6007 23.563 45.4362 23.1366ZM44.676 25.4458L44.6776 25.4492V25.4509C44.676 25.4473 44.6743 25.4441 44.6743 25.4441L44.676 25.4458Z" fill="var(--fill-0, #E6007E)"/>
<path d="M21.5 52.4714V53.5H46.5V52.4714C46.5 48.6314 46.5 46.7114 45.7733 45.244C45.1342 43.9538 44.1144 42.9048 42.86 42.2474C41.4333 41.5 39.5667 41.5 35.8333 41.5H32.1667C28.4333 41.5 26.5667 41.5 25.14 42.2474C23.8856 42.9048 22.8658 43.9538 22.2267 45.244C21.5 46.7114 21.5 48.6314 21.5 52.4714Z" fill="var(--fill-0, #E6007E)"/>
<path d="M35.8758 40.5C37.7582 40.5 39.2736 40.4984 40.497 40.596C41.7401 40.6953 42.8318 40.9055 43.8421 41.4082C45.447 42.2071 46.7527 43.4828 47.5704 45.0508C48.0849 46.0379 48.3001 47.1045 48.4017 48.319C48.5017 49.5143 48.5 50.9948 48.5 52.834V53.8333C48.5 54.7538 47.7363 55.5 46.7941 55.5H21.2059C20.2638 55.5 19.5 54.7538 19.5 53.8333V52.834C19.5 50.9948 19.4983 49.5143 19.5983 48.319C19.6999 47.1045 19.9151 46.0379 20.4296 45.0508C21.2473 43.4828 22.553 42.2071 24.1579 41.4082C25.1682 40.9055 26.2599 40.6953 27.503 40.596C28.7264 40.4984 30.2418 40.5 32.1242 40.5H35.8758ZM32.1242 43.8333C30.1856 43.8333 28.8334 43.834 27.7812 43.918C26.7489 44.0004 26.1552 44.1548 25.7055 44.3786C24.743 44.8579 23.9604 45.6225 23.4698 46.5628C23.2408 47.0022 23.0827 47.5823 22.9984 48.5908C22.9229 49.4937 22.9165 50.6222 22.9151 52.1667H45.0849C45.0835 50.6222 45.0771 49.4937 45.0016 48.5908C44.9173 47.5823 44.7592 47.0022 44.5302 46.5628C44.0396 45.6225 43.257 44.8579 42.2945 44.3786C41.8448 44.1548 41.2511 44.0004 40.2188 43.918C39.1666 43.834 37.8144 43.8333 35.8758 43.8333H32.1242Z" fill="var(--fill-0, #E6007E)"/>
</g>
</g>
</svg>
