<svg width="41" height="39" viewBox="0 0 41 39" fill="none" xmlns="http://www.w3.org/2000/svg">
<path d="M12.7712 11.5542C13.5925 11.8419 14.4381 12.2974 15.3802 12.9687H15.8151L15.5493 9.63625C14.7521 9.13279 13.9066 8.72521 12.9161 8.48547C12.9161 9.51638 12.892 10.5473 12.747 11.5542H12.7712Z" fill="#1D1D1B"/>
<path d="M4.86987 10.6911C5.01481 10.3075 5.11144 9.92388 5.15976 9.61221C2.84061 11.0747 1.34282 13.568 1.34282 16.5649C1.34282 16.5889 1.34282 16.6128 1.34282 16.6368C1.5844 16.2532 1.82598 15.8696 2.06756 15.534C3.22713 13.7598 4.31424 12.0816 4.86987 10.6911Z" fill="#1D1D1B"/>
<path d="M5.3751 19.5378C4.89195 20.5687 4.38463 21.6955 4.04642 22.7983C4.55374 23.2538 5.13353 23.6614 5.76163 23.9731C5.93073 23.086 6.24479 22.1031 6.65547 20.9762C6.124 20.5927 5.68916 20.0892 5.35095 19.5138L5.3751 19.5378Z" fill="#1D1D1B"/>
<path d="M4.86817 14.9106C5.08559 14.1674 5.44795 13.4961 5.93111 12.9207C6.5109 11.7459 6.92158 10.6671 6.9699 9.73207C6.9699 9.54027 7.01821 9.06078 6.9699 8.70116C6.55921 8.84501 6.14853 9.01283 5.76201 9.2286C5.76201 9.7081 5.61706 10.2595 5.39964 10.8829C4.84401 12.3213 3.73275 14.0235 2.54901 15.8217C2.18665 16.3731 1.80012 16.9724 1.4136 17.5958C1.51023 18.4109 1.70349 19.1781 2.01754 19.8974C2.62149 18.6986 3.34622 17.4759 4.0468 16.2772C4.33669 15.7977 4.60243 15.3422 4.86817 14.8866V14.9106Z" fill="#1D1D1B"/>
<path d="M5.06351 18.8426C4.79777 18.1473 4.65282 17.3801 4.65282 16.565C4.65282 16.517 4.65282 16.493 4.65282 16.4451C4.62866 16.493 4.60451 16.541 4.55619 16.5889C3.78314 17.9076 2.98593 19.2741 2.33367 20.5927C2.67188 21.2161 3.08256 21.8154 3.56572 22.3189C3.95225 21.1441 4.48372 19.9694 4.99103 18.9145L5.03935 18.8186L5.06351 18.8426Z" fill="#1D1D1B"/>
<path d="M8.92989 18.1713H13.4716V21.0003C12.4086 21.7195 11.4906 21.9833 10.1378 21.9833C9.96868 21.9833 9.82373 21.9833 9.67878 21.9833C9.36473 22.9183 9.099 23.9012 8.92989 24.8842C9.29226 24.9321 9.65463 24.9561 10.017 24.9561C12.5294 24.9561 14.4862 24.093 16.757 22.3429V15.3902H8.95405V18.1473L8.92989 18.1713Z" fill="#1D1D1B"/>
<path d="M7.19034 21.3119C6.77966 22.4147 6.48976 23.3737 6.32066 24.2368C6.94876 24.5005 7.62518 24.6923 8.32576 24.8122C8.49486 23.8292 8.7606 22.8463 9.07465 21.9352C8.37407 21.8393 7.74597 21.6236 7.19034 21.3119Z" fill="#1D1D1B"/>
<path d="M7.57517 9.80404C7.52685 10.4993 7.33359 11.2425 6.99538 12.0337C7.35774 11.7939 7.76843 11.6021 8.20327 11.4583C8.56564 10.2116 8.7589 9.18069 8.78306 8.29363C8.37237 8.36555 7.96169 8.43748 7.57517 8.55735C7.62348 9.06082 7.57517 9.70814 7.57517 9.80404Z" fill="#1D1D1B"/>
<path d="M10.2556 11.1227C10.473 10.0198 10.5696 9.03687 10.5454 8.17378C10.473 8.17378 10.4005 8.17378 10.328 8.17378C9.98982 8.17378 9.67576 8.17378 9.36171 8.22173C9.36171 9.1088 9.16845 10.1157 8.8544 11.2905C9.28924 11.1946 9.7724 11.1467 10.2797 11.1467L10.2556 11.1227Z" fill="#1D1D1B"/>
<path d="M10.8597 11.1467C11.2945 11.1707 11.7535 11.2426 12.2125 11.3864C12.3333 10.3795 12.3816 9.37257 12.3575 8.36563C11.9709 8.2937 11.5603 8.24576 11.1496 8.22178C11.1737 9.10885 11.1013 10.0678 10.8838 11.1707L10.8597 11.1467Z" fill="#1D1D1B"/>
<path d="M24.7016 8.48547L17.5267 24.6205H20.7155L21.9234 21.8634H28.446L29.6539 24.6205H32.8428L25.6679 8.48547H24.7016ZM23.083 19.1063L25.1847 14.2154L27.2864 19.1063H23.083Z" fill="#1D1D1B"/>
<path d="M37.8925 17.7157H44.6567V14.9586H37.8925V11.2665H44.8983V8.48547H34.607V24.6444H44.9949V21.8634H37.8925V17.7157Z" fill="#1D1D1B"/>
<path d="M53.1391 15.1265C50.8441 14.0716 49.8536 13.4962 49.8536 12.4413C49.8536 11.3384 50.675 10.835 51.8346 10.835C53.2357 10.835 54.4919 11.6261 55.6032 12.8249H55.8931L55.7723 9.3965C55.0717 8.77315 53.8397 8.17378 51.738 8.17378C49.2014 8.17378 46.8822 9.80407 46.8822 12.6091C46.8822 14.7908 48.3075 16.1813 50.7958 17.3082C52.6076 18.1473 53.6706 18.6747 53.6706 20.1132C53.6706 21.4078 52.7767 22.1511 51.4964 22.1511C49.6121 22.1511 48.2834 21.0003 47.1963 19.6097H46.9547L46.7614 23.3977C47.7519 24.2369 49.443 24.9561 51.6413 24.9561C54.806 24.9561 56.9319 22.9422 56.9319 20.0413C56.9319 17.476 55.4099 16.1813 53.0908 15.1265H53.1391Z" fill="#1D1D1B"/>
<path d="M1.39 1.62872H1.849V1.12525C1.82485 0.549854 2.25969 0.118309 2.767 0.118309C3.00858 0.118309 3.15353 0.166258 3.34679 0.262157V0.789601H3.32263C3.20184 0.669728 3.00858 0.621778 2.88779 0.621778C2.5979 0.621778 2.40463 0.813576 2.40463 1.1732V1.65269H3.00858V2.15616H2.40463V5.0571H1.849V2.13219H1.39V1.62872Z" fill="#1D1D1B"/>
<path d="M4.29064 3.81043C4.29064 4.3139 4.62885 4.62557 5.11201 4.62557C5.66764 4.62557 6.12664 4.14608 6.12664 3.52273V1.62873H6.68227V5.03314H6.12664V4.52967C5.88506 4.88929 5.42606 5.12904 4.94291 5.12904C4.24233 5.12904 3.73501 4.67352 3.73501 3.9303V1.62873H4.29064V3.81043Z" fill="#1D1D1B"/>
<path d="M10.0145 2.85135C10.0145 2.34788 9.67633 2.03621 9.19317 2.03621C8.63754 2.03621 8.17854 2.5157 8.17854 3.13904V5.03305H7.62291V1.62863H8.17854V2.1321C8.42012 1.77248 8.87912 1.53274 9.36228 1.53274C10.0629 1.53274 10.5702 1.98826 10.5702 2.73147V5.03305H10.0145V2.85135Z" fill="#1D1D1B"/>
<path d="M11.2943 3.33088C11.2943 2.29996 12.0674 1.53277 13.082 1.53277C13.6135 1.53277 14.0483 1.77252 14.2899 2.08419V0.0703125H14.8455V5.03308H14.2899V4.57756C14.0242 4.88923 13.5893 5.12898 13.0337 5.12898C12.0674 5.12898 11.2702 4.36179 11.2702 3.33088H11.2943ZM14.3382 3.33088C14.3382 2.61163 13.8551 2.03624 13.1062 2.03624C12.3573 2.03624 11.8741 2.63561 11.8741 3.33088C11.8741 4.02614 12.3573 4.62551 13.1062 4.62551C13.8551 4.62551 14.3382 4.02614 14.3382 3.33088Z" fill="#1D1D1B"/>
<path d="M15.6205 3.33084C15.6205 2.34788 16.3935 1.53274 17.4082 1.53274C17.9396 1.53274 18.3745 1.79646 18.5919 2.06018V1.62863H19.1475V5.03305H18.5919V4.6015C18.3503 4.86522 17.9396 5.12895 17.4082 5.12895C16.3935 5.12895 15.6205 4.31381 15.6205 3.33084ZM18.6402 3.33084C18.6402 2.6116 18.1812 2.03621 17.4082 2.03621C16.6351 2.03621 16.1761 2.63557 16.1761 3.33084C16.1761 4.02611 16.6351 4.62548 17.4082 4.62548C18.1812 4.62548 18.6402 4.02611 18.6402 3.33084Z" fill="#1D1D1B"/>
<path d="M22.6729 4.81727C22.4554 5.00907 22.1172 5.12895 21.7066 5.12895C20.7402 5.12895 19.9189 4.45765 19.9189 3.33084C19.9189 2.20403 20.7644 1.53274 21.7066 1.53274C22.1172 1.53274 22.4554 1.65261 22.697 1.84441V2.39583H22.6487C22.3588 2.1321 22.0931 2.03621 21.7066 2.03621C20.9818 2.03621 20.4745 2.58762 20.4745 3.33084C20.4745 4.07406 20.9335 4.62548 21.7066 4.62548C22.0931 4.62548 22.3347 4.52958 22.6487 4.26586H22.7212V4.81727H22.6729Z" fill="#1D1D1B"/>
<path d="M23.7828 0.214155C24.0002 0.214155 24.1693 0.381978 24.1693 0.597751C24.1693 0.813523 24.0002 0.981346 23.7828 0.981346C23.5654 0.981346 23.3963 0.813523 23.3963 0.597751C23.3963 0.381978 23.5654 0.214155 23.7828 0.214155ZM23.5171 1.62866H24.0727V5.03308H23.5171V1.62866Z" fill="#1D1D1B"/>
<path d="M24.8212 3.33087C24.8212 2.27598 25.6184 1.53277 26.6089 1.53277C27.5994 1.53277 28.3966 2.27598 28.3966 3.33087C28.3966 4.38576 27.5994 5.12898 26.6089 5.12898C25.6184 5.12898 24.8212 4.38576 24.8212 3.33087ZM27.8651 3.33087C27.8651 2.56368 27.3336 2.03623 26.6331 2.03623C25.9325 2.03623 25.401 2.56368 25.401 3.33087C25.401 4.09806 25.9325 4.62551 26.6331 4.62551C27.3336 4.62551 27.8651 4.09806 27.8651 3.33087ZM26.7297 0.214155H27.5511L26.5606 1.14917H26.1016L26.7297 0.214155Z" fill="#1D1D1B"/>
<path d="M31.5631 2.85135C31.5631 2.34788 31.2249 2.03621 30.7418 2.03621C30.1861 2.03621 29.7271 2.5157 29.7271 3.13904V5.03305H29.1715V1.62863H29.7271V2.1321C29.9687 1.77248 30.4277 1.53274 30.9109 1.53274C31.6115 1.53274 32.1188 1.98826 32.1188 2.73147V5.03305H31.5631V2.85135Z" fill="#1D1D1B"/>
<path d="M1.4392 35.6248C1.92236 36.0084 2.55046 36.3201 3.32351 36.3201C3.83082 36.3201 4.21735 36.1283 4.21735 35.7447C4.21735 35.3611 3.85498 35.1453 2.84035 34.8097C1.77741 34.4501 1.14931 33.7788 1.14931 32.8438C1.14931 31.5252 2.26057 30.686 3.71004 30.686C4.48309 30.686 5.01456 30.8299 5.54603 31.1416L5.6185 32.9157H5.52187C4.94209 32.5321 4.45893 32.2684 3.73419 32.2684C3.27519 32.2684 2.93698 32.4842 2.93698 32.7718C2.93698 33.1794 3.27519 33.3712 4.26567 33.7069C5.23198 34.0185 6.0775 34.4501 6.0775 35.7207C6.0775 37.2551 4.79714 38.0223 3.42014 38.0223C2.38135 38.0223 1.55999 37.7586 0.931885 37.351L1.36673 35.6009H1.46336L1.4392 35.6248Z" fill="#1D1D1B"/>
<path d="M6.73115 34.3542C6.73115 32.2684 8.47051 30.6861 10.5481 30.6861C12.6257 30.6861 14.365 32.2684 14.365 34.3542C14.365 36.44 12.6257 38.0224 10.5481 38.0224C8.47051 38.0224 6.73115 36.44 6.73115 34.3542ZM12.5049 34.3542C12.5049 33.1795 11.611 32.3883 10.5481 32.3883C9.48514 32.3883 8.5913 33.1795 8.5913 34.3542C8.5913 35.529 9.48514 36.3202 10.5481 36.3202C11.611 36.3202 12.5049 35.529 12.5049 34.3542Z" fill="#1D1D1B"/>
<path d="M15.5214 27.7133H17.3815V37.8306H15.5214V27.7133Z" fill="#1D1D1B"/>
<path d="M19.9225 27.5933C20.5747 27.5933 21.1062 28.1207 21.1062 28.768C21.1062 29.4153 20.5747 29.9188 19.9225 29.9188C19.2702 29.9188 18.7629 29.3914 18.7629 28.768C18.7629 28.1447 19.2944 27.5933 19.9225 27.5933ZM19.0045 30.8778H20.8646V37.8305H19.0045V30.8778Z" fill="#1D1D1B"/>
<path d="M22.094 34.3543C22.094 32.0287 23.6401 30.6861 25.5486 30.6861C26.5149 30.6861 27.2638 30.9738 27.7711 31.5492V27.7133H29.6313V37.8306H27.7711V37.0874C27.288 37.6388 26.5632 38.0224 25.5244 38.0224C23.5435 38.0224 22.094 36.512 22.094 34.3543ZM27.8677 34.3543C27.8677 33.2274 27.0705 32.3883 25.911 32.3883C24.7514 32.3883 23.9542 33.2274 23.9542 34.3543C23.9542 35.4811 24.7514 36.3202 25.911 36.3202C27.0705 36.3202 27.8677 35.4811 27.8677 34.3543Z" fill="#1D1D1B"/>
<path d="M30.7899 34.3542C30.7899 32.3403 32.336 30.6861 34.2928 30.6861C35.2108 30.6861 35.9838 31.0217 36.3704 31.5252V30.9019H38.2305V37.8545H36.3704V37.2312C35.863 37.7107 35.2833 38.0703 34.172 38.0703C32.5051 38.0703 30.7899 36.6798 30.7899 34.4022V34.3542ZM36.467 34.3542C36.467 33.2754 35.7423 32.3883 34.5585 32.3883C33.3748 32.3883 32.6501 33.2754 32.6501 34.3542C32.6501 35.4331 33.3748 36.3202 34.5585 36.3202C35.7423 36.3202 36.467 35.4331 36.467 34.3542Z" fill="#1D1D1B"/>
<path d="M44.393 32.9637C44.1031 32.6281 43.6441 32.4123 43.161 32.4123C42.3638 32.4123 41.6149 32.9158 41.6149 34.0666V37.8546H39.7547V30.9019H41.6149V31.5972C42.0497 31.0457 42.7261 30.7101 43.4026 30.7101C43.934 30.7101 44.2239 30.83 44.538 31.0218L44.6588 32.9877H44.393V32.9637Z" fill="#1D1D1B"/>
<path d="M46.7603 27.5933C47.4126 27.5933 47.944 28.1207 47.944 28.768C47.944 29.4153 47.4126 29.9188 46.7603 29.9188C46.108 29.9188 45.6007 29.3914 45.6007 28.768C45.6007 28.1447 46.1322 27.5933 46.7603 27.5933ZM45.8423 30.8778H47.7025V37.8305H45.8423V30.8778Z" fill="#1D1D1B"/>
<path d="M48.9602 34.3542C48.9602 32.3403 50.5063 30.6861 52.4631 30.6861C53.3811 30.6861 54.1541 31.0217 54.5406 31.5252V30.9019H56.4008V37.8545H54.5406V37.2312C54.0333 37.7107 53.4535 38.0703 52.3423 38.0703C50.6754 38.0703 48.9602 36.6798 48.9602 34.4022V34.3542ZM54.6373 34.3542C54.6373 33.2754 53.9125 32.3883 52.7288 32.3883C51.5451 32.3883 50.8203 33.2754 50.8203 34.3542C50.8203 35.4331 51.5451 36.3202 52.7288 36.3202C53.9125 36.3202 54.6373 35.4331 54.6373 34.3542Z" fill="#1D1D1B"/>
</svg>
