<svg width="16" height="15" viewBox="0 0 16 15" fill="none" xmlns="http://www.w3.org/2000/svg">
<path d="M14.6667 7.49992C14.6667 11.1818 11.6819 14.1666 8.00004 14.1666M14.6667 7.49992C14.6667 3.81802 11.6819 0.833252 8.00004 0.833252M14.6667 7.49992H1.33337M8.00004 14.1666C4.31814 14.1666 1.33337 11.1818 1.33337 7.49992M8.00004 14.1666C6.2882 12.3691 5.33337 9.98209 5.33337 7.49992C5.33337 5.01775 6.2882 2.63069 8.00004 0.833252M8.00004 14.1666C9.71188 12.3691 10.6667 9.98209 10.6667 7.49992C10.6667 5.01775 9.71188 2.63069 8.00004 0.833252M1.33337 7.49992C1.33337 3.81802 4.31814 0.833252 8.00004 0.833252" stroke="black" stroke-width="1.33333" stroke-linecap="round" stroke-linejoin="round"/>
</svg>
