<svg width="16" height="15" viewBox="0 0 16 15" fill="none" xmlns="http://www.w3.org/2000/svg">
<path d="M14.6667 7.49992C14.6667 11.1818 11.6819 14.1666 7.99999 14.1666M14.6667 7.49992C14.6667 3.81802 11.6819 0.833252 7.99999 0.833252M14.6667 7.49992H1.33333M7.99999 14.1666C4.3181 14.1666 1.33333 11.1818 1.33333 7.49992M7.99999 14.1666C6.28815 12.3691 5.33333 9.98209 5.33333 7.49992C5.33333 5.01775 6.28815 2.63069 7.99999 0.833252M7.99999 14.1666C9.71184 12.3691 10.6667 9.98209 10.6667 7.49992C10.6667 5.01775 9.71184 2.63069 7.99999 0.833252M1.33333 7.49992C1.33333 3.81802 4.3181 0.833252 7.99999 0.833252" stroke="black" stroke-opacity="0.55" stroke-width="1.33333" stroke-linecap="round" stroke-linejoin="round"/>
</svg>
