<svg width="43" height="45" viewBox="0 0 43 45" fill="none" xmlns="http://www.w3.org/2000/svg">
<path d="M8.30195 44.7786C7.73528 44.7786 7.26061 44.5866 6.87795 44.2026C6.49528 43.8186 6.30328 43.3439 6.30195 42.7786C6.30061 42.2133 6.49261 41.7386 6.87795 41.3546C7.26328 40.9706 7.73795 40.7786 8.30195 40.7786H16.3019V38.7786H4.30195C3.73528 38.7786 3.26061 38.5866 2.87795 38.2026C2.49528 37.8186 2.30328 37.3439 2.30195 36.7786C2.30061 36.2133 2.49261 35.7386 2.87795 35.3546C3.26328 34.9706 3.73795 34.7786 4.30195 34.7786H16.3019V32.7786H2.30195C1.73528 32.7786 1.26061 32.5866 0.877948 32.2026C0.495281 31.8186 0.303281 31.3439 0.301948 30.7786C0.300614 30.2133 0.492614 29.7386 0.877948 29.3546C1.26328 28.9706 1.73795 28.7786 2.30195 28.7786H16.3019V26.7786H6.30195C5.73528 26.7786 5.26061 26.5866 4.87795 26.2026C4.49528 25.8186 4.30328 25.3439 4.30195 24.7786C4.30061 24.2133 4.49261 23.7386 4.87795 23.3546C5.26328 22.9706 5.73795 22.7786 6.30195 22.7786H18.5019L16.8019 19.7786C16.4019 19.0786 16.2439 18.3373 16.3279 17.5546C16.4119 16.7719 16.7366 16.0966 17.3019 15.5286L18.7019 14.1286L31.9019 23.9786C32.6686 24.5453 33.2606 25.2453 33.6779 26.0786C34.0953 26.9119 34.3033 27.8119 34.3019 28.7786V38.7786C34.3019 40.4453 33.7186 41.8619 32.5519 43.0286C31.3853 44.1953 29.9686 44.7786 28.3019 44.7786H8.30195ZM11.8019 20.1286L11.1019 19.6286C10.6353 19.2953 10.3599 18.8619 10.2759 18.3286C10.1919 17.7953 10.3173 17.2953 10.6519 16.8286C10.9866 16.3619 11.4199 16.0953 11.9519 16.0286C12.4839 15.9619 12.9839 16.0953 13.4519 16.4286L13.5019 16.4786C13.3353 17.0786 13.2773 17.6866 13.3279 18.3026C13.3786 18.9186 13.5033 19.5273 13.7019 20.1286H11.8019ZM11.0519 9.62861C11.3853 9.16194 11.8186 8.89527 12.3519 8.82861C12.8853 8.76194 13.3853 8.89527 13.8519 9.22861L17.0019 11.5786L15.2019 13.4286C15.0353 13.5953 14.8773 13.7699 14.7279 13.9526C14.5786 14.1353 14.4366 14.3273 14.3019 14.5286L11.4519 12.4286C10.9853 12.0953 10.7186 11.6619 10.6519 11.1286C10.5853 10.5953 10.7186 10.0953 11.0519 9.62861ZM41.5019 22.3286L37.2519 27.9786C37.1186 26.7119 36.7439 25.5206 36.1279 24.4046C35.5119 23.2886 34.7033 22.3466 33.702 21.5786L22.1519 12.9286L13.4519 6.42861C12.9853 6.09527 12.7186 5.66194 12.6519 5.1286C12.5853 4.59527 12.7186 4.09527 13.0519 3.62861C13.3853 3.16194 13.8186 2.88727 14.3519 2.80461C14.8853 2.72194 15.3853 2.84661 15.8519 3.17861L27.0019 11.5786L28.2519 9.97861L20.2519 3.97861C19.7853 3.64527 19.5106 3.21194 19.4279 2.67861C19.3453 2.14527 19.4699 1.64527 19.8019 1.17861C20.1339 0.711939 20.5673 0.445272 21.1019 0.378605C21.6366 0.311938 22.1366 0.445272 22.6019 0.778605L32.4019 8.07861L32.8519 4.6286C32.9519 3.8286 33.2686 3.14527 33.8019 2.57861C34.3353 2.01194 34.9853 1.66194 35.7519 1.52861L37.7519 1.22861L42.452 17.0286C42.7186 17.9286 42.7686 18.8453 42.6019 19.7786C42.4353 20.7119 42.0686 21.5619 41.5019 22.3286Z" fill="#0093EA"/>
</svg>
