<svg width="23" height="23" viewBox="0 0 23 23" fill="none" xmlns="http://www.w3.org/2000/svg">
<path fill-rule="evenodd" clip-rule="evenodd" d="M0.975271 20.6825C0.879761 20.7747 0.803579 20.8851 0.75117 21.0071C0.698761 21.1291 0.671174 21.2603 0.670021 21.3931C0.668867 21.5259 0.694169 21.6575 0.744449 21.7804C0.79473 21.9033 0.868983 22.015 0.962876 22.1089C1.05677 22.2028 1.16842 22.277 1.29132 22.3273C1.41421 22.3776 1.54589 22.4029 1.67867 22.4017C1.81145 22.4006 1.94267 22.373 2.06468 22.3206C2.18668 22.2682 2.29702 22.192 2.38927 22.0965L11.8043 12.6805C11.9577 12.5707 12.147 12.5228 12.3342 12.5463C12.5214 12.5698 12.6929 12.6631 12.8145 12.8074C12.936 12.9518 12.9986 13.1367 12.9899 13.3252C12.9811 13.5137 12.9016 13.692 12.7673 13.8245L6.43527 20.1555C6.61853 20.4102 6.82364 20.6484 7.04827 20.8675L7.05327 20.8725C7.9526 21.7096 9.13462 22.1767 10.3633 22.1805C13.0393 22.1805 15.2633 19.9565 15.2633 17.2805C15.2633 16.1255 15.8003 14.9715 16.6753 14.2705L16.7173 14.2345C16.7703 14.1815 16.8193 14.1385 16.8833 14.0845C16.9293 14.0445 16.9823 13.9995 17.0483 13.9405C17.1763 13.8245 17.3273 13.6775 17.4563 13.4915C19.3323 11.4225 19.3703 8.60848 18.3063 6.35148C17.2393 4.08748 15.0183 2.28148 12.2633 2.28148C11.3693 2.27804 10.4835 2.45158 9.65696 2.7921C8.8304 3.13261 8.0794 3.63337 7.44728 4.26549C6.81516 4.89761 6.3144 5.64861 5.97389 6.47517C5.63337 7.30174 5.45983 8.18753 5.46327 9.08148V16.1935L0.975271 20.6825ZM18.5723 3.08248C18.3846 3.26999 18.2792 3.52436 18.2791 3.78963C18.279 4.0549 18.3843 4.30934 18.5718 4.49698C18.7593 4.68462 19.0136 4.79009 19.2789 4.79018C19.5442 4.79028 19.7986 4.68499 19.9863 4.49748L22.0493 2.43348C22.2314 2.24488 22.3322 1.99228 22.3299 1.73008C22.3277 1.46788 22.2225 1.21707 22.0371 1.03166C21.8517 0.846255 21.6009 0.741086 21.3387 0.738807C21.0765 0.736529 20.8239 0.837323 20.6353 1.01948L18.5723 3.08248ZM12.2163 5.42348C11.7348 5.41867 11.2572 5.50995 10.8115 5.69198C10.3658 5.874 9.96082 6.14312 9.62036 6.48357C9.27991 6.82403 9.01079 7.22898 8.82876 7.67472C8.64674 8.12046 8.55546 8.59803 8.56027 9.07948C8.56027 9.27839 8.63929 9.46916 8.77994 9.60981C8.92059 9.75046 9.11136 9.82948 9.31027 9.82948C9.50918 9.82948 9.69995 9.75046 9.8406 9.60981C9.98125 9.46916 10.0603 9.27839 10.0603 9.07948C10.0603 7.85948 10.9963 6.92348 12.2163 6.92348C12.6253 6.92348 13.0013 7.03848 13.3223 7.23448C13.492 7.33831 13.696 7.37046 13.8895 7.32386C14.0829 7.27726 14.2499 7.15572 14.3538 6.98598C14.4576 6.81624 14.4898 6.61221 14.4432 6.41877C14.3965 6.22532 14.275 6.05831 14.1053 5.95448C13.5365 5.60616 12.8822 5.42267 12.2153 5.42448" fill="#007BC4"/>
</svg>
