<svg width="175" height="44" viewBox="0 0 175 44" fill="none" xmlns="http://www.w3.org/2000/svg">
<path d="M13.2262 41.2474L13.4242 41.3464C15.9207 42.3739 18.5203 42.9186 21.2189 43.0259C23.1047 43.0919 24.9698 42.9144 26.8101 42.5018C31.7081 41.3836 35.7808 38.9366 38.9788 35.1363C42.0323 31.4844 43.6457 27.2838 43.9098 22.5839C43.9923 20.954 43.8561 19.3406 43.5631 17.7395C42.9194 14.2899 41.4587 11.2075 39.2882 8.43873H38.8508C37.5139 9.90359 36.1192 11.3396 34.7039 12.7425C31.2336 16.1756 27.6107 19.452 23.8557 22.6086C21.2107 24.8327 18.5203 27.0115 15.7432 29.0911C12.5412 31.4844 9.28963 33.8158 5.70382 35.6686L5.67081 35.9822L6.49196 36.8239L7.06964 36.8735C10.6926 34.736 14.2041 32.4376 17.6166 29.9866C23.2821 25.918 28.7165 21.5688 33.9405 16.9679C34.708 16.2788 35.4755 15.5773 36.1852 14.8263L37.0806 14.6448L37.4231 15.3751L37.0889 15.8827C34.8772 18.342 32.5623 20.7064 30.1484 22.9759C26.4718 26.4255 22.6219 29.7018 18.6152 32.7925C16.0115 34.8103 13.3623 36.7414 10.5028 38.392C10.1066 38.6272 9.70226 38.8376 9.25661 39.0852C9.64862 39.3451 9.99936 39.568 10.346 39.7908H10.6472C11.881 39.015 13.123 38.264 14.3527 37.4842C17.6909 35.3715 20.8888 33.0648 23.9836 30.6303C25.8817 29.1407 27.7675 27.6222 29.5954 26.0459C30.8251 24.9978 32.0506 23.958 33.1812 22.8067L34.0395 22.6747L34.3572 23.4215L34.0808 23.8507C32.9089 25.1546 31.6957 26.4255 30.4455 27.6676C28.2915 29.772 26.0509 31.7898 23.7236 33.725C21.3922 35.6686 18.9989 37.5502 16.4777 39.275C15.442 39.9806 14.3733 40.6449 13.2344 41.2433" fill="white"/>
<path fill-rule="evenodd" clip-rule="evenodd" d="M22.333 0.140625L22.6755 0.206647C26.1128 0.289174 29.3437 1.16809 32.3725 2.75261C34.3861 3.79658 36.1728 5.14177 37.7697 6.72629L37.7821 7.30811C35.2815 9.61887 32.6902 11.8058 30.0658 13.9722C27.165 16.3737 24.2064 18.7092 21.2189 21.0035C16.7501 24.449 12.1162 27.6593 7.35024 30.6839C6.20311 31.4102 5.05186 32.124 3.9006 32.8544C3.4467 33.1308 3.44258 33.1185 3.17024 32.6893C1.58984 30.164 0.574758 27.4447 0.19926 24.5274C-0.576495 18.4988 0.904867 13.0314 4.78364 8.25717C8.00633 4.30412 12.2028 1.79529 17.2659 0.677051C18.5574 0.396459 19.8779 0.219025 21.2148 0.219025L21.4417 0.144751H22.3372L22.333 0.140625Z" fill="white"/>
<path fill-rule="evenodd" clip-rule="evenodd" d="M13.2262 41.2474C14.3609 40.6491 15.4338 39.9847 16.4695 39.2791C18.9907 37.5543 21.384 35.6727 23.7154 33.7292C26.0426 31.7939 28.2832 29.7761 30.4372 27.6717C31.6875 26.4255 32.9006 25.1546 34.0725 23.8548L34.349 23.4257L34.0313 22.6788L33.173 22.8108C32.0465 23.958 30.8168 25.0019 29.5872 26.05C27.7633 27.6263 25.8735 29.1407 23.9753 30.6344C20.8806 33.0648 17.6826 35.3715 14.3444 37.4883C13.1148 38.2682 11.8727 39.0192 10.6389 39.7949H10.3377C9.99111 39.5721 9.64037 39.3493 9.24836 39.0893C9.68988 38.8417 10.0984 38.6313 10.4945 38.3961C13.3582 36.7455 16.0073 34.8144 18.6069 32.7966C22.6136 29.7101 26.4635 26.4338 30.1401 22.98C32.554 20.7105 34.8689 18.3461 37.0806 15.8868L37.4149 15.3793L37.0724 14.6489L36.177 14.8305C35.4672 15.5815 34.7039 16.2829 33.9322 16.972C28.7083 21.5729 23.2738 25.9221 17.6084 29.9907C14.2 32.4376 10.6843 34.736 7.06139 36.8776L6.4837 36.8281L5.66256 35.9863L5.69557 35.6727C9.28137 33.82 12.5371 31.4886 15.735 29.0953C18.512 27.0197 21.2024 24.8369 23.8474 22.6128C27.5983 19.4602 31.2212 16.1839 34.6956 12.7466C36.1109 11.3437 37.5057 9.90771 38.8426 8.44286H39.28C41.4505 11.2116 42.9112 14.294 43.5549 17.7437C43.8479 19.3447 43.984 20.9581 43.9015 22.588C43.6374 27.2879 42.024 31.4886 38.9705 35.1404C35.7726 38.9408 31.6999 41.3877 26.8019 42.5059C24.9615 42.9144 23.0964 43.096 21.2107 43.03C18.512 42.9227 15.9083 42.378 13.416 41.3506L13.2179 41.2515L13.2262 41.2474Z" fill="white"/>
<path d="M59.755 13.378C59.1525 12.5981 58.187 12.1731 57.1842 12.1731C55.4017 12.1731 54.1926 13.51 54.1926 15.2101C54.1926 16.9101 55.414 18.1934 57.2338 18.1934C58.187 18.1934 59.1401 17.7354 59.755 17.0298V20.4382C58.7853 20.7311 58.0838 20.9498 57.1719 20.9498C55.608 20.9498 54.1142 20.368 52.9547 19.3406C51.7127 18.2471 51.1515 16.8235 51.1515 15.1977C51.1515 13.6957 51.7292 12.2597 52.8062 11.1869C53.9079 10.0769 55.5048 9.41255 57.0852 9.41255C58.026 9.41255 58.8843 9.61887 59.755 9.96136V13.3821V13.378Z" fill="white"/>
<path d="M74.028 14.9749C74.028 18.5277 71.4161 21.02 67.8096 21.02C64.2032 21.02 61.5871 18.5235 61.5871 14.9749C61.5871 11.6573 64.5704 9.33827 67.8096 9.33827C71.0488 9.33827 74.028 11.6573 74.028 14.9749ZM64.6282 14.9955C64.6282 16.8771 66.06 18.2677 67.8096 18.2677C69.5592 18.2677 70.9869 16.8771 70.9869 14.9955C70.9869 13.477 69.5551 12.0947 67.8096 12.0947C66.0642 12.0947 64.6282 13.477 64.6282 14.9955Z" fill="white"/>
<path d="M87.8472 14.9749C87.8472 18.5277 85.2352 21.02 81.6247 21.02C78.0141 21.02 75.4062 18.5235 75.4062 14.9749C75.4062 11.6573 78.3896 9.33827 81.6247 9.33827C84.8597 9.33827 87.8472 11.6573 87.8472 14.9749ZM78.4556 14.9955C78.4556 16.8771 79.8792 18.2677 81.6288 18.2677C83.3784 18.2677 84.8102 16.8771 84.8102 14.9955C84.8102 13.477 83.3825 12.0947 81.6288 12.0947C79.8751 12.0947 78.4556 13.477 78.4556 14.9955Z" fill="white"/>
<path d="M94.2719 9.70139C96.6859 9.70139 98.357 10.7908 98.357 13.3078C98.357 15.8249 96.9293 17.0298 94.3751 17.0298H92.7204V20.661H89.799V9.70139H94.2719ZM92.7204 14.7273H93.2115C94.2678 14.7273 95.3077 14.7273 95.3077 13.3945C95.3077 12.0617 94.3421 11.9998 93.2115 11.9998H92.7204V14.7273Z" fill="white"/>
<path d="M103.177 12.1071V13.9392H106.465V16.3531H103.177V18.2471H106.643V20.6569H100.255V9.69727H106.643V12.1071H103.177Z" fill="white"/>
<path d="M114.759 20.661L112.003 16.448H111.97V20.661H109.048V9.70139H113.418C115.642 9.70139 117.322 10.7289 117.322 13.0685C117.322 14.587 116.455 15.8951 114.862 16.1633L118.399 20.661H114.759ZM111.97 14.6118H112.25C113.208 14.6118 114.285 14.4343 114.285 13.2459C114.285 12.0575 113.208 11.876 112.25 11.876H111.97V14.6118Z" fill="white"/>
<path d="M122.653 18.7546L121.877 20.661H118.774L123.099 9.70139H126.288L130.522 20.661H127.411L126.684 18.7546H122.653ZM124.691 13.0809H124.658L123.449 16.5759H125.884L124.687 13.0809H124.691Z" fill="white"/>
<path d="M140.363 13.378C139.765 12.5981 138.795 12.1731 137.797 12.1731C136.006 12.1731 134.797 13.51 134.797 15.2101C134.797 16.9101 136.027 18.1934 137.838 18.1934C138.795 18.1934 139.753 17.7354 140.363 17.0298V20.4423C139.39 20.7311 138.692 20.9498 137.784 20.9498C136.216 20.9498 134.727 20.368 133.559 19.3406C132.321 18.2471 131.76 16.8235 131.76 15.1977C131.76 13.6957 132.338 12.2597 133.415 11.191C134.516 10.0769 136.109 9.41255 137.694 9.41255C138.634 9.41255 139.493 9.61887 140.363 9.96136V13.3821V13.378Z" fill="white"/>
<path d="M146.875 9.69727H143.953V20.6569H146.875V9.69727Z" fill="white"/>
<path d="M161.548 14.9749C161.548 18.5277 158.94 21.02 155.33 21.02C151.719 21.02 149.111 18.5277 149.111 14.9749C149.111 11.6614 152.095 9.33415 155.33 9.33415C158.565 9.33415 161.548 11.6614 161.548 14.9749ZM152.152 14.9955C152.152 16.8771 153.584 18.2677 155.33 18.2677C157.075 18.2677 158.507 16.8771 158.507 14.9955C158.507 13.477 157.075 12.0906 155.33 12.0906C153.584 12.0906 152.152 13.477 152.152 14.9955ZM154.674 8.59553L153.465 7.73725L155.565 5.22842L157.224 6.39206L154.669 8.5914L154.674 8.59553Z" fill="white"/>
<path d="M162.604 9.69727H165.53L170.882 16.4026H170.911V9.69727H173.836V20.6569H170.911L165.555 13.9392H165.53V20.6569H162.604V9.69727Z" fill="white"/>
<path d="M53.1157 23.8259H51.8654V34.7649H53.1157V23.8259Z" fill="white"/>
<path d="M56.0578 23.3555L64.8139 32.3015V23.83H66.06V35.2601L57.3122 26.3389V34.7649H56.0578V23.3555Z" fill="white"/>
<path d="M71.969 34.7649H70.7187V24.9565H68.0077V23.8259H74.7089V24.9565H71.969V34.7649Z" fill="white"/>
<path d="M76.5823 23.83H82.4045V24.9565H77.8367V28.2122H82.2684V29.3346H77.8367V33.6384H82.4045V34.769H76.5823V23.83Z" fill="white"/>
<path d="M86.3782 34.7649H85.1321V23.83H86.7496C88.8788 23.83 90.8553 24.383 90.8553 26.8423C90.8553 28.5176 89.7742 29.7101 88.0453 29.8586L91.6187 34.7649H90.0878L86.6918 29.9659H86.3782V34.7649ZM86.3782 28.889H86.7661C88.1732 28.889 89.6092 28.629 89.6092 26.9248C89.6092 25.1298 88.2516 24.9524 86.7496 24.9524H86.3782V28.889Z" fill="white"/>
<path d="M93.8676 23.3555L102.615 32.3015V23.83H103.87V35.2601L95.1137 26.3389V34.7649H93.8676V23.3555Z" fill="white"/>
<path d="M108.487 31.6619L107.13 34.7649H105.76L110.938 23.2977L115.985 34.7649H114.603L113.282 31.6619H108.487ZM110.905 26.1449L108.987 30.5271H112.783L110.901 26.1449H110.905Z" fill="white"/>
<path d="M126.359 26.2151C125.463 25.3155 124.229 24.7708 122.938 24.7708C120.429 24.7708 118.407 26.8877 118.407 29.2975C118.407 31.7073 120.45 33.8241 122.967 33.8241C124.229 33.8241 125.467 33.2464 126.359 32.3799V33.8901C125.389 34.5751 124.192 34.963 123.012 34.963C119.835 34.963 117.157 32.4459 117.157 29.3429C117.157 26.2398 119.789 23.6402 123.012 23.6402C124.262 23.6402 125.36 23.991 126.359 24.7131V26.2233V26.2151Z" fill="white"/>
<path d="M130.349 23.8259H129.098V34.7649H130.349V23.8259Z" fill="white"/>
<path d="M144.354 29.314C144.354 32.4624 141.704 34.9588 138.502 34.9588C135.3 34.9588 132.651 32.4665 132.651 29.314C132.651 26.1614 135.304 23.6361 138.502 23.6361C141.7 23.6361 144.354 26.1779 144.354 29.314ZM133.901 29.2975C133.901 31.7568 135.956 33.8241 138.502 33.8241C141.048 33.8241 143.107 31.7609 143.107 29.2975C143.107 26.834 141.077 24.7708 138.502 24.7708C135.928 24.7708 133.901 26.8134 133.901 29.2975Z" fill="white"/>
<path d="M146.718 23.3555L155.474 32.3015V23.83H156.72V35.2601L147.968 26.3389V34.7649H146.718V23.3555Z" fill="white"/>
<path d="M161.338 31.6619L159.976 34.7649H158.614L163.793 23.2977L168.839 34.7649H167.453L166.128 31.6619H161.338ZM163.76 26.1449L161.841 30.5271H165.637L163.756 26.1449H163.76Z" fill="white"/>
<path d="M171.909 33.6384H175V34.769H170.651V23.83H171.909V33.6384Z" fill="white"/>
</svg>
