<svg width="37" height="37" viewBox="0 0 37 37" fill="none" xmlns="http://www.w3.org/2000/svg">
<path d="M15.5 15.5703C16.2879 15.5703 17.0681 15.4151 17.7961 15.1136C18.5241 14.8121 19.1855 14.3701 19.7426 13.813C20.2998 13.2558 20.7417 12.5944 21.0433 11.8664C21.3448 11.1385 21.5 10.3582 21.5 9.57031C21.5 8.78238 21.3448 8.00217 21.0433 7.27421C20.7417 6.54626 20.2998 5.88482 19.7426 5.32767C19.1855 4.77052 18.5241 4.32856 17.7961 4.02704C17.0681 3.72551 16.2879 3.57031 15.5 3.57031C13.9087 3.57031 12.3826 4.20245 11.2574 5.32767C10.1321 6.45289 9.5 7.97901 9.5 9.57031C9.5 11.1616 10.1321 12.6877 11.2574 13.813C12.3826 14.9382 13.9087 15.5703 15.5 15.5703Z" fill="#E6007E"/>
<path d="M19.1667 10.0703C19.1667 9.52314 19.0587 8.98078 18.8493 8.47526C18.6399 7.96995 18.3327 7.51112 17.946 7.12435C17.5592 6.73757 17.1004 6.43042 16.5951 6.22103C16.0895 6.01163 15.5472 5.90365 15 5.90365C13.8949 5.90365 12.8354 6.34295 12.054 7.12435C11.2726 7.90575 10.8333 8.96524 10.8333 10.0703C10.8333 11.1754 11.2726 12.2349 12.054 13.0163C12.8354 13.7977 13.8949 14.237 15 14.237C15.5472 14.237 16.0895 14.129 16.5951 13.9196C17.1004 13.7102 17.5592 13.4031 17.946 13.0163C18.3327 12.6295 18.6399 12.1707 18.8493 11.6654C19.0587 11.1598 19.1667 10.6175 19.1667 10.0703ZM22.5 10.0703C22.5 11.0551 22.3055 12.03 21.9287 12.9398C21.5518 13.8497 20.9992 14.6766 20.3027 15.373C19.6063 16.0695 18.7794 16.6221 17.8695 16.999C16.9596 17.3758 15.9848 17.5703 15 17.5703C13.0109 17.5703 11.1038 16.7796 9.69727 15.373C8.29074 13.9665 7.5 12.0594 7.5 10.0703C7.5 8.08119 8.29074 6.1741 9.69727 4.76758C11.1038 3.36106 13.0109 2.57031 15 2.57031C15.9848 2.57031 16.9596 2.76481 17.8695 3.1416C18.7794 3.51851 19.6063 4.07114 20.3027 4.76758C20.9992 5.46402 21.5518 6.2909 21.9287 7.20085C22.3055 8.11067 22.5 9.08555 22.5 10.0703Z" fill="#E6007E"/>
<path d="M32.2945 0.787806C33.1115 0.324756 34.1411 0.625344 34.5949 1.45915L33.1159 2.29748C34.5951 1.45864 34.5966 1.46083 34.5966 1.46083V1.46252L34.5982 1.46589C34.5996 1.4684 34.6015 1.47109 34.6032 1.47433C34.607 1.48143 34.6126 1.49085 34.6181 1.50132C34.6292 1.5225 34.6435 1.55106 34.661 1.58566C34.6963 1.65534 34.7448 1.75203 34.8015 1.8741C34.9149 2.1181 35.0658 2.46588 35.2312 2.90473C35.5613 3.78107 35.9513 5.03229 36.2111 6.57012C36.732 9.65394 36.7284 13.9046 34.6561 18.5581C34.2692 19.4262 33.2658 19.8097 32.4152 19.415C31.5647 19.0201 31.189 17.996 31.5757 17.1277C33.3107 13.2314 33.3072 9.70842 32.8762 7.15712C32.6602 5.87815 32.3361 4.84685 32.0714 4.14452C31.9393 3.79395 31.8225 3.52706 31.7426 3.3551C31.7027 3.26933 31.672 3.20648 31.6533 3.16955C31.6443 3.15171 31.6382 3.13984 31.6352 3.13413C31.1831 2.3006 31.4783 1.25066 32.2945 0.787806ZM26.4362 4.20693C27.2721 3.78031 28.2888 4.12624 28.7068 4.97948L27.3054 5.69467C28.609 5.02944 28.7002 4.98376 28.7068 4.98116L28.7085 4.98285L28.7233 5.01321C28.7303 5.02796 28.7381 5.04681 28.7481 5.06888C28.7687 5.11405 28.7962 5.17467 28.8274 5.24936C28.8901 5.39912 28.9721 5.60788 29.0605 5.86841C29.2368 6.38843 29.4425 7.12383 29.5794 8.02413C29.8535 9.82736 29.8526 12.316 28.7597 15.0429C28.4057 15.9256 27.4168 16.3486 26.5518 15.9875C25.687 15.6262 25.2726 14.6167 25.6264 13.7339C26.4371 11.7109 26.4364 9.88117 26.2346 8.55378C26.1335 7.88883 25.9822 7.35566 25.8611 6.99856C25.8009 6.82119 25.7497 6.68861 25.7156 6.60723C25.6987 6.56683 25.6857 6.53862 25.6793 6.52457V6.52289C25.2623 5.66991 25.6007 4.63332 26.4362 4.20693ZM25.676 6.51614L25.6776 6.51951V6.5212C25.676 6.51762 25.6743 6.51445 25.6743 6.51445L25.676 6.51614Z" fill="#E6007E"/>
<path d="M2.5 33.5417V34.5703H27.5V33.5417C27.5 29.7017 27.5 27.7817 26.7733 26.3143C26.1342 25.0241 25.1144 23.9751 23.86 23.3177C22.4333 22.5703 20.5667 22.5703 16.8333 22.5703H13.1667C9.43333 22.5703 7.56667 22.5703 6.14 23.3177C4.88564 23.9751 3.86581 25.0241 3.22667 26.3143C2.5 27.7817 2.5 29.7017 2.5 33.5417Z" fill="#E6007E"/>
<path d="M16.8758 21.5703C18.7582 21.5703 20.2736 21.5687 21.497 21.6663C22.7401 21.7656 23.8318 21.9758 24.8421 22.4785C26.447 23.2775 27.7527 24.5531 28.5704 26.1211C29.0849 27.1082 29.3001 28.1748 29.4017 29.3893C29.5017 30.5846 29.5 32.0651 29.5 33.9043V34.9036C29.5 35.8241 28.7363 36.5703 27.7941 36.5703H2.20588C1.26375 36.5703 0.500002 35.8241 0.500002 34.9036V33.9043C0.500002 32.0651 0.498326 30.5846 0.59829 29.3893C0.699877 28.1748 0.91506 27.1082 1.42957 26.1211C2.24731 24.5531 3.55302 23.2775 5.15786 22.4785C6.16821 21.9758 7.2599 21.7656 8.50299 21.6663C9.7264 21.5687 11.2418 21.5703 13.1242 21.5703H16.8758ZM13.1242 24.9036C11.1856 24.9036 9.83341 24.9043 8.78119 24.9883C7.74892 25.0707 7.15518 25.2251 6.70548 25.4489C5.74299 25.9282 4.96041 26.6928 4.46984 27.6331C4.24079 28.0725 4.08274 28.6526 3.99839 29.6611C3.92289 30.564 3.91647 31.6925 3.9151 33.237H26.0849C26.0835 31.6925 26.0771 30.564 26.0016 29.6611C25.9173 28.6526 25.7592 28.0725 25.5302 27.6331C25.0396 26.6928 24.257 25.9282 23.2945 25.4489C22.8448 25.2251 22.2511 25.0707 21.2188 24.9883C20.1666 24.9043 18.8144 24.9036 16.8758 24.9036H13.1242Z" fill="#E6007E"/>
</svg>
