<svg width="178" height="50" viewBox="0 0 178 50" fill="none" xmlns="http://www.w3.org/2000/svg">
<path d="M-8.73498 47.5691L-8.50741 47.6825C-5.639 48.8586 -2.65206 49.4821 0.448673 49.6049C2.61539 49.6804 4.7584 49.4773 6.87297 49.005C12.5007 47.725 17.1803 44.9241 20.8547 40.5739C24.3632 36.3938 26.217 31.5855 26.5204 26.2056C26.6152 24.3399 26.4588 22.4931 26.1221 20.6605C25.3825 16.7118 23.7041 13.1835 21.2103 10.0142H20.7077C19.1716 11.691 17.5691 13.3347 15.9428 14.9406C11.9555 18.8704 7.79275 22.6207 3.47828 26.234C0.43919 28.7798 -2.65206 31.2737 -5.84287 33.6543C-9.52202 36.3938 -13.2581 39.0625 -17.3781 41.1832L-17.4161 41.5422L-16.4726 42.5058L-15.8088 42.5624C-11.6461 40.1158 -7.61133 37.4849 -3.69037 34.6792C2.81926 30.0221 9.06339 25.0437 15.0657 19.7772C15.9476 18.9884 16.8294 18.1855 17.6449 17.3258L18.6738 17.118L19.0673 17.954L18.6832 18.535C16.142 21.3501 13.4822 24.0565 10.7086 26.6544C6.48419 30.603 2.06067 34.3533 -2.54301 37.8911C-5.53469 40.2008 -8.57853 42.4113 -11.8642 44.3006C-12.3193 44.5698 -12.7839 44.8107 -13.296 45.0941C-12.8456 45.3917 -12.4426 45.6467 -12.0443 45.9018H-11.6982C-10.2806 45.0138 -8.85351 44.1542 -7.44064 43.2615C-3.60503 40.8432 0.0693772 38.2028 3.62526 35.4161C5.8062 33.711 7.97292 31.9728 10.0733 30.1685C11.4861 28.9688 12.8943 27.7785 14.1933 26.4607L15.1795 26.3096L15.5446 27.1645L15.2269 27.6557C13.8804 29.1483 12.4865 30.603 11.0499 32.0248C8.57505 34.4336 6.00059 36.7433 3.32657 38.9586C0.647802 41.1832 -2.10208 43.3371 -4.99894 45.3114C-6.18897 46.1191 -7.41694 46.8795 -8.7255 47.5644" fill="black"/>
<path fill-rule="evenodd" clip-rule="evenodd" d="M1.72879 0.515625L2.12231 0.591198C6.07171 0.685664 9.78405 1.69173 13.2641 3.50547C15.5778 4.70047 17.6307 6.24026 19.4655 8.05401L19.4797 8.72C16.6066 11.365 13.6291 13.8684 10.6138 16.3481C7.28071 19.0971 3.88128 21.7705 0.448673 24.3966C-4.68602 28.3406 -10.0104 32.0153 -15.4864 35.4775C-16.8045 36.3088 -18.1273 37.1259 -19.45 37.9619C-19.9716 38.2784 -19.9763 38.2642 -20.2892 37.773C-22.1051 34.8823 -23.2714 31.7697 -23.7029 28.4303C-24.5942 21.5296 -22.8921 15.2712 -18.4354 9.80635C-14.7326 5.28143 -9.91079 2.40967 -4.09337 1.12965C-2.60938 0.808469 -1.09221 0.605367 0.443931 0.605367L0.704697 0.520348H1.73353L1.72879 0.515625Z" fill="black"/>
<path fill-rule="evenodd" clip-rule="evenodd" d="M-8.73498 47.5691C-7.43116 46.8843 -6.19845 46.1238 -5.00842 45.3161C-2.11156 43.3418 0.638321 41.188 3.31709 38.9633C5.99111 36.748 8.56557 34.4384 11.0405 32.0295C12.477 30.603 13.8709 29.1483 15.2174 27.6604L15.5351 27.1692L15.17 26.3143L14.1839 26.4654C12.8895 27.7785 11.4766 28.9735 10.0638 30.1732C7.96818 31.9775 5.79672 33.711 3.61578 35.4208C0.0598965 38.2028 -3.61451 40.8432 -7.45013 43.2662C-8.863 44.1589 -10.2901 45.0185 -11.7077 45.9065H-12.0538C-12.4521 45.6515 -12.8551 45.3964 -13.3055 45.0988C-12.7982 44.8155 -12.3288 44.5746 -11.8736 44.3053C-8.58327 42.416 -5.53943 40.2055 -2.55249 37.8958C2.05119 34.3628 6.47471 30.6125 10.6991 26.6591C13.4727 24.0613 16.1325 21.3548 18.6737 18.5397L19.0578 17.9588L18.6643 17.1227L17.6354 17.3306C16.8199 18.1902 15.9428 18.9932 15.0562 19.782C9.0539 25.0484 2.80978 30.0268 -3.69986 34.684C-7.61607 37.4849 -11.6555 40.1158 -15.8183 42.5672L-16.4821 42.5105L-17.4256 41.5469L-17.3876 41.188C-13.2675 39.0672 -9.52676 36.3985 -5.85235 33.659C-2.66154 31.2832 0.429709 28.7846 3.4688 26.2387C7.77853 22.6301 11.9413 18.8798 15.9333 14.9453C17.5596 13.3394 19.1621 11.6957 20.6982 10.0189H21.2008C23.6947 13.1882 25.373 16.7165 26.1127 20.6652C26.4493 22.4979 26.6057 24.3447 26.5109 26.2104C26.2075 31.5902 24.3537 36.3985 20.8452 40.5786C17.1708 44.9288 12.4913 47.7297 6.86348 49.0097C4.74892 49.4773 2.60591 49.6852 0.439192 49.6096C-2.66154 49.4868 -5.65322 48.8633 -8.51689 47.6872L-8.74447 47.5739L-8.73498 47.5691Z" fill="black"/>
<path d="M44.7265 15.668C44.0343 14.7753 42.9249 14.2888 41.7728 14.2888C39.7246 14.2888 38.3354 15.8191 38.3354 17.7651C38.3354 19.7111 39.7388 21.1801 41.8296 21.1801C42.9249 21.1801 44.0201 20.6558 44.7265 19.8481V23.7495C43.6123 24.0849 42.8063 24.3352 41.7585 24.3352C39.9616 24.3352 38.2453 23.6692 36.913 22.4931C35.486 21.2415 34.8412 19.6119 34.8412 17.7509C34.8412 16.0317 35.5049 14.388 36.7424 13.1599C38.0083 11.8893 39.8431 11.1289 41.659 11.1289C42.74 11.1289 43.7261 11.365 44.7265 11.7571V15.6727V15.668Z" fill="black"/>
<path d="M61.1262 17.4959C61.1262 21.5626 58.1251 24.4155 53.9813 24.4155C49.8375 24.4155 46.8316 21.5579 46.8316 17.4959C46.8316 13.6984 50.2595 11.0439 53.9813 11.0439C57.7031 11.0439 61.1262 13.6984 61.1262 17.4959ZM50.3258 17.5195C50.3258 19.6733 51.971 21.2651 53.9813 21.2651C55.9915 21.2651 57.632 19.6733 57.632 17.5195C57.632 15.7813 55.9868 14.199 53.9813 14.199C51.9758 14.199 50.3258 15.7813 50.3258 17.5195Z" fill="black"/>
<path d="M77.0044 17.4959C77.0044 21.5626 74.0033 24.4155 69.8547 24.4155C65.7062 24.4155 62.7098 21.5579 62.7098 17.4959C62.7098 13.6984 66.1377 11.0439 69.8547 11.0439C73.5718 11.0439 77.0044 13.6984 77.0044 17.4959ZM66.2135 17.5195C66.2135 19.6733 67.8492 21.2651 69.8595 21.2651C71.8697 21.2651 73.5149 19.6733 73.5149 17.5195C73.5149 15.7813 71.8745 14.199 69.8595 14.199C67.8445 14.199 66.2135 15.7813 66.2135 17.5195Z" fill="black"/>
<path d="M84.3864 11.4595C87.16 11.4595 89.0802 12.7065 89.0802 15.5877C89.0802 18.4689 87.4398 19.8481 84.505 19.8481H82.6038V24.0046H79.247V11.4595H84.3864ZM82.6038 17.2125H83.1679C84.3817 17.2125 85.5765 17.2125 85.5765 15.6869C85.5765 14.1612 84.467 14.0904 83.1679 14.0904H82.6038V17.2125Z" fill="black"/>
<path d="M94.6179 14.2132V16.3103H98.3966V19.0735H94.6179V21.2415H98.6005V23.9999H91.2611V11.4548H98.6005V14.2132H94.6179Z" fill="black"/>
<path d="M107.926 24.0046L104.759 19.1821H104.721V24.0046H101.365V11.4595H106.385C108.941 11.4595 110.871 12.6356 110.871 15.3137C110.871 17.0519 109.875 18.5492 108.045 18.8562L112.108 24.0046H107.926ZM104.721 17.0802H105.044C106.144 17.0802 107.381 16.8771 107.381 15.5168C107.381 14.1565 106.144 13.9487 105.044 13.9487H104.721V17.0802Z" fill="black"/>
<path d="M116.996 21.8224L116.105 24.0046H112.54L117.508 11.4595H121.173L126.038 24.0046H122.463L121.628 21.8224H116.996ZM119.338 15.3279H119.3L117.911 19.3285H120.709L119.334 15.3279H119.338Z" fill="black"/>
<path d="M137.345 15.668C136.658 14.7753 135.544 14.2888 134.396 14.2888C132.339 14.2888 130.95 15.8191 130.95 17.7651C130.95 19.7111 132.362 21.1801 134.444 21.1801C135.544 21.1801 136.644 20.6558 137.345 19.8481V23.7543C136.226 24.0849 135.425 24.3352 134.382 24.3352C132.58 24.3352 130.869 23.6692 129.527 22.4931C128.105 21.2415 127.46 19.6119 127.46 17.7509C127.46 16.0317 128.124 14.388 129.361 13.1646C130.627 11.8893 132.457 11.1289 134.278 11.1289C135.359 11.1289 136.345 11.365 137.345 11.7571V15.6727V15.668Z" fill="black"/>
<path d="M144.827 11.4548H141.47V23.9999H144.827V11.4548Z" fill="black"/>
<path d="M161.687 17.4959C161.687 21.5626 158.69 24.4155 154.542 24.4155C150.393 24.4155 147.397 21.5626 147.397 17.4959C147.397 13.7031 150.825 11.0391 154.542 11.0391C158.259 11.0391 161.687 13.7031 161.687 17.4959ZM150.891 17.5195C150.891 19.6733 152.536 21.2651 154.542 21.2651C156.547 21.2651 158.192 19.6733 158.192 17.5195C158.192 15.7813 156.547 14.1943 154.542 14.1943C152.536 14.1943 150.891 15.7813 150.891 17.5195ZM153.788 10.1937L152.399 9.21122L154.812 6.33945L156.718 7.67142L153.783 10.1889L153.788 10.1937Z" fill="black"/>
<path d="M162.9 11.4548H166.262L172.411 19.1301H172.444V11.4548H175.806V23.9999H172.444L166.29 16.3103H166.262V23.9999H162.9V11.4548Z" fill="black"/>
<path d="M37.098 27.6274H35.6614V40.1488H37.098V27.6274Z" fill="black"/>
<path d="M40.4784 27.0889L50.5392 37.329V27.6321H51.971V40.7156L41.9197 30.5039V40.1488H40.4784V27.0889Z" fill="black"/>
<path d="M58.7604 40.1488H57.3238V28.9215H54.2089V27.6274H61.9085V28.9215H58.7604V40.1488Z" fill="black"/>
<path d="M64.061 27.6321H70.7508V28.9215H65.5023V32.6482H70.5944V33.933H65.5023V38.8594H70.7508V40.1536H64.061V27.6321Z" fill="black"/>
<path d="M75.3166 40.1488H73.8847V27.6321H75.7433C78.1897 27.6321 80.4607 28.265 80.4607 31.0801C80.4607 32.9978 79.2186 34.3628 77.232 34.5328L81.3379 40.1488H79.5789L75.6769 34.6556H75.3166V40.1488ZM75.3166 33.4228H75.7622C77.379 33.4228 79.0289 33.1253 79.0289 31.1746C79.0289 29.1199 77.4691 28.9168 75.7433 28.9168H75.3166V33.4228Z" fill="black"/>
<path d="M83.9218 27.0889L93.9731 37.329V27.6321H95.4144V40.7156L85.3536 30.5039V40.1488H83.9218V27.0889Z" fill="black"/>
<path d="M100.72 36.5969L99.1599 40.1488H97.5859L103.536 27.0228L109.335 40.1488H107.746L106.229 36.5969H100.72ZM103.498 30.2819L101.293 35.298H105.655L103.493 30.2819H103.498Z" fill="black"/>
<path d="M121.254 30.3621C120.225 29.3325 118.807 28.709 117.323 28.709C114.441 28.709 112.118 31.132 112.118 33.8905C112.118 36.6489 114.464 39.0719 117.357 39.0719C118.807 39.0719 120.23 38.4107 121.254 37.4188V39.1475C120.14 39.9316 118.765 40.3755 117.409 40.3755C113.758 40.3755 110.681 37.4943 110.681 33.9424C110.681 30.3905 113.706 27.4148 117.409 27.4148C118.845 27.4148 120.106 27.8163 121.254 28.6429V30.3716V30.3621Z" fill="black"/>
<path d="M125.839 27.6274H124.402V40.1488H125.839V27.6274Z" fill="black"/>
<path d="M141.93 33.9093C141.93 37.5132 138.886 40.3708 135.207 40.3708C131.528 40.3708 128.484 37.5179 128.484 33.9093C128.484 30.3007 131.533 27.4101 135.207 27.4101C138.882 27.4101 141.93 30.3196 141.93 33.9093ZM129.921 33.8905C129.921 36.7055 132.282 39.0719 135.207 39.0719C138.132 39.0719 140.498 36.7103 140.498 33.8905C140.498 31.0706 138.166 28.709 135.207 28.709C132.249 28.709 129.921 31.047 129.921 33.8905Z" fill="black"/>
<path d="M144.647 27.0889L154.708 37.329V27.6321H156.139V40.7156L146.083 30.5039V40.1488H144.647V27.0889Z" fill="black"/>
<path d="M161.445 36.5969L159.88 40.1488H158.316L164.266 27.0228L170.064 40.1488H168.471L166.949 36.5969H161.445ZM164.228 30.2819L162.023 35.298H166.385L164.223 30.2819H164.228Z" fill="black"/>
<path d="M173.592 38.8594H177.143V40.1536H172.146V27.6321H173.592V38.8594Z" fill="black"/>
</svg>
