<svg width="39" height="39" viewBox="0 0 39 39" fill="none" xmlns="http://www.w3.org/2000/svg">
<path fill-rule="evenodd" clip-rule="evenodd" d="M1.03559 35.3867C0.868032 35.5485 0.734379 35.7421 0.642433 35.9561C0.550487 36.1701 0.50209 36.4003 0.500066 36.6332C0.498042 36.8661 0.542431 37.0971 0.630643 37.3127C0.718855 37.5283 0.849124 37.7241 1.01385 37.8888C1.17857 38.0535 1.37445 38.1838 1.59006 38.272C1.80567 38.3602 2.03668 38.4045 2.26963 38.4025C2.50258 38.4005 2.73279 38.3521 2.94683 38.2602C3.16087 38.1682 3.35446 38.0346 3.5163 37.8671L20.0338 21.3501C20.3031 21.1574 20.6351 21.0734 20.9636 21.1147C21.292 21.1559 21.5929 21.3195 21.8061 21.5728C22.0193 21.826 22.1292 22.1503 22.1138 22.481C22.0985 22.8116 21.9591 23.1244 21.7233 23.3568L10.6145 34.4623C10.936 34.909 11.2959 35.3269 11.69 35.7112L11.6988 35.72C13.2765 37.1885 15.3502 38.0078 17.5058 38.0144C22.2005 38.0144 26.1023 34.1132 26.1023 29.4191C26.1023 27.3931 27.0444 25.3688 28.5795 24.1391L28.6531 24.076C28.7461 23.983 28.8321 23.9076 28.9444 23.8129C29.0251 23.7427 29.118 23.6638 29.2338 23.5603C29.4584 23.3568 29.7233 23.0989 29.9496 22.7727C33.2409 19.1433 33.3075 14.2072 31.4409 10.2481C29.5689 6.27671 25.6724 3.10873 20.8391 3.10873C19.2708 3.10269 17.7167 3.40711 16.2666 4.00442C14.8165 4.60173 13.499 5.48012 12.39 6.58896C11.281 7.6978 10.4025 9.01514 9.8051 10.4651C9.2077 11.915 8.90325 13.4688 8.90928 15.0369V27.5124L1.03559 35.3867ZM31.9075 4.51379C31.5783 4.84271 31.3933 5.28891 31.3931 5.75423C31.393 6.21955 31.5777 6.66588 31.9066 6.99503C32.2356 7.32418 32.6819 7.50918 33.1473 7.50935C33.6126 7.50951 34.059 7.32482 34.3882 6.99591L38.0075 3.37535C38.3271 3.04452 38.5039 2.60142 38.4999 2.14149C38.4959 1.68156 38.3114 1.2416 37.9862 0.916364C37.6609 0.591132 37.2209 0.406651 36.7609 0.402654C36.3009 0.398658 35.8577 0.575465 35.5268 0.894996L31.9075 4.51379ZM20.7566 8.62024C19.912 8.6118 19.0741 8.77192 18.2921 9.09122C17.5101 9.41052 16.7997 9.88259 16.2024 10.4798C15.6051 11.077 15.133 11.7873 14.8137 12.5692C14.4943 13.3511 14.3342 14.1889 14.3426 15.0334C14.3426 15.3823 14.4812 15.7169 14.728 15.9637C14.9748 16.2104 15.3094 16.349 15.6584 16.349C16.0074 16.349 16.342 16.2104 16.5888 15.9637C16.8356 15.7169 16.9742 15.3823 16.9742 15.0334C16.9742 12.8933 18.6163 11.2515 20.7566 11.2515C21.4742 11.2515 22.1338 11.4532 22.697 11.797C22.9948 11.9791 23.3527 12.0355 23.6921 11.9538C24.0315 11.872 24.3245 11.6588 24.5066 11.3611C24.6888 11.0633 24.7452 10.7054 24.6635 10.3661C24.5817 10.0268 24.3685 9.73383 24.0707 9.55169C23.0729 8.94068 21.9249 8.61881 20.7549 8.622" fill="#007BC4"/>
</svg>
