<svg width="50" height="35" viewBox="0 0 50 35" fill="none" xmlns="http://www.w3.org/2000/svg">
<path d="M11.2033 11.1777C11.922 11.4351 12.6619 11.8427 13.4862 12.4433H13.8667L13.6342 9.46159C12.9366 9.01112 12.1968 8.64645 11.3302 8.43194C11.3302 9.35433 11.309 10.2767 11.1822 11.1777H11.2033Z" fill="#1D1D1B"/>
<path d="M4.28967 10.4054C4.4165 10.0622 4.50105 9.71894 4.54332 9.44007C2.51406 10.7486 1.2035 12.9795 1.2035 15.6609C1.2035 15.6823 1.2035 15.7038 1.2035 15.7252C1.41488 15.382 1.62626 15.0388 1.83764 14.7385C2.85227 13.1511 3.80349 11.6495 4.28967 10.4054Z" fill="#1D1D1B"/>
<path d="M4.73175 18.3208C4.30899 19.2432 3.86509 20.2514 3.56915 21.2382C4.01305 21.6457 4.52037 22.0104 5.06996 22.2893C5.21793 21.4956 5.49272 20.6161 5.85207 19.6079C5.38703 19.2647 5.00655 18.8142 4.71061 18.2994L4.73175 18.3208Z" fill="#1D1D1B"/>
<path d="M4.28818 14.1808C4.47842 13.5158 4.7955 12.9151 5.21826 12.4003C5.72557 11.3492 6.08492 10.3839 6.1272 9.54732C6.1272 9.37571 6.16947 8.94669 6.1272 8.62492C5.76785 8.75363 5.4085 8.90379 5.07029 9.09685C5.07029 9.52587 4.94346 10.0192 4.75322 10.577C4.26704 11.864 3.29469 13.3871 2.25892 14.9959C1.94185 15.4893 1.60364 16.0255 1.26543 16.5833C1.34998 17.3126 1.51909 17.999 1.79388 18.6426C2.32233 17.57 2.95648 16.476 3.56948 15.4035C3.82314 14.9744 4.05566 14.5669 4.28818 14.1593V14.1808Z" fill="#1D1D1B"/>
<path d="M4.4591 17.6987C4.22658 17.0766 4.09975 16.3902 4.09975 15.6608C4.09975 15.6179 4.09975 15.5965 4.09975 15.5536C4.07862 15.5965 4.05748 15.6394 4.0152 15.6823C3.33878 16.8621 2.64122 18.0848 2.07049 19.2646C2.36643 19.8223 2.72578 20.3586 3.14854 20.8091C3.48675 19.758 3.95179 18.7069 4.39569 17.763L4.43796 17.6772L4.4591 17.6987Z" fill="#1D1D1B"/>
<path d="M7.84219 17.0982H11.8162V19.6294C10.8861 20.2729 10.0828 20.5089 8.8991 20.5089C8.75113 20.5089 8.6243 20.5089 8.49748 20.5089C8.22268 21.3455 7.99016 22.225 7.84219 23.1045C8.15927 23.1474 8.47634 23.1688 8.79341 23.1688C10.9918 23.1688 12.704 22.3966 14.6909 20.8307V14.6099H7.86333V17.0767L7.84219 17.0982Z" fill="#1D1D1B"/>
<path d="M6.32008 19.9082C5.96074 20.895 5.70708 21.753 5.55911 22.5252C6.1087 22.7612 6.70057 22.9328 7.31358 23.0401C7.46154 22.1606 7.69406 21.2811 7.96886 20.4659C7.35585 20.3801 6.80626 20.1871 6.32008 19.9082Z" fill="#1D1D1B"/>
<path d="M6.65681 9.61184C6.61453 10.2339 6.44543 10.8989 6.14949 11.6068C6.46656 11.3923 6.82591 11.2207 7.2064 11.092C7.52347 9.97651 7.69258 9.05411 7.71371 8.26042C7.35437 8.32478 6.99502 8.38913 6.65681 8.49638C6.69908 8.94686 6.65681 9.52604 6.65681 9.61184Z" fill="#1D1D1B"/>
<path d="M9.00215 10.7915C9.19239 9.8048 9.27695 8.9253 9.25581 8.15306C9.19239 8.15306 9.12898 8.15306 9.06556 8.15306C8.76963 8.15306 8.49483 8.15306 8.22004 8.19596C8.22004 8.98965 8.05093 9.8906 7.77614 10.9417C8.15662 10.8559 8.57939 10.813 9.02329 10.813L9.00215 10.7915Z" fill="#1D1D1B"/>
<path d="M9.53077 10.813C9.91125 10.8345 10.3129 10.8988 10.7145 11.0275C10.8202 10.1266 10.8625 9.22566 10.8413 8.32471C10.5031 8.26036 10.1438 8.21746 9.78442 8.19601C9.80556 8.9897 9.74215 9.84774 9.55191 10.8345L9.53077 10.813Z" fill="#1D1D1B"/>
<path d="M21.6424 8.43194L15.3644 22.8685H18.1546L19.2115 20.4016H24.9188L25.9757 22.8685H28.766L22.4879 8.43194H21.6424ZM20.2262 17.9348L22.0652 13.5587L23.9042 17.9348H20.2262Z" fill="#1D1D1B"/>
<path d="M33.1845 16.6906H39.1032V14.2237H33.1845V10.9203H39.3146V8.43194H30.3097V22.89H39.3991V20.4016H33.1845V16.6906Z" fill="#1D1D1B"/>
<path d="M46.5253 14.3739C44.5172 13.43 43.6505 12.9152 43.6505 11.9714C43.6505 10.9846 44.3692 10.5341 45.3838 10.5341C46.6099 10.5341 47.709 11.242 48.6814 12.3146H48.9351L48.8294 9.24707C48.2164 8.68934 47.1383 8.15306 45.2993 8.15306C43.0798 8.15306 41.0505 9.61174 41.0505 12.1215C41.0505 14.0736 42.2977 15.3177 44.4749 16.3259C46.0603 17.0767 46.9903 17.5486 46.9903 18.8357C46.9903 19.9941 46.2082 20.659 45.0879 20.659C43.4391 20.659 42.2765 19.6294 41.3253 18.3852H41.1139L40.9448 21.7745C41.8115 22.5253 43.2912 23.1688 45.2147 23.1688C47.9838 23.1688 49.844 21.3669 49.844 18.7713C49.844 16.4761 48.5123 15.3177 46.483 14.3739H46.5253Z" fill="#1D1D1B"/>
<path d="M1.24479 2.29695H1.64641V1.84648C1.62527 1.33165 2.00576 0.945532 2.44966 0.945532C2.66104 0.945532 2.78787 0.988434 2.95697 1.07424V1.54616H2.93584C2.83015 1.43891 2.66104 1.396 2.55535 1.396C2.30169 1.396 2.13259 1.56761 2.13259 1.88938V2.3184H2.66104V2.76887H2.13259V5.36445H1.64641V2.74742H1.24479V2.29695Z" fill="#1D1D1B"/>
<path d="M3.78285 4.24901C3.78285 4.69948 4.07878 4.97834 4.50154 4.97834C4.98772 4.97834 5.38935 4.54932 5.38935 3.9916V2.29696H5.87552V5.34301H5.38935V4.89254C5.17796 5.21431 4.77634 5.42882 4.35358 5.42882C3.74057 5.42882 3.29667 5.02125 3.29667 4.35626V2.29696H3.78285V4.24901Z" fill="#1D1D1B"/>
<path d="M8.79126 3.39088C8.79126 2.94041 8.49533 2.66154 8.07257 2.66154C7.58639 2.66154 7.18477 3.09057 7.18477 3.64829V5.34293H6.69859V2.29688H7.18477V2.74735C7.39615 2.42558 7.79777 2.21107 8.22053 2.21107C8.83354 2.21107 9.27744 2.61864 9.27744 3.28363V5.34293H8.79126V3.39088Z" fill="#1D1D1B"/>
<path d="M9.91109 3.81993C9.91109 2.89754 10.5875 2.2111 11.4753 2.2111C11.9403 2.2111 12.3208 2.42561 12.5322 2.70448V0.902588H13.0184V5.34296H12.5322V4.93539C12.2997 5.21425 11.9192 5.42877 11.433 5.42877C10.5875 5.42877 9.88995 4.74233 9.88995 3.81993H9.91109ZM12.5745 3.81993C12.5745 3.1764 12.1517 2.66158 11.4964 2.66158C10.8412 2.66158 10.4184 3.19785 10.4184 3.81993C10.4184 4.44202 10.8412 4.97829 11.4964 4.97829C12.1517 4.97829 12.5745 4.44202 12.5745 3.81993Z" fill="#1D1D1B"/>
<path d="M13.6965 3.8199C13.6965 2.94041 14.3729 2.21107 15.2607 2.21107C15.7257 2.21107 16.1062 2.44703 16.2965 2.683V2.29688H16.7826V5.34293H16.2965V4.95681C16.0851 5.19277 15.7257 5.42873 15.2607 5.42873C14.3729 5.42873 13.6965 4.6994 13.6965 3.8199ZM16.3387 3.8199C16.3387 3.17637 15.9371 2.66154 15.2607 2.66154C14.5843 2.66154 14.1826 3.19782 14.1826 3.8199C14.1826 4.44198 14.5843 4.97826 15.2607 4.97826C15.9371 4.97826 16.3387 4.44198 16.3387 3.8199Z" fill="#1D1D1B"/>
<path d="M19.8673 5.14987C19.6771 5.32148 19.3811 5.42873 19.0218 5.42873C18.1763 5.42873 17.4576 4.8281 17.4576 3.8199C17.4576 2.8117 18.1974 2.21107 19.0218 2.21107C19.3811 2.21107 19.6771 2.31833 19.8885 2.48994V2.98331H19.8462C19.5925 2.74735 19.36 2.66154 19.0218 2.66154C18.3876 2.66154 17.9437 3.15492 17.9437 3.8199C17.9437 4.48489 18.3454 4.97826 19.0218 4.97826C19.36 4.97826 19.5714 4.89246 19.8462 4.65649H19.9096V5.14987H19.8673Z" fill="#1D1D1B"/>
<path d="M20.8385 1.03142C21.0288 1.03142 21.1767 1.18158 21.1767 1.37464C21.1767 1.5677 21.0288 1.71785 20.8385 1.71785C20.6483 1.71785 20.5003 1.5677 20.5003 1.37464C20.5003 1.18158 20.6483 1.03142 20.8385 1.03142ZM20.606 2.29703H21.0922V5.34309H20.606V2.29703Z" fill="#1D1D1B"/>
<path d="M21.7471 3.82006C21.7471 2.87621 22.4447 2.21123 23.3113 2.21123C24.178 2.21123 24.8756 2.87621 24.8756 3.82006C24.8756 4.76391 24.178 5.42889 23.3113 5.42889C22.4447 5.42889 21.7471 4.76391 21.7471 3.82006ZM24.4105 3.82006C24.4105 3.13363 23.9455 2.6617 23.3325 2.6617C22.7195 2.6617 22.2544 3.13363 22.2544 3.82006C22.2544 4.50649 22.7195 4.97842 23.3325 4.97842C23.9455 4.97842 24.4105 4.50649 24.4105 3.82006ZM23.417 1.03142H24.1357L23.2691 1.86801H22.8674L23.417 1.03142Z" fill="#1D1D1B"/>
<path d="M27.6463 3.39088C27.6463 2.94041 27.3504 2.66154 26.9276 2.66154C26.4414 2.66154 26.0398 3.09057 26.0398 3.64829V5.34293H25.5536V2.29688H26.0398V2.74735C26.2512 2.42558 26.6528 2.21107 27.0756 2.21107C27.6886 2.21107 28.1325 2.61864 28.1325 3.28363V5.34293H27.6463V3.39088Z" fill="#1D1D1B"/>
<path d="M1.28789 32.7147C1.71066 33.0579 2.26025 33.3367 2.93667 33.3367C3.38057 33.3367 3.71878 33.1651 3.71878 32.8219C3.71878 32.4787 3.40171 32.2856 2.51391 31.9853C1.58383 31.6636 1.03424 31.0629 1.03424 30.2263C1.03424 29.0465 2.00659 28.2957 3.27488 28.2957C3.9513 28.2957 4.41634 28.4245 4.88138 28.7033L4.94479 30.2907H4.86024C4.35292 29.9475 3.93016 29.7115 3.29602 29.7115C2.89439 29.7115 2.59846 29.9046 2.59846 30.162C2.59846 30.5267 2.89439 30.6983 3.76106 30.9986C4.60658 31.2774 5.34642 31.6636 5.34642 32.8005C5.34642 34.1733 4.2261 34.8598 3.02122 34.8598C2.11228 34.8598 1.39359 34.6238 0.843994 34.2591L1.22448 32.6932H1.30903L1.28789 32.7147Z" fill="#1D1D1B"/>
<path d="M5.91829 31.5777C5.91829 29.7114 7.44024 28.2957 9.25812 28.2957C11.076 28.2957 12.5979 29.7114 12.5979 31.5777C12.5979 33.4439 11.076 34.8597 9.25812 34.8597C7.44024 34.8597 5.91829 33.4439 5.91829 31.5777ZM10.9703 31.5777C10.9703 30.5266 10.1882 29.8187 9.25812 29.8187C8.32804 29.8187 7.54593 30.5266 7.54593 31.5777C7.54593 32.6288 8.32804 33.3367 9.25812 33.3367C10.1882 33.3367 10.9703 32.6288 10.9703 31.5777Z" fill="#1D1D1B"/>
<path d="M13.6098 25.6357H15.2374V34.6881H13.6098V25.6357Z" fill="#1D1D1B"/>
<path d="M17.4607 25.5284C18.0314 25.5284 18.4965 26.0003 18.4965 26.5795C18.4965 27.1587 18.0314 27.6091 17.4607 27.6091C16.89 27.6091 16.4461 27.1372 16.4461 26.5795C16.4461 26.0218 16.9111 25.5284 17.4607 25.5284ZM16.6575 28.4672H18.2851V34.688H16.6575V28.4672Z" fill="#1D1D1B"/>
<path d="M19.3608 31.5777C19.3608 29.4969 20.7137 28.2957 22.3836 28.2957C23.2291 28.2957 23.8844 28.5531 24.3283 29.0679V25.6357H25.9559V34.6881H24.3283V34.0231C23.9055 34.5165 23.2714 34.8597 22.3624 34.8597C20.6291 34.8597 19.3608 33.5083 19.3608 31.5777ZM24.4128 31.5777C24.4128 30.5695 23.7153 29.8187 22.7006 29.8187C21.686 29.8187 20.9885 30.5695 20.9885 31.5777C20.9885 32.5859 21.686 33.3367 22.7006 33.3367C23.7153 33.3367 24.4128 32.5859 24.4128 31.5777Z" fill="#1D1D1B"/>
<path d="M26.9697 31.5777C26.9697 29.7758 28.3226 28.2957 30.0348 28.2957C30.838 28.2957 31.5144 28.596 31.8526 29.0464V28.4887H33.4803V34.7095H31.8526V34.1518C31.4087 34.5808 30.9014 34.9026 29.9291 34.9026C28.4705 34.9026 26.9697 33.6584 26.9697 31.6206V31.5777ZM31.9372 31.5777C31.9372 30.6124 31.303 29.8187 30.2673 29.8187C29.2315 29.8187 28.5974 30.6124 28.5974 31.5777C28.5974 32.543 29.2315 33.3367 30.2673 33.3367C31.303 33.3367 31.9372 32.543 31.9372 31.5777Z" fill="#1D1D1B"/>
<path d="M38.8725 30.3335C38.6188 30.0332 38.2172 29.8402 37.7944 29.8402C37.0969 29.8402 36.4416 30.2906 36.4416 31.3203V34.7095H34.814V28.4887H36.4416V29.1108C36.8221 28.6174 37.4139 28.3171 38.0058 28.3171C38.4709 28.3171 38.7245 28.4244 38.9993 28.596L39.105 30.355H38.8725V30.3335Z" fill="#1D1D1B"/>
<path d="M40.9438 25.5284C41.5146 25.5284 41.9796 26.0003 41.9796 26.5795C41.9796 27.1587 41.5146 27.6091 40.9438 27.6091C40.3731 27.6091 39.9292 27.1372 39.9292 26.5795C39.9292 26.0218 40.3943 25.5284 40.9438 25.5284ZM40.1406 28.4672H41.7682V34.688H40.1406V28.4672Z" fill="#1D1D1B"/>
<path d="M42.8687 31.5777C42.8687 29.7758 44.2216 28.2957 45.9338 28.2957C46.737 28.2957 47.4134 28.596 47.7517 29.0464V28.4887H49.3793V34.7095H47.7517V34.1518C47.3077 34.5808 46.8004 34.9026 45.8281 34.9026C44.3695 34.9026 42.8687 33.6584 42.8687 31.6206V31.5777ZM47.8362 31.5777C47.8362 30.6124 47.2021 29.8187 46.1663 29.8187C45.1305 29.8187 44.4964 30.6124 44.4964 31.5777C44.4964 32.543 45.1305 33.3367 46.1663 33.3367C47.2021 33.3367 47.8362 32.543 47.8362 31.5777Z" fill="#1D1D1B"/>
</svg>
