<svg width="25" height="33" viewBox="0 0 25 33" fill="none" xmlns="http://www.w3.org/2000/svg">
<path d="M12.5 0.632812C6.0586 0.632812 0.812502 5.87891 0.812502 12.3203V26.0379C0.81132 27.7392 1.47916 29.3728 2.67188 30.586C3.25684 31.1933 3.95819 31.6764 4.73404 32.0066C5.50988 32.3368 6.34432 32.5073 7.1875 32.5078C9.63524 32.5078 11.6487 31.4705 13.172 29.4252C13.4695 29.0268 13.8062 28.4464 14.196 27.775C15.2134 26.0239 16.6059 23.6266 18.3909 22.4134C20.1022 21.2506 21.5273 19.7877 22.5081 18.182C23.6237 16.3671 24.1875 14.3948 24.1875 12.3203C24.1875 5.87891 18.9447 0.632812 12.5 0.632812ZM18.875 12.8516C18.5932 12.8516 18.323 12.7396 18.1237 12.5404C17.9244 12.3411 17.8125 12.0709 17.8125 11.7891C17.8125 9.15273 15.4292 7.00781 12.5 7.00781C9.57082 7.00781 7.1875 9.15273 7.1875 11.7891V13.8091C8.99309 13.2885 11.0656 13.3629 11.4561 13.3828C12.0392 13.3884 12.6096 13.5538 13.1052 13.861C13.6008 14.1682 14.0026 14.6055 14.2669 15.1252C14.5312 15.645 14.6479 16.2273 14.6043 16.8088C14.5606 17.3902 14.3583 17.9486 14.0194 18.423C13.9995 18.4503 13.9789 18.4768 13.9563 18.5027C12.8573 19.7645 11.5657 21.5229 11.4023 22.1551C11.3259 22.4223 11.1479 22.6489 10.9064 22.7864C10.6649 22.9239 10.3791 22.9613 10.1104 22.8906C9.84162 22.8199 9.61126 22.6467 9.46869 22.4082C9.32612 22.1696 9.28268 21.8847 9.3477 21.6145C9.7136 20.224 11.8001 17.7497 12.3134 17.1554C12.4191 16.9951 12.4794 16.8093 12.4879 16.6175C12.4965 16.4257 12.4529 16.2352 12.3618 16.0663C12.2707 15.8973 12.1356 15.7561 11.9708 15.6578C11.8059 15.5595 11.6175 15.5076 11.4255 15.5078H11.3671C10.2648 15.4487 8.31973 15.5609 7.1875 16.0596V19.7578C7.1875 20.0396 7.07556 20.3099 6.8763 20.5091C6.67704 20.7084 6.40679 20.8203 6.125 20.8203C5.84321 20.8203 5.57296 20.7084 5.3737 20.5091C5.17444 20.3099 5.0625 20.0396 5.0625 19.7578V11.7891C5.0625 7.98066 8.39875 4.88281 12.5 4.88281C16.6013 4.88281 19.9375 7.98066 19.9375 11.7891C19.9375 12.0709 19.8256 12.3411 19.6263 12.5404C19.427 12.7396 19.1568 12.8516 18.875 12.8516Z" fill="white"/>
</svg>
