<svg width="100" height="100" viewBox="0 0 100 100" fill="none" xmlns="http://www.w3.org/2000/svg">
<rect width="100" height="100" rx="20" fill="#FDDA59"/>
<path d="M38.063 77.4885L38.3335 77.627C41.7429 79.0639 45.2931 79.8257 48.9787 79.9757C51.554 80.068 54.1012 79.8199 56.6146 79.2428C63.3037 77.6789 68.8658 74.2569 73.2333 68.942C77.4034 63.8348 79.6068 57.9602 79.9675 51.3873C80.0802 49.1078 79.8943 46.8514 79.4941 44.6124C78.615 39.788 76.6201 35.4772 73.6559 31.605H73.0586C71.2327 33.6537 69.3279 35.6619 67.395 37.624C62.6557 42.4252 57.7078 47.0072 52.5797 51.4219C48.9674 54.5323 45.2931 57.5793 41.5005 60.4878C37.1275 63.8348 32.6868 67.0953 27.7897 69.6864L27.7446 70.125L28.8661 71.3022L29.655 71.3715C34.6029 68.3822 39.3985 65.1679 44.059 61.74C51.7963 56.05 59.2181 49.9677 66.3525 43.5332C67.4007 42.5695 68.4488 41.5885 69.4181 40.5382L70.641 40.2843L71.1087 41.3057L70.6523 42.0155C67.6317 45.4549 64.4703 48.7616 61.1736 51.9355C56.1525 56.7599 50.8947 61.3419 45.4227 65.6642C41.8668 68.4861 38.2489 71.1868 34.3436 73.4951C33.8026 73.824 33.2504 74.1184 32.6417 74.4646C33.1771 74.8282 33.6561 75.1398 34.1295 75.4514H34.5409C36.2258 74.3665 37.9221 73.3162 39.6014 72.2255C44.1604 69.2709 48.5278 66.045 52.7543 62.6403C55.3466 60.557 57.922 58.4334 60.4184 56.2289C62.0978 54.7632 63.7715 53.3089 65.3156 51.6989L66.4877 51.5142L66.9217 52.5587L66.5441 53.1589C64.9436 54.9825 63.2868 56.7599 61.5793 58.4969C58.6377 61.44 55.5777 64.2619 52.3993 66.9684C49.2153 69.6864 45.9468 72.3179 42.5036 74.7301C41.0892 75.7169 39.6296 76.646 38.0742 77.4827" fill="#1D1D1B"/>
<path fill-rule="evenodd" clip-rule="evenodd" d="M50.5002 20L50.9679 20.0923C55.6622 20.2077 60.0747 21.4369 64.211 23.6529C66.9611 25.1129 69.4012 26.9942 71.5821 29.2102L71.599 30.0238C68.184 33.2555 64.645 36.314 61.0609 39.3436C57.0992 42.7022 53.0587 45.9685 48.9787 49.1771C42.8756 53.9957 36.5471 58.4853 30.0382 62.7153C28.4716 63.731 26.8993 64.7293 25.327 65.7507C24.7072 66.1374 24.7015 66.1201 24.3296 65.5199C22.1712 61.9882 20.7849 58.1852 20.2721 54.1053C19.2127 45.6742 21.2358 38.0279 26.533 31.3511C30.9342 25.8227 36.6654 22.3141 43.58 20.7502C45.3439 20.3578 47.1472 20.1096 48.973 20.1096L49.283 20.0058H50.5058L50.5002 20Z" fill="#1D1D1B"/>
<path fill-rule="evenodd" clip-rule="evenodd" d="M38.063 77.4885C39.6127 76.6517 41.0779 75.7226 42.4924 74.7358C45.9356 72.3236 49.2041 69.6922 52.3881 66.9741C55.5664 64.2676 58.6264 61.4457 61.5681 58.5026C63.2756 56.7599 64.9324 54.9825 66.5328 53.1647L66.9104 52.5645L66.4765 51.52L65.3043 51.7047C63.7658 53.3089 62.0865 54.7689 60.4072 56.2347C57.9163 58.4392 55.3353 60.557 52.7431 62.646C48.5166 66.045 44.1492 69.2709 39.5901 72.2313C37.9108 73.322 36.2146 74.3723 34.5296 75.4572H34.1182C33.6448 75.1456 33.1658 74.8339 32.6305 74.4704C33.2335 74.1241 33.7914 73.8298 34.3324 73.5009C38.2433 71.1926 41.8612 68.4918 45.4115 65.6699C50.8834 61.3534 56.1412 56.7714 61.1623 51.9413C64.459 48.7673 67.6204 45.4607 70.641 42.0213L71.0974 41.3115L70.6297 40.2901L69.4068 40.544C68.4376 41.5943 67.395 42.5753 66.3412 43.539C59.2068 49.9734 51.7851 56.0558 44.0477 61.7458C39.3929 65.1679 34.5916 68.3822 29.6437 71.3772L28.8548 71.308L27.7333 70.1308L27.7784 69.6922C32.6756 67.1011 37.1219 63.8406 41.4893 60.4935C45.2819 57.5908 48.9561 54.5381 52.5684 51.4277C57.6909 47.0188 62.6388 42.4368 67.3837 37.6297C69.3167 35.6677 71.2214 33.6594 73.0473 31.6108H73.6446C76.6088 35.483 78.6038 39.7938 79.4829 44.6181C79.883 46.8572 80.0689 49.1136 79.9562 51.393C79.5956 57.9659 77.3921 63.8406 73.222 68.9477C68.8546 74.2626 63.2925 77.6847 56.6033 79.2486C54.0899 79.8199 51.5428 80.0738 48.9674 79.9815C45.2819 79.8314 41.7259 79.0697 38.3222 77.6328L38.0517 77.4943L38.063 77.4885Z" fill="#1D1D1B"/>
</svg>
