<svg xmlns="http://www.w3.org/2000/svg" viewBox="0 0 100 100" fill="none">
  <rect width="100" height="100" rx="20" fill="#F9D423"/>
  <path d="M50 25C41.7157 25 35 31.7157 35 40V60C35 68.2843 41.7157 75 50 75C58.2843 75 65 68.2843 65 60V40C65 31.7157 58.2843 25 50 25Z" fill="#1F2937"/>
  <path d="M30 50C30 50 27 50 27 53V60C27 69.9411 35.0589 78 45 78V75C36.7157 75 30 68.2843 30 60V53C30 50 30 50 30 50Z" fill="#EC1C8A"/>
  <path d="M70 50C70 50 73 50 73 53V60C73 69.9411 64.9411 78 55 78V75C63.2843 75 70 68.2843 70 60V53C70 50 70 50 70 50Z" fill="#EC1C8A"/>
</svg>
